G04*
G04 #@! TF.GenerationSoftware,Altium Limited,Altium Designer,20.0.2 (26)*
G04*
G04 Layer_Color=65535*
%FSLAX25Y25*%
%MOIN*%
G70*
G01*
G75*
%ADD10C,0.01575*%
%ADD11C,0.00787*%
%ADD12C,0.01500*%
%ADD13C,0.01000*%
%ADD14C,0.00600*%
G36*
X112623Y125028D02*
X112626Y125025D01*
X112647Y125004D01*
X112668Y124969D01*
X112689Y124928D01*
X112695Y124903D01*
X112702Y124879D01*
Y124851D01*
X112699Y124823D01*
X112689Y124792D01*
X112675Y124765D01*
X112650Y124733D01*
X112619Y124702D01*
X111887D01*
Y123307D01*
X112925D01*
X112928Y123304D01*
X112931Y123300D01*
X112952Y123279D01*
X112973Y123248D01*
X112994Y123206D01*
X113004Y123182D01*
X113008Y123154D01*
Y123130D01*
X113004Y123102D01*
X112997Y123071D01*
X112980Y123043D01*
X112959Y123012D01*
X112928Y122981D01*
X111887D01*
Y120760D01*
X111883Y120757D01*
X111880Y120753D01*
X111859Y120732D01*
X111828Y120712D01*
X111786Y120691D01*
X111762Y120680D01*
X111734Y120677D01*
X111706D01*
X111679Y120680D01*
X111651Y120687D01*
X111620Y120705D01*
X111589Y120726D01*
X111557Y120757D01*
Y122981D01*
X109822D01*
Y122977D01*
Y122964D01*
Y122943D01*
Y122912D01*
Y122873D01*
Y122832D01*
X109819Y122780D01*
X109815Y122724D01*
X109812Y122658D01*
X109808Y122592D01*
X109801Y122520D01*
X109794Y122443D01*
X109784Y122360D01*
X109774Y122276D01*
X109746Y122100D01*
X109711Y121912D01*
X109666Y121718D01*
X109607Y121524D01*
X109538Y121333D01*
X109496Y121239D01*
X109455Y121145D01*
X109406Y121055D01*
X109354Y120968D01*
X109298Y120885D01*
X109239Y120802D01*
X109177Y120726D01*
X109107Y120653D01*
X109094D01*
X109080Y120649D01*
X109062D01*
X109014Y120653D01*
X108965Y120667D01*
X108941Y120673D01*
X108920Y120687D01*
X108899Y120708D01*
X108885Y120729D01*
X108875Y120757D01*
X108871Y120788D01*
X108875Y120830D01*
X108885Y120875D01*
X108889Y120878D01*
X108892Y120885D01*
X108903Y120896D01*
X108913Y120913D01*
X108931Y120930D01*
X108948Y120958D01*
X108969Y120986D01*
X108990Y121020D01*
X109017Y121059D01*
X109042Y121100D01*
X109069Y121145D01*
X109097Y121194D01*
X109128Y121249D01*
X109156Y121308D01*
X109187Y121371D01*
X109219Y121437D01*
X109246Y121506D01*
X109277Y121579D01*
X109305Y121655D01*
X109333Y121739D01*
X109361Y121822D01*
X109385Y121912D01*
X109409Y122002D01*
X109430Y122100D01*
X109465Y122301D01*
X109489Y122512D01*
X109496Y122627D01*
X109500Y122741D01*
X109496Y122860D01*
X109493Y122981D01*
X108452D01*
X108448Y122984D01*
X108445Y122988D01*
X108427Y123009D01*
X108403Y123040D01*
X108382Y123082D01*
X108375Y123106D01*
X108372Y123134D01*
Y123158D01*
X108375Y123189D01*
X108382Y123217D01*
X108400Y123245D01*
X108420Y123276D01*
X108452Y123307D01*
X109493D01*
Y124702D01*
X108833D01*
X108830Y124706D01*
X108826Y124709D01*
X108809Y124730D01*
X108785Y124761D01*
X108764Y124806D01*
X108757Y124827D01*
X108754Y124855D01*
Y124882D01*
X108757Y124910D01*
X108764Y124938D01*
X108781Y124969D01*
X108802Y125001D01*
X108833Y125032D01*
X112619D01*
X112623Y125028D01*
D02*
G37*
G36*
X114718Y125122D02*
X114760Y125111D01*
X114809Y125091D01*
X114812Y125084D01*
X114819Y125070D01*
X114836Y125046D01*
X114854Y125014D01*
X114875Y124976D01*
X114902Y124931D01*
X114930Y124879D01*
X114958Y124827D01*
X115020Y124713D01*
X115083Y124594D01*
X115142Y124480D01*
X115166Y124428D01*
X115187Y124379D01*
X116273D01*
X116277Y124383D01*
X116283Y124393D01*
X116294Y124414D01*
X116311Y124438D01*
X116332Y124470D01*
X116356Y124504D01*
X116384Y124546D01*
X116412Y124594D01*
X116446Y124647D01*
X116481Y124702D01*
X116519Y124761D01*
X116558Y124820D01*
X116641Y124955D01*
X116728Y125094D01*
X116731D01*
X116742Y125098D01*
X116755Y125105D01*
X116776Y125111D01*
X116800Y125115D01*
X116828Y125119D01*
X116887Y125122D01*
X116915Y125119D01*
X116943Y125111D01*
X116971Y125098D01*
X116995Y125080D01*
X117016Y125056D01*
X117030Y125021D01*
X117040Y124980D01*
X117043Y124931D01*
X117040Y124928D01*
X117033Y124914D01*
X117023Y124896D01*
X117009Y124872D01*
X116991Y124841D01*
X116971Y124806D01*
X116946Y124768D01*
X116918Y124726D01*
X116859Y124640D01*
X116794Y124546D01*
X116728Y124459D01*
X116693Y124417D01*
X116658Y124379D01*
X117540D01*
X117543Y124376D01*
X117550Y124372D01*
X117571Y124352D01*
X117599Y124320D01*
X117626Y124279D01*
X117633Y124254D01*
X117640Y124227D01*
Y124202D01*
X117637Y124175D01*
X117626Y124143D01*
X117605Y124116D01*
X117578Y124084D01*
X117540Y124053D01*
X115818D01*
Y123154D01*
X117692D01*
X117696Y123151D01*
X117703Y123147D01*
X117717Y123137D01*
X117730Y123127D01*
X117762Y123096D01*
X117793Y123054D01*
X117803Y123029D01*
X117810Y123002D01*
Y122977D01*
X117807Y122950D01*
X117793Y122918D01*
X117769Y122891D01*
X117737Y122860D01*
X117692Y122828D01*
X115895D01*
X115898Y122825D01*
X115902Y122811D01*
X115912Y122794D01*
X115926Y122766D01*
X115943Y122731D01*
X115964Y122693D01*
X115992Y122648D01*
X116020Y122596D01*
X116054Y122540D01*
X116089Y122481D01*
X116131Y122415D01*
X116176Y122349D01*
X116224Y122276D01*
X116277Y122204D01*
X116335Y122131D01*
X116394Y122055D01*
X116457Y121975D01*
X116526Y121895D01*
X116596Y121815D01*
X116672Y121739D01*
X116752Y121659D01*
X116835Y121582D01*
X116922Y121506D01*
X117012Y121433D01*
X117106Y121361D01*
X117203Y121291D01*
X117307Y121225D01*
X117411Y121166D01*
X117519Y121107D01*
X117633Y121055D01*
X117748Y121007D01*
X117869Y120965D01*
Y120961D01*
X117873Y120951D01*
X117880Y120937D01*
X117887Y120916D01*
X117890Y120892D01*
X117897Y120864D01*
X117904Y120809D01*
X117900Y120777D01*
X117897Y120750D01*
X117887Y120722D01*
X117873Y120698D01*
X117852Y120677D01*
X117824Y120663D01*
X117789Y120653D01*
X117748Y120649D01*
X117744D01*
X117730Y120656D01*
X117713Y120663D01*
X117685Y120673D01*
X117654Y120687D01*
X117612Y120701D01*
X117567Y120722D01*
X117519Y120746D01*
X117463Y120774D01*
X117404Y120805D01*
X117338Y120840D01*
X117269Y120878D01*
X117200Y120920D01*
X117123Y120968D01*
X117047Y121017D01*
X116967Y121072D01*
X116884Y121135D01*
X116800Y121197D01*
X116717Y121267D01*
X116630Y121340D01*
X116547Y121420D01*
X116460Y121503D01*
X116377Y121593D01*
X116294Y121687D01*
X116210Y121784D01*
X116131Y121891D01*
X116054Y121999D01*
X115978Y122117D01*
X115905Y122238D01*
X115836Y122363D01*
X115770Y122499D01*
X115707Y122637D01*
Y122634D01*
X115704Y122624D01*
X115700Y122603D01*
X115693Y122578D01*
X115683Y122544D01*
X115669Y122506D01*
X115655Y122464D01*
X115635Y122415D01*
X115614Y122360D01*
X115589Y122301D01*
X115558Y122238D01*
X115527Y122172D01*
X115489Y122103D01*
X115447Y122030D01*
X115399Y121954D01*
X115347Y121878D01*
X115291Y121798D01*
X115228Y121714D01*
X115159Y121635D01*
X115086Y121551D01*
X115006Y121468D01*
X114920Y121385D01*
X114826Y121305D01*
X114725Y121222D01*
X114621Y121142D01*
X114507Y121062D01*
X114385Y120986D01*
X114257Y120913D01*
X114122Y120843D01*
X113976Y120774D01*
X113823Y120708D01*
X113664Y120649D01*
X113660D01*
X113653Y120653D01*
X113639Y120656D01*
X113622Y120663D01*
X113584Y120680D01*
X113546Y120708D01*
X113528Y120729D01*
X113514Y120750D01*
X113504Y120777D01*
X113500Y120805D01*
Y120840D01*
X113511Y120878D01*
X113528Y120920D01*
X113556Y120968D01*
X113559Y120972D01*
X113573Y120975D01*
X113598Y120982D01*
X113625Y120996D01*
X113664Y121010D01*
X113709Y121031D01*
X113757Y121052D01*
X113816Y121076D01*
X113875Y121107D01*
X113941Y121138D01*
X114014Y121177D01*
X114087Y121215D01*
X114163Y121260D01*
X114240Y121308D01*
X114323Y121357D01*
X114403Y121413D01*
X114486Y121472D01*
X114569Y121534D01*
X114653Y121600D01*
X114736Y121673D01*
X114816Y121746D01*
X114892Y121822D01*
X114968Y121905D01*
X115041Y121992D01*
X115111Y122082D01*
X115176Y122176D01*
X115235Y122273D01*
X115291Y122377D01*
X115340Y122485D01*
X115385Y122596D01*
X115419Y122710D01*
X115447Y122828D01*
X113608D01*
X113605Y122832D01*
X113598Y122835D01*
X113577Y122856D01*
X113549Y122887D01*
X113525Y122929D01*
X113514Y122953D01*
X113507Y122981D01*
Y123005D01*
X113514Y123037D01*
X113525Y123064D01*
X113542Y123092D01*
X113570Y123123D01*
X113608Y123154D01*
X115485D01*
Y124053D01*
X113799D01*
X113792Y124060D01*
X113771Y124074D01*
X113743Y124098D01*
X113716Y124136D01*
X113705Y124157D01*
X113702Y124182D01*
X113698Y124209D01*
X113702Y124237D01*
X113712Y124268D01*
X113733Y124303D01*
X113761Y124341D01*
X113795Y124379D01*
X114836D01*
Y124383D01*
X114830Y124390D01*
X114823Y124404D01*
X114809Y124421D01*
X114795Y124445D01*
X114777Y124470D01*
X114760Y124501D01*
X114739Y124539D01*
X114715Y124577D01*
X114687Y124619D01*
X114628Y124713D01*
X114562Y124820D01*
X114493Y124935D01*
Y124938D01*
X114496Y124949D01*
X114500Y124959D01*
X114503Y124976D01*
X114524Y125018D01*
X114552Y125063D01*
X114569Y125084D01*
X114590Y125098D01*
X114618Y125111D01*
X114646Y125122D01*
X114680Y125125D01*
X114718Y125122D01*
D02*
G37*
G36*
X235928Y138985D02*
X235956Y138974D01*
X235984Y138957D01*
X236015Y138929D01*
X236046Y138891D01*
X236085Y138541D01*
X236945D01*
X236792Y138707D01*
Y138711D01*
Y138718D01*
X236796Y138731D01*
Y138745D01*
X236806Y138784D01*
X236827Y138825D01*
X236841Y138842D01*
X236858Y138863D01*
X236883Y138877D01*
X236907Y138888D01*
X236938Y138894D01*
X236976D01*
X237018Y138891D01*
X237067Y138877D01*
X237070Y138874D01*
X237081Y138856D01*
X237098Y138832D01*
X237119Y138801D01*
X237146Y138759D01*
X237178Y138714D01*
X237216Y138659D01*
X237254Y138600D01*
X237296Y138530D01*
X237341Y138461D01*
X237386Y138384D01*
X237434Y138308D01*
X237528Y138138D01*
X237618Y137965D01*
Y137961D01*
X237615Y137954D01*
X237611Y137940D01*
X237604Y137923D01*
X237587Y137885D01*
X237559Y137843D01*
X237539Y137826D01*
X237518Y137812D01*
X237490Y137802D01*
X237462Y137795D01*
X237427D01*
X237389Y137805D01*
X237348Y137822D01*
X237299Y137847D01*
X237081Y138214D01*
X236126D01*
Y138211D01*
X236130Y138204D01*
X236133Y138194D01*
X236137Y138176D01*
X236144Y138159D01*
X236147Y138135D01*
X236157Y138107D01*
X236164Y138076D01*
X236185Y138006D01*
X236210Y137926D01*
X236234Y137840D01*
X236262Y137742D01*
X236293Y137645D01*
X236324Y137545D01*
X236359Y137444D01*
X236393Y137347D01*
X236428Y137253D01*
X236463Y137163D01*
X236494Y137083D01*
X236529Y137010D01*
X236532Y137014D01*
X236536Y137031D01*
X236546Y137052D01*
X236560Y137087D01*
X236577Y137125D01*
X236595Y137173D01*
X236615Y137225D01*
X236636Y137288D01*
X236661Y137354D01*
X236685Y137427D01*
X236713Y137503D01*
X236737Y137586D01*
X236761Y137673D01*
X236786Y137760D01*
X236834Y137947D01*
X236838D01*
X236844Y137954D01*
X236858Y137958D01*
X236876Y137965D01*
X236900Y137971D01*
X236924Y137978D01*
X236976Y137985D01*
X237004D01*
X237032Y137982D01*
X237060Y137971D01*
X237087Y137958D01*
X237108Y137940D01*
X237129Y137912D01*
X237146Y137881D01*
X237160Y137840D01*
Y137833D01*
X237153Y137815D01*
X237146Y137788D01*
X237136Y137749D01*
X237122Y137704D01*
X237108Y137649D01*
X237087Y137583D01*
X237063Y137510D01*
X237035Y137434D01*
X237008Y137347D01*
X236973Y137257D01*
X236935Y137160D01*
X236893Y137059D01*
X236844Y136955D01*
X236796Y136851D01*
X236740Y136740D01*
X236744Y136733D01*
X236758Y136719D01*
X236782Y136695D01*
X236810Y136663D01*
X236844Y136625D01*
X236883Y136583D01*
X236969Y136493D01*
X237060Y136400D01*
X237105Y136358D01*
X237150Y136320D01*
X237188Y136289D01*
X237223Y136264D01*
X237254Y136250D01*
X237278Y136243D01*
X237282D01*
X237285Y136240D01*
X237302Y136233D01*
X237316Y136237D01*
X237330Y136243D01*
X237344Y136257D01*
X237362Y136278D01*
X237375Y136313D01*
X237382Y136334D01*
X237389Y136358D01*
X237396Y136386D01*
X237403Y136417D01*
X237410Y136452D01*
X237417Y136490D01*
X237421Y136535D01*
X237427Y136583D01*
X237431Y136636D01*
X237434Y136695D01*
X237438Y136757D01*
X237441Y136826D01*
Y136903D01*
Y136983D01*
X237445Y136986D01*
X237452Y136989D01*
X237462Y136996D01*
X237479Y137007D01*
X237518Y137028D01*
X237566Y137045D01*
X237594Y137048D01*
X237618D01*
X237646Y137045D01*
X237674Y137038D01*
X237702Y137021D01*
X237726Y137000D01*
X237750Y136969D01*
X237771Y136931D01*
Y136927D01*
Y136917D01*
Y136903D01*
Y136882D01*
Y136854D01*
X237768Y136823D01*
Y136788D01*
X237764Y136750D01*
X237757Y136663D01*
X237747Y136566D01*
X237733Y136462D01*
X237716Y136358D01*
X237691Y136254D01*
X237663Y136153D01*
X237629Y136059D01*
X237608Y136018D01*
X237584Y135980D01*
X237559Y135945D01*
X237535Y135914D01*
X237507Y135886D01*
X237476Y135865D01*
X237445Y135851D01*
X237407Y135841D01*
X237372Y135837D01*
X237330Y135841D01*
X237316D01*
X237299Y135844D01*
X237271Y135851D01*
X237240Y135858D01*
X237202Y135872D01*
X237160Y135893D01*
X237112Y135917D01*
X237056Y135952D01*
X236994Y135990D01*
X236931Y136042D01*
X236862Y136101D01*
X236786Y136171D01*
X236709Y136254D01*
X236626Y136348D01*
X236584Y136400D01*
X236539Y136455D01*
Y136452D01*
X236532Y136441D01*
X236522Y136427D01*
X236511Y136407D01*
X236494Y136379D01*
X236473Y136348D01*
X236449Y136313D01*
X236421Y136271D01*
X236390Y136230D01*
X236355Y136181D01*
X236317Y136132D01*
X236275Y136080D01*
X236230Y136025D01*
X236182Y135969D01*
X236126Y135914D01*
X236071Y135855D01*
X236067D01*
X236060Y135851D01*
X236046Y135844D01*
X236029Y135841D01*
X235984Y135830D01*
X235960Y135827D01*
X235935D01*
X235908Y135830D01*
X235883Y135841D01*
X235859Y135855D01*
X235838Y135872D01*
X235821Y135900D01*
X235807Y135931D01*
X235800Y135973D01*
X235796Y136025D01*
X235800Y136028D01*
X235814Y136042D01*
X235831Y136059D01*
X235856Y136087D01*
X235883Y136118D01*
X235918Y136157D01*
X235956Y136198D01*
X235998Y136247D01*
X236039Y136299D01*
X236081Y136351D01*
X236171Y136472D01*
X236255Y136597D01*
X236296Y136663D01*
X236331Y136729D01*
X236328Y136736D01*
X236317Y136753D01*
X236303Y136781D01*
X236279Y136820D01*
X236255Y136872D01*
X236223Y136934D01*
X236189Y137010D01*
X236154Y137097D01*
X236112Y137194D01*
X236071Y137305D01*
X236026Y137427D01*
X235984Y137559D01*
X235939Y137704D01*
X235894Y137864D01*
X235849Y138034D01*
X235807Y138214D01*
X234037D01*
X234016Y138211D01*
X233989Y138204D01*
X233958Y138194D01*
X233923Y138169D01*
X233895Y138138D01*
X233885Y138117D01*
X233874Y138093D01*
X233871Y138065D01*
X233867Y138034D01*
Y137524D01*
Y137520D01*
Y137517D01*
Y137506D01*
Y137493D01*
Y137472D01*
Y137451D01*
Y137427D01*
Y137396D01*
X233864Y137330D01*
X233857Y137246D01*
X233846Y137153D01*
X233833Y137048D01*
X233812Y136934D01*
X233787Y136809D01*
X233756Y136674D01*
X233718Y136531D01*
X233673Y136382D01*
X233614Y136230D01*
X233552Y136066D01*
X233475Y135900D01*
X233472Y135897D01*
X233465Y135893D01*
X233451Y135886D01*
X233434Y135879D01*
X233388Y135862D01*
X233336Y135848D01*
X233309D01*
X233281Y135851D01*
X233253Y135858D01*
X233229Y135872D01*
X233205Y135897D01*
X233184Y135924D01*
X233170Y135962D01*
X233156Y136011D01*
Y136014D01*
X233159Y136021D01*
X233166Y136032D01*
X233173Y136049D01*
X233184Y136070D01*
X233194Y136094D01*
X233208Y136122D01*
X233222Y136153D01*
X233253Y136226D01*
X233288Y136313D01*
X233322Y136410D01*
X233361Y136514D01*
X233399Y136629D01*
X233434Y136747D01*
X233465Y136868D01*
X233492Y136996D01*
X233517Y137121D01*
X233531Y137250D01*
X233541Y137375D01*
X233538Y137496D01*
Y138072D01*
Y138079D01*
Y138093D01*
X233541Y138114D01*
X233544Y138145D01*
X233552Y138180D01*
X233562Y138221D01*
X233576Y138263D01*
X233597Y138308D01*
X233621Y138350D01*
X233652Y138391D01*
X233690Y138433D01*
X233735Y138468D01*
X233787Y138499D01*
X233850Y138520D01*
X233923Y138537D01*
X234006Y138541D01*
X235758D01*
X235720Y138888D01*
X235724Y138891D01*
X235727Y138898D01*
X235748Y138919D01*
X235779Y138947D01*
X235821Y138974D01*
X235845Y138985D01*
X235873Y138988D01*
X235897Y138992D01*
X235928Y138985D01*
D02*
G37*
G36*
X235675Y138003D02*
X235679Y137999D01*
X235699Y137978D01*
X235720Y137947D01*
X235741Y137906D01*
X235748Y137881D01*
X235755Y137854D01*
Y137829D01*
X235751Y137802D01*
X235741Y137770D01*
X235727Y137742D01*
X235703Y137711D01*
X235672Y137680D01*
X234027D01*
X234023Y137683D01*
X234020Y137687D01*
X234003Y137708D01*
X233978Y137739D01*
X233958Y137781D01*
X233950Y137805D01*
X233947Y137833D01*
Y137857D01*
X233950Y137888D01*
X233961Y137916D01*
X233975Y137944D01*
X233999Y137975D01*
X234030Y138006D01*
X235672D01*
X235675Y138003D01*
D02*
G37*
G36*
X235356Y137465D02*
X235387Y137461D01*
X235425Y137454D01*
X235467Y137444D01*
X235512Y137430D01*
X235561Y137409D01*
X235606Y137385D01*
X235651Y137354D01*
X235689Y137316D01*
X235724Y137274D01*
X235751Y137218D01*
X235772Y137156D01*
X235783Y137087D01*
Y137003D01*
Y136420D01*
Y136417D01*
Y136400D01*
Y136379D01*
Y136348D01*
X235776Y136313D01*
X235769Y136275D01*
X235758Y136233D01*
X235741Y136191D01*
X235720Y136150D01*
X235693Y136112D01*
X235658Y136077D01*
X235613Y136046D01*
X235561Y136018D01*
X235498Y136001D01*
X235425Y135994D01*
X234440D01*
X234409Y136001D01*
X234370Y136007D01*
X234332Y136018D01*
X234291Y136035D01*
X234249Y136056D01*
X234211Y136084D01*
X234173Y136118D01*
X234141Y136160D01*
X234114Y136212D01*
X234089Y136275D01*
X234075Y136344D01*
X234072Y136427D01*
Y137000D01*
Y137007D01*
Y137021D01*
X234075Y137042D01*
X234079Y137073D01*
X234086Y137108D01*
X234096Y137149D01*
X234110Y137191D01*
X234131Y137236D01*
X234155Y137277D01*
X234187Y137319D01*
X234225Y137361D01*
X234270Y137396D01*
X234325Y137427D01*
X234388Y137448D01*
X234461Y137465D01*
X234544Y137468D01*
X235328D01*
X235356Y137465D01*
D02*
G37*
G36*
X235415Y135962D02*
X235460Y135945D01*
X235508Y135917D01*
Y135914D01*
X235512Y135910D01*
X235515Y135900D01*
X235519Y135889D01*
X235529Y135855D01*
X235547Y135810D01*
X235564Y135754D01*
X235585Y135692D01*
X235606Y135622D01*
X235630Y135549D01*
X235679Y135393D01*
X235724Y135237D01*
X235741Y135161D01*
X235758Y135091D01*
X235772Y135026D01*
X235783Y134970D01*
Y134967D01*
X235779Y134960D01*
X235772Y134946D01*
X235762Y134932D01*
X235738Y134894D01*
X235699Y134859D01*
X235679Y134845D01*
X235654Y134835D01*
X235627Y134831D01*
X235595D01*
X235564Y134838D01*
X235529Y134855D01*
X235491Y134880D01*
X235453Y134915D01*
Y134921D01*
X235450Y134935D01*
X235443Y134963D01*
X235432Y134998D01*
X235422Y135043D01*
X235408Y135095D01*
X235394Y135150D01*
X235377Y135216D01*
X235356Y135282D01*
X235335Y135355D01*
X235290Y135504D01*
X235238Y135661D01*
X235182Y135810D01*
Y135813D01*
X235186Y135820D01*
X235189Y135834D01*
X235196Y135851D01*
X235214Y135889D01*
X235241Y135928D01*
X235262Y135945D01*
X235286Y135959D01*
X235311Y135969D01*
X235342Y135973D01*
X235377D01*
X235415Y135962D01*
D02*
G37*
G36*
X234013Y135897D02*
X234037Y135886D01*
X234065Y135869D01*
X234089Y135848D01*
X234114Y135817D01*
X234134Y135775D01*
Y135772D01*
X234131Y135765D01*
X234127Y135754D01*
X234124Y135740D01*
X234117Y135720D01*
X234107Y135695D01*
X234100Y135671D01*
X234086Y135640D01*
X234062Y135570D01*
X234034Y135491D01*
X233999Y135404D01*
X233961Y135310D01*
X233916Y135209D01*
X233871Y135105D01*
X233770Y134897D01*
X233718Y134793D01*
X233663Y134696D01*
X233604Y134602D01*
X233544Y134515D01*
X233541D01*
X233534Y134512D01*
X233520Y134509D01*
X233503Y134505D01*
X233458Y134502D01*
X233409Y134505D01*
X233381Y134509D01*
X233357Y134519D01*
X233333Y134533D01*
X233312Y134550D01*
X233295Y134571D01*
X233281Y134602D01*
X233274Y134637D01*
X233270Y134682D01*
Y134685D01*
X233274Y134689D01*
X233281Y134699D01*
X233288Y134710D01*
X233309Y134744D01*
X233333Y134793D01*
X233364Y134848D01*
X233402Y134915D01*
X233440Y134991D01*
X233482Y135071D01*
X233527Y135161D01*
X233572Y135251D01*
X233617Y135348D01*
X233663Y135445D01*
X233704Y135546D01*
X233742Y135647D01*
X233781Y135744D01*
X233812Y135841D01*
X233815Y135844D01*
X233822Y135848D01*
X233833Y135855D01*
X233846Y135865D01*
X233885Y135883D01*
X233933Y135897D01*
X233958Y135900D01*
X233985D01*
X234013Y135897D01*
D02*
G37*
G36*
X230314Y138947D02*
X230345Y138936D01*
X230373Y138915D01*
X230404Y138888D01*
X230435Y138849D01*
Y138350D01*
X231785D01*
X231809Y138346D01*
X231837Y138343D01*
X231872Y138336D01*
X231910Y138329D01*
X231952Y138315D01*
X231997Y138298D01*
X232038Y138273D01*
X232077Y138246D01*
X232115Y138211D01*
X232146Y138169D01*
X232174Y138121D01*
X232191Y138065D01*
X232198Y137999D01*
Y137923D01*
Y136004D01*
Y136001D01*
Y135987D01*
X232195Y135966D01*
X232191Y135938D01*
X232184Y135903D01*
X232174Y135869D01*
X232160Y135830D01*
X232139Y135789D01*
X232115Y135747D01*
X232084Y135709D01*
X232046Y135674D01*
X232000Y135640D01*
X231945Y135612D01*
X231882Y135591D01*
X231809Y135577D01*
X231726Y135574D01*
X230435D01*
Y135046D01*
Y135043D01*
Y135036D01*
Y135022D01*
X230439Y135008D01*
X230446Y134970D01*
X230463Y134925D01*
X230487Y134883D01*
X230505Y134866D01*
X230526Y134848D01*
X230550Y134838D01*
X230581Y134831D01*
X230612Y134828D01*
X230650Y134831D01*
X232063D01*
X232098Y134838D01*
X232132Y134848D01*
X232174Y134866D01*
X232212Y134894D01*
X232254Y134928D01*
X232292Y134973D01*
X232327Y135032D01*
X232340Y135067D01*
X232354Y135105D01*
X232368Y135147D01*
X232379Y135192D01*
X232389Y135241D01*
X232396Y135296D01*
X232403Y135355D01*
X232406Y135418D01*
Y135484D01*
X232403Y135556D01*
X232406Y135560D01*
X232410Y135567D01*
X232431Y135588D01*
X232465Y135615D01*
X232507Y135643D01*
X232531Y135654D01*
X232556Y135657D01*
X232583Y135661D01*
X232611Y135654D01*
X232642Y135643D01*
X232670Y135626D01*
X232701Y135598D01*
X232733Y135560D01*
Y135556D01*
Y135546D01*
Y135532D01*
Y135511D01*
Y135487D01*
Y135456D01*
X232729Y135421D01*
X232726Y135383D01*
X232719Y135300D01*
X232705Y135206D01*
X232687Y135105D01*
X232660Y135005D01*
X232622Y134904D01*
X232576Y134807D01*
X232521Y134717D01*
X232486Y134675D01*
X232452Y134637D01*
X232410Y134602D01*
X232368Y134574D01*
X232320Y134550D01*
X232271Y134529D01*
X232215Y134512D01*
X232156Y134505D01*
X232094Y134502D01*
X232025Y134505D01*
X230536D01*
X230508Y134509D01*
X230470Y134512D01*
X230432Y134519D01*
X230387Y134533D01*
X230345Y134550D01*
X230300Y134571D01*
X230255Y134602D01*
X230217Y134640D01*
X230179Y134685D01*
X230151Y134741D01*
X230127Y134807D01*
X230113Y134883D01*
X230106Y134973D01*
Y135574D01*
X228714D01*
X228683Y135581D01*
X228645Y135588D01*
X228607Y135598D01*
X228565Y135612D01*
X228523Y135636D01*
X228485Y135661D01*
X228447Y135695D01*
X228416Y135740D01*
X228388Y135789D01*
X228364Y135851D01*
X228350Y135921D01*
X228346Y136004D01*
Y137919D01*
Y137923D01*
Y137937D01*
X228350Y137958D01*
X228353Y137985D01*
X228360Y138020D01*
X228371Y138055D01*
X228381Y138093D01*
X228402Y138135D01*
X228423Y138176D01*
X228451Y138214D01*
X228485Y138249D01*
X228527Y138284D01*
X228579Y138312D01*
X228635Y138332D01*
X228700Y138346D01*
X228777Y138350D01*
X230106D01*
Y138849D01*
X230109Y138853D01*
X230113Y138860D01*
X230134Y138881D01*
X230168Y138908D01*
X230210Y138936D01*
X230234Y138943D01*
X230258Y138950D01*
X230286D01*
X230314Y138947D01*
D02*
G37*
G36*
X237063Y135858D02*
X237067Y135851D01*
X237081Y135834D01*
X237098Y135803D01*
X237126Y135761D01*
X237157Y135709D01*
X237192Y135647D01*
X237233Y135574D01*
X237278Y135494D01*
X237327Y135407D01*
X237375Y135313D01*
X237427Y135213D01*
X237483Y135105D01*
X237535Y134994D01*
X237591Y134880D01*
X237643Y134758D01*
X237695Y134637D01*
Y134633D01*
X237691Y134626D01*
X237688Y134613D01*
X237681Y134595D01*
X237663Y134557D01*
X237636Y134515D01*
X237615Y134498D01*
X237594Y134484D01*
X237566Y134474D01*
X237539Y134470D01*
X237504D01*
X237466Y134477D01*
X237424Y134495D01*
X237375Y134522D01*
Y134526D01*
X237372Y134529D01*
X237368Y134540D01*
X237362Y134554D01*
X237344Y134588D01*
X237323Y134637D01*
X237296Y134696D01*
X237264Y134762D01*
X237226Y134838D01*
X237188Y134918D01*
X237143Y135005D01*
X237098Y135091D01*
X237001Y135272D01*
X236949Y135362D01*
X236896Y135445D01*
X236844Y135529D01*
X236792Y135605D01*
Y135608D01*
Y135619D01*
Y135633D01*
Y135650D01*
X236796Y135695D01*
X236803Y135723D01*
X236813Y135747D01*
X236824Y135772D01*
X236841Y135796D01*
X236865Y135817D01*
X236890Y135837D01*
X236924Y135851D01*
X236963Y135858D01*
X237008Y135862D01*
X237063Y135858D01*
D02*
G37*
G36*
X234513Y135817D02*
X234540Y135810D01*
X234572Y135796D01*
X234603Y135778D01*
X234634Y135754D01*
Y134859D01*
Y134855D01*
Y134852D01*
X234638Y134831D01*
X234645Y134803D01*
X234655Y134772D01*
X234676Y134744D01*
X234707Y134724D01*
X234728Y134717D01*
X234752Y134713D01*
X234776D01*
X234808Y134717D01*
X236168D01*
X236196Y134720D01*
X236227Y134727D01*
X236258Y134734D01*
X236293Y134748D01*
X236324Y134765D01*
X236355Y134790D01*
X236383Y134817D01*
X236411Y134855D01*
X236428Y134897D01*
X236442Y134949D01*
X236449Y135012D01*
X236445Y135081D01*
Y135449D01*
X236449Y135452D01*
X236452Y135456D01*
X236473Y135473D01*
X236508Y135497D01*
X236549Y135518D01*
X236574Y135525D01*
X236602Y135529D01*
X236626D01*
X236657Y135525D01*
X236685Y135515D01*
X236716Y135501D01*
X236747Y135477D01*
X236779Y135445D01*
Y135039D01*
Y135036D01*
Y135032D01*
Y135022D01*
Y135012D01*
Y134977D01*
X236775Y134932D01*
X236768Y134880D01*
X236754Y134824D01*
X236737Y134762D01*
X236713Y134699D01*
X236681Y134640D01*
X236640Y134578D01*
X236591Y134526D01*
X236529Y134477D01*
X236452Y134436D01*
X236411Y134422D01*
X236366Y134408D01*
X236317Y134397D01*
X236265Y134390D01*
X234703D01*
X234665Y134397D01*
X234627Y134404D01*
X234585Y134415D01*
X234540Y134429D01*
X234495Y134453D01*
X234454Y134477D01*
X234416Y134512D01*
X234377Y134557D01*
X234350Y134606D01*
X234325Y134668D01*
X234311Y134738D01*
X234304Y134821D01*
Y135758D01*
X234308D01*
X234311Y135765D01*
X234332Y135778D01*
X234363Y135796D01*
X234409Y135810D01*
X234457Y135820D01*
X234485D01*
X234513Y135817D01*
D02*
G37*
G36*
X113626Y157782D02*
X113654Y157778D01*
X113688Y157775D01*
X113726Y157764D01*
X113768Y157754D01*
X113813Y157737D01*
X113855Y157716D01*
X113893Y157688D01*
X113931Y157657D01*
X113962Y157619D01*
X113990Y157574D01*
X114007Y157521D01*
X114014Y157463D01*
Y157393D01*
Y156810D01*
Y156807D01*
Y156789D01*
Y156769D01*
Y156737D01*
X114007Y156703D01*
X114001Y156664D01*
X113990Y156626D01*
X113973Y156585D01*
X113952Y156543D01*
X113924Y156501D01*
X113890Y156467D01*
X113848Y156435D01*
X113796Y156411D01*
X113733Y156394D01*
X113661Y156383D01*
X113577Y156387D01*
X112599D01*
X112567Y156390D01*
X112529Y156397D01*
X112491Y156411D01*
X112450Y156425D01*
X112408Y156446D01*
X112370Y156474D01*
X112331Y156508D01*
X112300Y156550D01*
X112273Y156602D01*
X112248Y156664D01*
X112234Y156734D01*
X112231Y156817D01*
Y157352D01*
Y157355D01*
Y157369D01*
X112234Y157386D01*
X112238Y157414D01*
X112245Y157442D01*
X112255Y157476D01*
X112266Y157515D01*
X112286Y157553D01*
X112307Y157591D01*
X112338Y157629D01*
X112373Y157664D01*
X112415Y157699D01*
X112463Y157730D01*
X112522Y157754D01*
X112588Y157771D01*
X112665Y157785D01*
X113602D01*
X113626Y157782D01*
D02*
G37*
G36*
X115694D02*
X115722Y157778D01*
X115756Y157771D01*
X115795Y157761D01*
X115836Y157750D01*
X115881Y157733D01*
X115923Y157709D01*
X115961Y157681D01*
X115999Y157646D01*
X116031Y157605D01*
X116058Y157556D01*
X116076Y157497D01*
X116083Y157431D01*
Y157355D01*
Y156810D01*
Y156807D01*
Y156789D01*
Y156769D01*
Y156737D01*
X116076Y156703D01*
X116069Y156664D01*
X116058Y156626D01*
X116041Y156585D01*
X116020Y156543D01*
X115992Y156501D01*
X115958Y156467D01*
X115913Y156435D01*
X115860Y156411D01*
X115798Y156394D01*
X115725Y156383D01*
X115642Y156387D01*
X115233D01*
X115246Y156376D01*
X115271Y156362D01*
X115298Y156342D01*
X115330Y156317D01*
X115402Y156265D01*
X115482Y156203D01*
X115559Y156140D01*
X115593Y156109D01*
X115624Y156078D01*
X115652Y156050D01*
X115673Y156023D01*
X116197D01*
X116201Y156019D01*
X116208Y156016D01*
X116228Y155995D01*
X116256Y155964D01*
X116284Y155922D01*
X116291Y155898D01*
X116298Y155870D01*
Y155845D01*
X116294Y155818D01*
X116284Y155787D01*
X116263Y155759D01*
X116235Y155728D01*
X116197Y155696D01*
X114785D01*
X114792Y155689D01*
X114802Y155686D01*
X114820Y155675D01*
X114837Y155665D01*
X114861Y155651D01*
X114889Y155637D01*
X114920Y155620D01*
X114955Y155599D01*
X114993Y155578D01*
X115080Y155537D01*
X115180Y155488D01*
X115288Y155436D01*
X115406Y155384D01*
X115534Y155329D01*
X115666Y155276D01*
X115808Y155224D01*
X115951Y155176D01*
X116100Y155134D01*
X116249Y155093D01*
X116402Y155061D01*
X116405Y155058D01*
X116409Y155051D01*
X116416Y155041D01*
X116426Y155027D01*
X116444Y154988D01*
X116457Y154940D01*
Y154912D01*
X116454Y154888D01*
X116447Y154860D01*
X116433Y154832D01*
X116412Y154808D01*
X116384Y154784D01*
X116350Y154759D01*
X116301Y154739D01*
X116298D01*
X116287Y154742D01*
X116273Y154745D01*
X116253Y154752D01*
X116225Y154759D01*
X116194Y154770D01*
X116159Y154780D01*
X116117Y154791D01*
X116069Y154805D01*
X116020Y154822D01*
X115965Y154839D01*
X115954Y154843D01*
X115975Y154829D01*
X116020Y154787D01*
X116058Y154739D01*
X116089Y154680D01*
X116110Y154614D01*
X116121Y154537D01*
Y154447D01*
Y153826D01*
Y153819D01*
Y153802D01*
Y153777D01*
X116117Y153743D01*
X116114Y153701D01*
X116103Y153659D01*
X116089Y153611D01*
X116072Y153562D01*
X116044Y153514D01*
X116013Y153469D01*
X115972Y153427D01*
X115919Y153389D01*
X115860Y153358D01*
X115788Y153337D01*
X115704Y153326D01*
X114760D01*
X114729Y153330D01*
X114691Y153333D01*
X114649Y153344D01*
X114601Y153358D01*
X114556Y153375D01*
X114507Y153399D01*
X114462Y153434D01*
X114417Y153475D01*
X114379Y153524D01*
X114348Y153583D01*
X114320Y153656D01*
X114306Y153739D01*
X114299Y153833D01*
Y154444D01*
Y154451D01*
Y154464D01*
X114303Y154492D01*
X114306Y154523D01*
X114313Y154562D01*
X114327Y154603D01*
X114341Y154648D01*
X114362Y154697D01*
X114389Y154745D01*
X114424Y154791D01*
X114462Y154832D01*
X114514Y154870D01*
X114570Y154905D01*
X114639Y154929D01*
X114715Y154943D01*
X114806Y154950D01*
X115635D01*
X115663Y154947D01*
X115684Y154945D01*
X115645Y154961D01*
X115496Y155023D01*
X115337Y155093D01*
X115173Y155169D01*
X115007Y155256D01*
X114837Y155353D01*
X114667Y155457D01*
X114497Y155571D01*
X114330Y155696D01*
X113796D01*
X113792Y155693D01*
X113785Y155689D01*
X113775Y155679D01*
X113761Y155665D01*
X113744Y155648D01*
X113719Y155627D01*
X113692Y155606D01*
X113661Y155578D01*
X113626Y155551D01*
X113588Y155523D01*
X113546Y155488D01*
X113501Y155457D01*
X113404Y155384D01*
X113293Y155308D01*
X113168Y155228D01*
X113032Y155145D01*
X112890Y155065D01*
X112738Y154988D01*
X112574Y154915D01*
X112505Y154888D01*
X112502Y154886D01*
X112574Y154915D01*
X112654Y154936D01*
X112744Y154950D01*
X113452D01*
X113480Y154947D01*
X113515Y154943D01*
X113553Y154936D01*
X113598Y154922D01*
X113647Y154909D01*
X113699Y154888D01*
X113747Y154860D01*
X113792Y154829D01*
X113838Y154787D01*
X113876Y154739D01*
X113907Y154680D01*
X113928Y154614D01*
X113938Y154537D01*
Y154447D01*
Y153826D01*
Y153819D01*
Y153802D01*
Y153777D01*
X113935Y153743D01*
X113931Y153701D01*
X113921Y153659D01*
X113907Y153611D01*
X113890Y153562D01*
X113862Y153514D01*
X113831Y153469D01*
X113789Y153427D01*
X113737Y153389D01*
X113678Y153358D01*
X113605Y153337D01*
X113522Y153326D01*
X112696D01*
X112665Y153330D01*
X112627Y153333D01*
X112581Y153344D01*
X112536Y153358D01*
X112488Y153375D01*
X112439Y153399D01*
X112394Y153434D01*
X112349Y153475D01*
X112311Y153524D01*
X112279Y153583D01*
X112252Y153656D01*
X112238Y153739D01*
X112231Y153833D01*
Y154444D01*
Y154451D01*
Y154464D01*
X112234Y154485D01*
X112238Y154516D01*
X112248Y154551D01*
X112259Y154593D01*
X112273Y154638D01*
X112297Y154683D01*
X112321Y154728D01*
X112356Y154773D01*
X112398Y154815D01*
X112446Y154853D01*
X112502Y154886D01*
X112404Y154846D01*
X112227Y154787D01*
X112047Y154739D01*
X112043D01*
X112037Y154742D01*
X112026Y154749D01*
X112012Y154759D01*
X111981Y154784D01*
X111946Y154818D01*
X111919Y154864D01*
X111908Y154891D01*
X111905Y154919D01*
Y154950D01*
X111908Y154985D01*
X111922Y155023D01*
X111943Y155061D01*
X111946D01*
X111953Y155065D01*
X111964D01*
X111978Y155068D01*
X111995Y155072D01*
X112019Y155079D01*
X112043Y155086D01*
X112075Y155093D01*
X112144Y155110D01*
X112224Y155134D01*
X112314Y155165D01*
X112411Y155197D01*
X112519Y155238D01*
X112633Y155283D01*
X112751Y155335D01*
X112876Y155394D01*
X113001Y155460D01*
X113126Y155530D01*
X113254Y155610D01*
X113380Y155696D01*
X112037D01*
X112033Y155700D01*
X112026Y155703D01*
X112005Y155724D01*
X111978Y155755D01*
X111953Y155797D01*
X111943Y155821D01*
X111936Y155849D01*
Y155873D01*
X111943Y155904D01*
X111953Y155932D01*
X111971Y155960D01*
X111998Y155991D01*
X112037Y156023D01*
X113598D01*
X113602Y156026D01*
X113605Y156029D01*
X113615Y156040D01*
X113629Y156054D01*
X113643Y156071D01*
X113664Y156095D01*
X113685Y156120D01*
X113709Y156147D01*
X113733Y156182D01*
X113765Y156217D01*
X113792Y156255D01*
X113824Y156300D01*
X113893Y156397D01*
X113962Y156505D01*
X113966Y156508D01*
X113973Y156512D01*
X113987Y156519D01*
X114004Y156526D01*
X114049Y156543D01*
X114105Y156553D01*
X114132D01*
X114160Y156550D01*
X114184Y156539D01*
X114212Y156526D01*
X114237Y156501D01*
X114254Y156474D01*
X114271Y156432D01*
X114285Y156383D01*
X114282Y156380D01*
X114278Y156373D01*
X114268Y156356D01*
X114254Y156338D01*
X114237Y156317D01*
X114216Y156290D01*
X114174Y156234D01*
X114122Y156172D01*
X114070Y156113D01*
X114021Y156061D01*
X113997Y156040D01*
X113976Y156023D01*
X115278D01*
X115260Y156029D01*
X115232Y156036D01*
X115194Y156054D01*
X115170Y156068D01*
X115142Y156081D01*
X115111Y156102D01*
X115076Y156123D01*
X115035Y156147D01*
X114993Y156175D01*
Y156179D01*
Y156186D01*
X114989Y156199D01*
Y156217D01*
X114993Y156258D01*
X115003Y156304D01*
X115014Y156328D01*
X115028Y156349D01*
X115045Y156366D01*
X115066Y156383D01*
X115075Y156387D01*
X114667D01*
X114632Y156390D01*
X114594Y156397D01*
X114556Y156411D01*
X114518Y156425D01*
X114476Y156446D01*
X114438Y156474D01*
X114400Y156508D01*
X114368Y156550D01*
X114341Y156602D01*
X114316Y156664D01*
X114303Y156734D01*
X114299Y156817D01*
Y157358D01*
Y157362D01*
X114303Y157376D01*
X114306Y157397D01*
X114313Y157424D01*
X114320Y157459D01*
X114334Y157494D01*
X114348Y157532D01*
X114368Y157574D01*
X114393Y157612D01*
X114424Y157650D01*
X114459Y157688D01*
X114497Y157719D01*
X114545Y157747D01*
X114601Y157768D01*
X114660Y157782D01*
X114729Y157785D01*
X115670D01*
X115694Y157782D01*
D02*
G37*
G36*
X114287Y165318D02*
X114329Y165307D01*
X114377Y165286D01*
X114381Y165283D01*
X114384Y165272D01*
X114391Y165255D01*
X114405Y165231D01*
X114419Y165200D01*
X114433Y165165D01*
X114450Y165127D01*
X114471Y165082D01*
X114492Y165033D01*
X114513Y164981D01*
X114558Y164866D01*
X114599Y164742D01*
X114641Y164613D01*
X115998D01*
X116001Y164610D01*
X116005Y164606D01*
X116025Y164585D01*
X116046Y164554D01*
X116067Y164513D01*
X116077Y164488D01*
X116081Y164461D01*
Y164436D01*
X116077Y164409D01*
X116071Y164377D01*
X116053Y164349D01*
X116032Y164318D01*
X116001Y164287D01*
X112941D01*
X112937Y164290D01*
X112934Y164294D01*
X112916Y164315D01*
X112892Y164346D01*
X112871Y164388D01*
X112864Y164412D01*
X112861Y164440D01*
Y164464D01*
X112864Y164495D01*
X112871Y164523D01*
X112889Y164551D01*
X112909Y164582D01*
X112941Y164613D01*
X114287D01*
Y164617D01*
X114284Y164624D01*
X114280Y164637D01*
X114273Y164655D01*
X114266Y164679D01*
X114256Y164707D01*
X114242Y164738D01*
X114232Y164773D01*
X114214Y164814D01*
X114197Y164856D01*
X114159Y164950D01*
X114113Y165054D01*
X114058Y165168D01*
Y165172D01*
X114061Y165179D01*
X114065Y165189D01*
X114072Y165207D01*
X114089Y165241D01*
X114117Y165276D01*
X114138Y165293D01*
X114159Y165307D01*
X114186Y165318D01*
X114214Y165324D01*
X114249D01*
X114287Y165318D01*
D02*
G37*
G36*
X113354Y164009D02*
X113388Y163996D01*
X113426Y163968D01*
X113465Y163933D01*
Y163930D01*
X113468Y163923D01*
X113475Y163905D01*
X113479Y163884D01*
X113489Y163860D01*
X113499Y163829D01*
X113510Y163791D01*
X113524Y163749D01*
X113538Y163701D01*
X113551Y163648D01*
X113569Y163590D01*
X113586Y163527D01*
X113603Y163461D01*
X113621Y163388D01*
X113642Y163312D01*
X113662Y163232D01*
X113683Y163149D01*
X113704Y163059D01*
X113728Y162965D01*
X113749Y162871D01*
X113774Y162771D01*
X113794Y162666D01*
X113839Y162448D01*
X113884Y162219D01*
X113926Y161976D01*
X113968Y161723D01*
X114006Y161459D01*
Y161456D01*
X114003Y161449D01*
X113996Y161438D01*
X113985Y161424D01*
X113961Y161397D01*
X113923Y161365D01*
X113902Y161355D01*
X113877Y161345D01*
X113850Y161337D01*
X113819D01*
X113787Y161345D01*
X113753Y161358D01*
X113715Y161379D01*
X113676Y161407D01*
Y161410D01*
X113673Y161424D01*
Y161442D01*
X113666Y161469D01*
X113662Y161501D01*
X113655Y161542D01*
X113648Y161587D01*
X113642Y161639D01*
X113631Y161698D01*
X113621Y161761D01*
X113610Y161830D01*
X113596Y161903D01*
X113583Y161979D01*
X113569Y162063D01*
X113551Y162146D01*
X113538Y162236D01*
X113499Y162424D01*
X113461Y162621D01*
X113416Y162826D01*
X113367Y163034D01*
X113315Y163246D01*
X113260Y163461D01*
X113201Y163673D01*
X113138Y163877D01*
Y163881D01*
X113142Y163888D01*
X113149Y163902D01*
X113159Y163919D01*
X113183Y163954D01*
X113218Y163989D01*
X113242Y164003D01*
X113267Y164013D01*
X113291Y164020D01*
X113322D01*
X113354Y164009D01*
D02*
G37*
G36*
X115526Y164089D02*
X115554Y164079D01*
X115581Y164061D01*
X115606Y164037D01*
X115630Y163999D01*
X115651Y163954D01*
Y163950D01*
X115647Y163936D01*
X115644Y163912D01*
X115640Y163884D01*
X115633Y163846D01*
X115626Y163801D01*
X115616Y163749D01*
X115609Y163690D01*
X115595Y163624D01*
X115581Y163551D01*
X115567Y163475D01*
X115554Y163392D01*
X115536Y163305D01*
X115519Y163215D01*
X115498Y163118D01*
X115477Y163017D01*
X115432Y162809D01*
X115380Y162590D01*
X115324Y162361D01*
X115262Y162129D01*
X115193Y161893D01*
X115120Y161660D01*
X115043Y161431D01*
X114960Y161209D01*
X116112D01*
X116116Y161206D01*
X116119Y161202D01*
X116140Y161181D01*
X116161Y161150D01*
X116182Y161109D01*
X116192Y161084D01*
X116195Y161056D01*
Y161032D01*
X116192Y161004D01*
X116185Y160973D01*
X116168Y160945D01*
X116147Y160914D01*
X116116Y160883D01*
X112632D01*
X112628Y160886D01*
X112625Y160890D01*
X112608Y160911D01*
X112583Y160942D01*
X112562Y160984D01*
X112556Y161008D01*
X112552Y161036D01*
Y161060D01*
X112556Y161091D01*
X112566Y161119D01*
X112580Y161147D01*
X112604Y161178D01*
X112635Y161209D01*
X114606D01*
Y161213D01*
X114610Y161223D01*
X114617Y161240D01*
X114627Y161261D01*
X114637Y161292D01*
X114648Y161327D01*
X114665Y161365D01*
X114679Y161414D01*
X114700Y161466D01*
X114717Y161525D01*
X114738Y161591D01*
X114762Y161660D01*
X114787Y161733D01*
X114811Y161813D01*
X114835Y161900D01*
X114863Y161990D01*
X114891Y162084D01*
X114919Y162184D01*
X114950Y162288D01*
X114978Y162396D01*
X115009Y162510D01*
X115036Y162625D01*
X115068Y162750D01*
X115095Y162875D01*
X115127Y163003D01*
X115155Y163135D01*
X115186Y163274D01*
X115214Y163413D01*
X115269Y163704D01*
X115321Y164009D01*
X115324Y164013D01*
X115331Y164020D01*
X115342Y164027D01*
X115359Y164041D01*
X115397Y164065D01*
X115446Y164086D01*
X115474Y164093D01*
X115498D01*
X115526Y164089D01*
D02*
G37*
G36*
X112656Y165286D02*
X112684Y165276D01*
X112708Y165262D01*
X112736Y165245D01*
X112760Y165217D01*
X112781Y165186D01*
Y165182D01*
Y165179D01*
X112778Y165168D01*
Y165155D01*
X112771Y165120D01*
X112764Y165071D01*
X112753Y165012D01*
X112743Y164943D01*
X112725Y164863D01*
X112708Y164780D01*
X112687Y164686D01*
X112663Y164585D01*
X112632Y164485D01*
X112601Y164377D01*
X112566Y164270D01*
X112524Y164162D01*
X112483Y164051D01*
X112434Y163944D01*
Y160841D01*
X112431Y160838D01*
X112427Y160834D01*
X112406Y160813D01*
X112372Y160793D01*
X112330Y160772D01*
X112306Y160761D01*
X112281Y160758D01*
X112254D01*
X112226Y160761D01*
X112195Y160768D01*
X112167Y160786D01*
X112136Y160807D01*
X112104Y160838D01*
Y163479D01*
X112097Y163465D01*
X112091Y163444D01*
X112080Y163416D01*
X112063Y163381D01*
X112045Y163343D01*
X112025Y163298D01*
X112000Y163250D01*
X111941Y163149D01*
X111868Y163041D01*
X111782Y162937D01*
X111737Y162885D01*
X111685Y162840D01*
X111681D01*
X111674Y162837D01*
X111660Y162833D01*
X111643D01*
X111601Y162830D01*
X111556Y162837D01*
X111532Y162844D01*
X111511Y162854D01*
X111490Y162871D01*
X111476Y162896D01*
X111462Y162923D01*
X111456Y162958D01*
X111452Y163000D01*
X111456Y163052D01*
X111459Y163055D01*
X111466Y163066D01*
X111476Y163079D01*
X111494Y163100D01*
X111514Y163128D01*
X111539Y163163D01*
X111566Y163201D01*
X111594Y163242D01*
X111629Y163291D01*
X111664Y163343D01*
X111702Y163399D01*
X111740Y163461D01*
X111782Y163524D01*
X111823Y163593D01*
X111868Y163666D01*
X111910Y163742D01*
X112000Y163902D01*
X112087Y164075D01*
X112170Y164256D01*
X112247Y164443D01*
X112316Y164637D01*
X112375Y164839D01*
X112399Y164939D01*
X112420Y165040D01*
X112437Y165141D01*
X112451Y165241D01*
X112455D01*
X112462Y165248D01*
X112472Y165252D01*
X112486Y165259D01*
X112528Y165276D01*
X112576Y165286D01*
X112601Y165290D01*
X112628D01*
X112656Y165286D01*
D02*
G37*
G36*
X113778Y172411D02*
X113810Y172401D01*
X113838Y172380D01*
X113869Y172352D01*
X113900Y172314D01*
Y171814D01*
X115250D01*
X115274Y171811D01*
X115302Y171807D01*
X115337Y171800D01*
X115375Y171793D01*
X115416Y171780D01*
X115462Y171762D01*
X115503Y171738D01*
X115541Y171710D01*
X115579Y171676D01*
X115611Y171634D01*
X115638Y171585D01*
X115656Y171530D01*
X115663Y171464D01*
Y171388D01*
Y169469D01*
Y169465D01*
Y169451D01*
X115659Y169430D01*
X115656Y169403D01*
X115649Y169368D01*
X115638Y169333D01*
X115624Y169295D01*
X115604Y169254D01*
X115579Y169212D01*
X115548Y169174D01*
X115510Y169139D01*
X115465Y169104D01*
X115409Y169077D01*
X115347Y169056D01*
X115274Y169042D01*
X115191Y169038D01*
X113900D01*
Y168511D01*
Y168507D01*
Y168500D01*
Y168487D01*
X113903Y168473D01*
X113910Y168435D01*
X113928Y168389D01*
X113952Y168348D01*
X113969Y168330D01*
X113990Y168313D01*
X114014Y168303D01*
X114046Y168296D01*
X114077Y168292D01*
X114115Y168296D01*
X115527D01*
X115562Y168303D01*
X115597Y168313D01*
X115638Y168330D01*
X115677Y168358D01*
X115718Y168393D01*
X115756Y168438D01*
X115791Y168497D01*
X115805Y168532D01*
X115819Y168570D01*
X115833Y168612D01*
X115843Y168657D01*
X115854Y168705D01*
X115860Y168761D01*
X115867Y168820D01*
X115871Y168882D01*
Y168948D01*
X115867Y169021D01*
X115871Y169024D01*
X115874Y169031D01*
X115895Y169052D01*
X115930Y169080D01*
X115972Y169108D01*
X115996Y169118D01*
X116020Y169122D01*
X116048Y169125D01*
X116076Y169118D01*
X116107Y169108D01*
X116135Y169090D01*
X116166Y169063D01*
X116197Y169024D01*
Y169021D01*
Y169011D01*
Y168997D01*
Y168976D01*
Y168952D01*
Y168920D01*
X116194Y168886D01*
X116190Y168848D01*
X116183Y168764D01*
X116169Y168670D01*
X116152Y168570D01*
X116124Y168469D01*
X116086Y168369D01*
X116041Y168272D01*
X115985Y168181D01*
X115951Y168140D01*
X115916Y168101D01*
X115874Y168067D01*
X115833Y168039D01*
X115784Y168015D01*
X115736Y167994D01*
X115680Y167976D01*
X115621Y167970D01*
X115559Y167966D01*
X115489Y167970D01*
X114001D01*
X113973Y167973D01*
X113935Y167976D01*
X113897Y167983D01*
X113851Y167997D01*
X113810Y168015D01*
X113765Y168035D01*
X113719Y168067D01*
X113681Y168105D01*
X113643Y168150D01*
X113615Y168205D01*
X113591Y168272D01*
X113577Y168348D01*
X113570Y168438D01*
Y169038D01*
X112179D01*
X112148Y169045D01*
X112109Y169052D01*
X112071Y169063D01*
X112030Y169077D01*
X111988Y169101D01*
X111950Y169125D01*
X111912Y169160D01*
X111880Y169205D01*
X111853Y169254D01*
X111828Y169316D01*
X111814Y169385D01*
X111811Y169469D01*
Y171384D01*
Y171388D01*
Y171401D01*
X111814Y171422D01*
X111818Y171450D01*
X111825Y171485D01*
X111835Y171519D01*
X111846Y171557D01*
X111866Y171599D01*
X111887Y171641D01*
X111915Y171679D01*
X111950Y171714D01*
X111992Y171748D01*
X112043Y171776D01*
X112099Y171797D01*
X112165Y171811D01*
X112241Y171814D01*
X113570D01*
Y172314D01*
X113574Y172318D01*
X113577Y172324D01*
X113598Y172345D01*
X113633Y172373D01*
X113674Y172401D01*
X113699Y172408D01*
X113723Y172415D01*
X113751D01*
X113778Y172411D01*
D02*
G37*
G36*
X184653Y117324D02*
X184695Y117314D01*
X184744Y117293D01*
Y117290D01*
X184751Y117283D01*
X184754Y117269D01*
X184765Y117251D01*
X184775Y117231D01*
X184785Y117210D01*
X184810Y117154D01*
X184837Y117095D01*
X184862Y117033D01*
X184886Y116977D01*
X184900Y116925D01*
X186708D01*
X186711Y116922D01*
X186718Y116918D01*
X186739Y116897D01*
X186767Y116866D01*
X186794Y116825D01*
X186801Y116800D01*
X186808Y116772D01*
Y116748D01*
X186805Y116720D01*
X186794Y116689D01*
X186774Y116662D01*
X186746Y116630D01*
X186708Y116599D01*
X185754D01*
X185743Y116603D01*
X185715Y116609D01*
X185687Y116606D01*
X185663Y116603D01*
X185655Y116599D01*
X183993D01*
X183984Y116603D01*
X183956Y116609D01*
X183928Y116606D01*
X183900Y116603D01*
X183894Y116599D01*
X183165D01*
X183144Y116596D01*
X183116Y116589D01*
X183085Y116578D01*
X183050Y116554D01*
X183023Y116523D01*
X183012Y116502D01*
X183002Y116478D01*
X182998Y116450D01*
X182995Y116419D01*
Y115010D01*
Y115006D01*
Y114992D01*
Y114975D01*
Y114947D01*
Y114913D01*
Y114871D01*
Y114826D01*
Y114774D01*
X182991Y114715D01*
Y114652D01*
X182988Y114583D01*
X182984Y114514D01*
X182981Y114437D01*
X182974Y114357D01*
X182960Y114187D01*
X182939Y114010D01*
X182915Y113827D01*
X182884Y113639D01*
X182846Y113452D01*
X182797Y113264D01*
X182741Y113084D01*
X182676Y112910D01*
X182637Y112831D01*
X182599Y112751D01*
X182596D01*
X182585Y112747D01*
X182571Y112740D01*
X182551Y112737D01*
X182526Y112730D01*
X182502Y112726D01*
X182447Y112723D01*
X182419Y112726D01*
X182395Y112733D01*
X182370Y112747D01*
X182349Y112765D01*
X182332Y112793D01*
X182322Y112824D01*
X182318Y112865D01*
X182322Y112914D01*
Y112917D01*
X182325Y112924D01*
X182332Y112935D01*
X182339Y112952D01*
X182346Y112973D01*
X182356Y113001D01*
X182367Y113028D01*
X182381Y113063D01*
X182395Y113105D01*
X182408Y113146D01*
X182426Y113195D01*
X182440Y113247D01*
X182457Y113303D01*
X182474Y113362D01*
X182492Y113424D01*
X182509Y113493D01*
X182526Y113563D01*
X182540Y113639D01*
X182558Y113719D01*
X182575Y113799D01*
X182589Y113885D01*
X182603Y113976D01*
X182627Y114163D01*
X182648Y114364D01*
X182662Y114576D01*
X182669Y114802D01*
X182665Y115038D01*
Y116419D01*
Y116426D01*
Y116439D01*
X182669Y116467D01*
X182672Y116498D01*
X182679Y116537D01*
X182689Y116578D01*
X182703Y116623D01*
X182724Y116672D01*
X182748Y116720D01*
X182780Y116766D01*
X182818Y116807D01*
X182863Y116845D01*
X182915Y116880D01*
X182977Y116904D01*
X183050Y116918D01*
X183134Y116925D01*
X184539D01*
Y116929D01*
X184532Y116939D01*
X184525Y116960D01*
X184511Y116984D01*
X184497Y117015D01*
X184476Y117050D01*
X184452Y117088D01*
X184424Y117133D01*
Y117137D01*
X184428Y117147D01*
X184431Y117161D01*
X184438Y117178D01*
X184456Y117220D01*
X184483Y117262D01*
X184504Y117283D01*
X184525Y117300D01*
X184553Y117314D01*
X184581Y117324D01*
X184615Y117328D01*
X184653Y117324D01*
D02*
G37*
G36*
X185774Y116592D02*
X185802Y116571D01*
X185833Y116543D01*
X185864Y116505D01*
Y116086D01*
X186635D01*
X186638Y116082D01*
X186642Y116078D01*
X186663Y116058D01*
X186683Y116023D01*
X186704Y115981D01*
X186715Y115957D01*
X186718Y115933D01*
Y115905D01*
X186715Y115877D01*
X186708Y115846D01*
X186690Y115818D01*
X186670Y115787D01*
X186638Y115756D01*
X185864D01*
Y115419D01*
Y115416D01*
Y115398D01*
Y115378D01*
Y115346D01*
X185858Y115312D01*
X185851Y115273D01*
X185840Y115232D01*
X185823Y115190D01*
X185802Y115149D01*
X185774Y115110D01*
X185740Y115076D01*
X185698Y115044D01*
X185646Y115017D01*
X185583Y114999D01*
X185511Y114992D01*
X184143D01*
X184112Y114999D01*
X184074Y115006D01*
X184036Y115017D01*
X183994Y115031D01*
X183952Y115055D01*
X183914Y115079D01*
X183876Y115114D01*
X183845Y115159D01*
X183817Y115208D01*
X183793Y115270D01*
X183779Y115339D01*
X183776Y115423D01*
Y115756D01*
X183078D01*
X183075Y115759D01*
X183071Y115763D01*
X183054Y115784D01*
X183029Y115815D01*
X183009Y115860D01*
X183002Y115881D01*
X182998Y115909D01*
Y115936D01*
X183002Y115964D01*
X183009Y115992D01*
X183026Y116023D01*
X183047Y116054D01*
X183078Y116086D01*
X183776D01*
Y116509D01*
X183779Y116512D01*
X183782Y116519D01*
X183803Y116540D01*
X183835Y116568D01*
X183880Y116592D01*
X183894Y116599D01*
X183993D01*
X184011Y116592D01*
X184043Y116571D01*
X184074Y116543D01*
X184105Y116505D01*
Y116086D01*
X185535D01*
Y116509D01*
X185538Y116512D01*
X185542Y116519D01*
X185563Y116540D01*
X185597Y116568D01*
X185639Y116592D01*
X185655Y116599D01*
X185754D01*
X185774Y116592D01*
D02*
G37*
G36*
X186021Y114704D02*
X186055Y114701D01*
X186093Y114694D01*
X186139Y114684D01*
X186180Y114670D01*
X186222Y114649D01*
X186260Y114625D01*
X186291Y114593D01*
X186316Y114555D01*
X186326Y114510D01*
X186329Y114486D01*
Y114458D01*
X186322Y114427D01*
X186312Y114396D01*
X186302Y114361D01*
X186284Y114323D01*
X186260Y114281D01*
X186232Y114239D01*
X186229Y114236D01*
X186212Y114222D01*
X186187Y114198D01*
X186156Y114167D01*
X186114Y114132D01*
X186062Y114087D01*
X186000Y114038D01*
X185934Y113986D01*
X185854Y113927D01*
X185771Y113865D01*
X185677Y113802D01*
X185576Y113736D01*
X185469Y113670D01*
X185354Y113601D01*
X185230Y113535D01*
X185101Y113469D01*
X185105D01*
X185108Y113466D01*
X185118Y113462D01*
X185132Y113455D01*
X185150Y113448D01*
X185170Y113438D01*
X185198Y113427D01*
X185226Y113417D01*
X185257Y113403D01*
X185295Y113389D01*
X185334Y113375D01*
X185375Y113358D01*
X185472Y113327D01*
X185580Y113289D01*
X185701Y113254D01*
X185837Y113216D01*
X185983Y113178D01*
X186139Y113143D01*
X186305Y113108D01*
X186482Y113074D01*
X186670Y113046D01*
X186867Y113022D01*
X186871Y113018D01*
X186878Y113011D01*
X186885Y113001D01*
X186899Y112987D01*
X186923Y112949D01*
X186944Y112900D01*
X186951Y112876D01*
Y112848D01*
Y112820D01*
X186940Y112796D01*
X186923Y112768D01*
X186895Y112744D01*
X186860Y112720D01*
X186815Y112699D01*
X186801D01*
X186784Y112702D01*
X186763Y112706D01*
X186735Y112709D01*
X186701Y112713D01*
X186663Y112720D01*
X186618Y112723D01*
X186569Y112733D01*
X186517Y112740D01*
X186461Y112751D01*
X186399Y112761D01*
X186336Y112775D01*
X186267Y112785D01*
X186121Y112817D01*
X185969Y112855D01*
X185805Y112900D01*
X185635Y112949D01*
X185462Y113004D01*
X185289Y113070D01*
X185115Y113139D01*
X184945Y113219D01*
X184778Y113310D01*
X184775D01*
X184768Y113306D01*
X184754Y113299D01*
X184737Y113292D01*
X184716Y113282D01*
X184688Y113271D01*
X184657Y113257D01*
X184622Y113240D01*
X184581Y113226D01*
X184539Y113209D01*
X184490Y113188D01*
X184438Y113167D01*
X184386Y113146D01*
X184327Y113126D01*
X184199Y113081D01*
X184064Y113032D01*
X183914Y112987D01*
X183755Y112938D01*
X183588Y112890D01*
X183415Y112848D01*
X183234Y112806D01*
X183050Y112768D01*
X182860Y112737D01*
X182856D01*
X182849Y112740D01*
X182839Y112747D01*
X182825Y112758D01*
X182797Y112782D01*
X182766Y112817D01*
X182752Y112838D01*
X182745Y112862D01*
X182738Y112890D01*
Y112917D01*
X182745Y112949D01*
X182755Y112983D01*
X182776Y113022D01*
X182804Y113060D01*
X182807D01*
X182814Y113063D01*
X182828D01*
X182849Y113067D01*
X182873Y113070D01*
X182901Y113077D01*
X182932Y113081D01*
X182970Y113087D01*
X183012Y113098D01*
X183057Y113105D01*
X183154Y113126D01*
X183265Y113150D01*
X183387Y113174D01*
X183515Y113205D01*
X183651Y113240D01*
X183786Y113278D01*
X183928Y113316D01*
X184067Y113362D01*
X184202Y113410D01*
X184338Y113459D01*
X184463Y113514D01*
X184456Y113518D01*
X184442Y113528D01*
X184414Y113545D01*
X184379Y113570D01*
X184338Y113601D01*
X184289Y113639D01*
X184234Y113684D01*
X184171Y113736D01*
X184102Y113792D01*
X184032Y113858D01*
X183959Y113927D01*
X183883Y114007D01*
X183803Y114090D01*
X183723Y114180D01*
X183647Y114278D01*
X183567Y114378D01*
X183314D01*
X183311Y114382D01*
X183304Y114385D01*
X183290Y114396D01*
X183276Y114406D01*
X183245Y114437D01*
X183213Y114482D01*
X183203Y114503D01*
X183196Y114531D01*
Y114559D01*
X183203Y114586D01*
X183213Y114614D01*
X183238Y114645D01*
X183269Y114677D01*
X183314Y114708D01*
X185993D01*
X186021Y114704D01*
D02*
G37*
G36*
X182776Y125460D02*
X182794Y125446D01*
X182818Y125425D01*
X182856Y125394D01*
X182898Y125356D01*
X182950Y125314D01*
X183005Y125266D01*
X183068Y125210D01*
X183134Y125148D01*
X183203Y125082D01*
X183272Y125013D01*
X183342Y124940D01*
X183481Y124787D01*
X183546Y124707D01*
X183609Y124624D01*
Y124620D01*
Y124613D01*
Y124600D01*
X183606Y124586D01*
X183595Y124548D01*
X183574Y124502D01*
X183560Y124482D01*
X183543Y124461D01*
X183522Y124443D01*
X183494Y124430D01*
X183463Y124416D01*
X183429Y124409D01*
X183387D01*
X183338Y124412D01*
X183335Y124416D01*
X183325Y124430D01*
X183307Y124450D01*
X183283Y124478D01*
X183252Y124516D01*
X183213Y124558D01*
X183172Y124603D01*
X183123Y124659D01*
X183068Y124714D01*
X183009Y124776D01*
X182946Y124843D01*
X182877Y124908D01*
X182800Y124978D01*
X182724Y125051D01*
X182641Y125124D01*
X182554Y125196D01*
Y125200D01*
Y125207D01*
X182551Y125221D01*
Y125238D01*
X182554Y125280D01*
X182564Y125332D01*
X182575Y125356D01*
X182589Y125380D01*
X182606Y125401D01*
X182627Y125422D01*
X182655Y125439D01*
X182686Y125453D01*
X182724Y125460D01*
X182769Y125464D01*
X182776Y125460D01*
D02*
G37*
G36*
X186090Y125422D02*
X186118Y125418D01*
X186153Y125412D01*
X186191Y125401D01*
X186232Y125391D01*
X186277Y125373D01*
X186319Y125349D01*
X186357Y125321D01*
X186395Y125287D01*
X186427Y125245D01*
X186454Y125196D01*
X186472Y125137D01*
X186479Y125072D01*
Y124995D01*
Y123840D01*
Y123836D01*
Y123819D01*
Y123798D01*
Y123767D01*
X186472Y123732D01*
X186465Y123694D01*
X186454Y123652D01*
X186437Y123611D01*
X186416Y123569D01*
X186389Y123531D01*
X186354Y123496D01*
X186309Y123465D01*
X186257Y123437D01*
X186194Y123420D01*
X186121Y123413D01*
X184067D01*
X184032Y123420D01*
X183994Y123427D01*
X183956Y123437D01*
X183918Y123451D01*
X183876Y123475D01*
X183838Y123500D01*
X183800Y123534D01*
X183769Y123579D01*
X183741Y123628D01*
X183717Y123690D01*
X183703Y123760D01*
X183699Y123843D01*
Y124992D01*
Y124995D01*
Y125009D01*
X183703Y125033D01*
X183706Y125061D01*
X183713Y125092D01*
X183723Y125130D01*
X183734Y125169D01*
X183755Y125210D01*
X183776Y125249D01*
X183803Y125287D01*
X183838Y125325D01*
X183880Y125359D01*
X183932Y125384D01*
X183987Y125408D01*
X184053Y125422D01*
X184130Y125425D01*
X186066D01*
X186090Y125422D01*
D02*
G37*
G36*
X182547Y124388D02*
X182561Y124374D01*
X182589Y124357D01*
X182624Y124329D01*
X182665Y124294D01*
X182714Y124253D01*
X182773Y124204D01*
X182835Y124152D01*
X182901Y124093D01*
X182974Y124030D01*
X183047Y123961D01*
X183127Y123888D01*
X183206Y123812D01*
X183286Y123732D01*
X183449Y123562D01*
Y123559D01*
X183453Y123548D01*
X183456Y123534D01*
Y123517D01*
X183460Y123468D01*
X183456Y123444D01*
X183453Y123416D01*
X183442Y123392D01*
X183432Y123364D01*
X183415Y123343D01*
X183390Y123326D01*
X183359Y123309D01*
X183321Y123302D01*
X183276Y123298D01*
X183224Y123302D01*
X183220Y123305D01*
X183203Y123323D01*
X183182Y123343D01*
X183151Y123375D01*
X183109Y123413D01*
X183064Y123458D01*
X183009Y123510D01*
X182950Y123565D01*
X182884Y123628D01*
X182814Y123690D01*
X182741Y123760D01*
X182662Y123829D01*
X182499Y123975D01*
X182325Y124124D01*
Y124128D01*
Y124135D01*
X182322Y124148D01*
Y124166D01*
X182325Y124207D01*
X182335Y124259D01*
X182346Y124284D01*
X182360Y124308D01*
X182377Y124329D01*
X182398Y124350D01*
X182426Y124367D01*
X182457Y124381D01*
X182495Y124388D01*
X182540Y124391D01*
X182547Y124388D01*
D02*
G37*
G36*
X186243Y123010D02*
X186270Y123007D01*
X186305Y123000D01*
X186343Y122989D01*
X186385Y122979D01*
X186430Y122962D01*
X186472Y122937D01*
X186510Y122910D01*
X186548Y122875D01*
X186579Y122833D01*
X186607Y122785D01*
X186624Y122726D01*
X186631Y122660D01*
Y122583D01*
Y121369D01*
X186860D01*
X186864Y121365D01*
X186871Y121362D01*
X186892Y121341D01*
X186919Y121310D01*
X186947Y121268D01*
X186958Y121244D01*
X186961Y121216D01*
X186964Y121192D01*
X186958Y121164D01*
X186947Y121133D01*
X186930Y121105D01*
X186902Y121074D01*
X186864Y121043D01*
X183311D01*
X183307Y121046D01*
X183300Y121050D01*
X183279Y121071D01*
X183252Y121102D01*
X183227Y121143D01*
X183217Y121168D01*
X183213Y121195D01*
Y121220D01*
X183217Y121251D01*
X183227Y121279D01*
X183248Y121307D01*
X183276Y121338D01*
X183314Y121369D01*
X183546D01*
Y122580D01*
Y122583D01*
Y122597D01*
X183550Y122622D01*
X183554Y122649D01*
X183560Y122681D01*
X183571Y122719D01*
X183581Y122757D01*
X183602Y122799D01*
X183623Y122837D01*
X183651Y122875D01*
X183685Y122913D01*
X183727Y122948D01*
X183779Y122972D01*
X183835Y122996D01*
X183900Y123010D01*
X183977Y123014D01*
X186218D01*
X186243Y123010D01*
D02*
G37*
G36*
X183328Y123163D02*
X183356Y123153D01*
X183383Y123139D01*
X183408Y123114D01*
X183432Y123083D01*
X183453Y123045D01*
Y123041D01*
X183449Y123031D01*
X183446Y123014D01*
X183439Y122989D01*
X183432Y122962D01*
X183425Y122924D01*
X183415Y122885D01*
X183404Y122837D01*
X183390Y122788D01*
X183373Y122733D01*
X183359Y122674D01*
X183342Y122608D01*
X183321Y122542D01*
X183300Y122473D01*
X183255Y122323D01*
X183203Y122167D01*
X183144Y122001D01*
X183078Y121834D01*
X183009Y121660D01*
X182932Y121491D01*
X182852Y121324D01*
X182766Y121164D01*
X182672Y121012D01*
X182669D01*
X182658Y121008D01*
X182644Y121005D01*
X182624Y121001D01*
X182575Y120998D01*
X182519Y121001D01*
X182495Y121008D01*
X182467Y121019D01*
X182443Y121032D01*
X182426Y121050D01*
X182408Y121074D01*
X182398Y121105D01*
X182395Y121140D01*
X182398Y121185D01*
Y121189D01*
X182405Y121195D01*
X182412Y121206D01*
X182419Y121223D01*
X182433Y121241D01*
X182447Y121265D01*
X182460Y121296D01*
X182481Y121327D01*
X182499Y121365D01*
X182519Y121404D01*
X182544Y121449D01*
X182568Y121497D01*
X182592Y121549D01*
X182620Y121605D01*
X182676Y121726D01*
X182735Y121858D01*
X182797Y122008D01*
X182856Y122164D01*
X182915Y122334D01*
X182974Y122511D01*
X183029Y122702D01*
X183082Y122899D01*
X183127Y123104D01*
X183130Y123108D01*
X183137Y123111D01*
X183148Y123118D01*
X183161Y123128D01*
X183203Y123149D01*
X183248Y123163D01*
X183276Y123167D01*
X183304D01*
X183328Y123163D01*
D02*
G37*
G36*
X166974Y127522D02*
X167262Y127225D01*
Y127223D01*
X167265Y127214D01*
X167270Y127198D01*
X167276Y127181D01*
X167284Y127156D01*
X167292Y127128D01*
X167303Y127101D01*
X167315Y127067D01*
X167337Y126998D01*
X167362Y126923D01*
X167384Y126851D01*
X167406Y126788D01*
Y126234D01*
X167262Y125810D01*
X166963Y125508D01*
X166960D01*
X166954Y125505D01*
X166938Y125502D01*
X166916Y125497D01*
X166896Y125494D01*
X166871D01*
X166869D01*
X166863Y125497D01*
X166852Y125502D01*
X166841Y125511D01*
X166827Y125519D01*
X166813Y125533D01*
X166799Y125549D01*
X166788Y125569D01*
Y125580D01*
X166785Y125594D01*
Y125635D01*
X166783Y125660D01*
Y125901D01*
X166799Y125943D01*
X166932Y126073D01*
X167037Y126292D01*
Y126765D01*
X166927Y127092D01*
X166855Y127170D01*
X166539D01*
X166323Y127056D01*
X166218Y126948D01*
X166098Y126702D01*
X165833Y126045D01*
X165708Y125796D01*
X165539Y125635D01*
X165248Y125494D01*
X164927D01*
X164893Y125516D01*
X164600Y125812D01*
X164453Y126253D01*
X164461Y126796D01*
X164600Y127217D01*
X164603Y127220D01*
X164614Y127231D01*
X164630Y127250D01*
X164644Y127264D01*
X164658Y127281D01*
X164678Y127300D01*
X164697Y127319D01*
X164722Y127344D01*
X164750Y127375D01*
X164780Y127405D01*
X164816Y127441D01*
X164855Y127480D01*
X164896Y127522D01*
X164899Y127524D01*
X164910Y127533D01*
X164929Y127538D01*
X164957Y127541D01*
X164996D01*
X164999D01*
X165004Y127538D01*
X165015Y127533D01*
X165026Y127524D01*
X165040Y127513D01*
X165054Y127502D01*
X165068Y127486D01*
X165082Y127466D01*
Y127455D01*
X165085Y127444D01*
Y127405D01*
X165087Y127378D01*
Y127247D01*
X165085Y127217D01*
Y127156D01*
X165082Y127131D01*
X165060Y127087D01*
X164932Y126959D01*
X164824Y126743D01*
Y126272D01*
X164938Y125937D01*
X165013Y125865D01*
X165193D01*
X165389Y125965D01*
X165508Y126200D01*
X165769Y126837D01*
X165893Y127101D01*
X166198Y127397D01*
X166478Y127541D01*
X166929D01*
X166974Y127522D01*
D02*
G37*
G36*
X166702Y124754D02*
X166971Y124624D01*
X167265Y124322D01*
X167406Y124037D01*
X167398Y123455D01*
X167251Y123156D01*
X166960Y122868D01*
X166661Y122727D01*
X166270Y122599D01*
X165580D01*
X165162Y122741D01*
X164896Y122874D01*
X164605Y123173D01*
X164470Y123450D01*
X164461Y123480D01*
X164467Y124042D01*
X164617Y124344D01*
X164905Y124627D01*
X165204Y124771D01*
X165594Y124901D01*
X166284D01*
X166702Y124754D01*
D02*
G37*
G36*
X167323Y121868D02*
X167334Y121862D01*
X167345Y121857D01*
X167362Y121846D01*
X167378Y121832D01*
X167392Y121815D01*
X167406Y121793D01*
Y121583D01*
X167403Y121577D01*
X167398Y121569D01*
X167392Y121555D01*
X167384Y121544D01*
X167370Y121530D01*
X167356Y121519D01*
X167337Y121508D01*
X167292Y121500D01*
X165794D01*
X167353Y120815D01*
X167356Y120813D01*
X167362Y120807D01*
X167370Y120799D01*
X167378Y120785D01*
X167398Y120755D01*
X167403Y120735D01*
X167406Y120713D01*
Y120699D01*
X167400Y120685D01*
X167395Y120669D01*
X167386Y120649D01*
X167373Y120630D01*
X167353Y120610D01*
X167326Y120597D01*
X165661Y119935D01*
X167323D01*
X167326D01*
X167331Y119929D01*
X167342Y119923D01*
X167353Y119915D01*
X167376Y119893D01*
X167384Y119879D01*
X167392Y119865D01*
Y119863D01*
X167395Y119857D01*
X167398Y119849D01*
Y119835D01*
X167400Y119818D01*
X167403Y119799D01*
X167406Y119777D01*
Y119641D01*
X167403Y119635D01*
X167398Y119624D01*
X167389Y119613D01*
X167378Y119602D01*
X167364Y119588D01*
X167348Y119574D01*
X167326Y119563D01*
X167251D01*
X164556D01*
X164553D01*
X164544Y119569D01*
X164533Y119574D01*
X164522Y119580D01*
X164495Y119602D01*
X164484Y119619D01*
X164475Y119635D01*
X164472Y119638D01*
X164467Y119649D01*
X164464Y119666D01*
X164461Y119688D01*
Y119694D01*
X164464Y119707D01*
X164470Y119724D01*
X164481Y119741D01*
X164484Y119746D01*
X164495Y119757D01*
X164511Y119774D01*
X164536Y119793D01*
X166621Y120711D01*
X164506Y121652D01*
X164503Y121655D01*
X164497Y121660D01*
X164492Y121669D01*
X164484Y121682D01*
X164467Y121713D01*
X164464Y121732D01*
X164461Y121752D01*
Y121768D01*
X164464Y121782D01*
X164470Y121796D01*
Y121799D01*
X164472Y121804D01*
X164478Y121813D01*
X164486Y121827D01*
X164495Y121838D01*
X164508Y121849D01*
X164525Y121862D01*
X164544Y121871D01*
X164644D01*
X167312D01*
X167315D01*
X167323Y121868D01*
D02*
G37*
G36*
X165816Y118696D02*
X165977Y118536D01*
X166115Y118245D01*
Y117300D01*
X167309D01*
X167312D01*
X167320Y117297D01*
X167331Y117295D01*
X167342Y117287D01*
X167370Y117270D01*
X167381Y117256D01*
X167389Y117239D01*
Y117237D01*
X167392Y117231D01*
X167395Y117220D01*
X167398Y117206D01*
X167400Y117190D01*
X167403Y117167D01*
X167406Y117145D01*
Y117007D01*
X167403Y117001D01*
X167398Y116993D01*
X167389Y116982D01*
X167378Y116968D01*
X167364Y116954D01*
X167348Y116940D01*
X167326Y116929D01*
X167251D01*
X164550D01*
X164547D01*
X164542Y116935D01*
X164531Y116937D01*
X164520Y116946D01*
X164492Y116968D01*
X164481Y116979D01*
X164470Y116996D01*
X164461Y117029D01*
X164470Y118253D01*
X164619Y118550D01*
X164777Y118705D01*
X165062Y118849D01*
X165511D01*
X165816Y118696D01*
D02*
G37*
G36*
X235970Y193237D02*
X236258Y192941D01*
Y192938D01*
X236261Y192930D01*
X236266Y192913D01*
X236272Y192897D01*
X236280Y192872D01*
X236288Y192844D01*
X236299Y192816D01*
X236311Y192783D01*
X236333Y192714D01*
X236358Y192639D01*
X236380Y192567D01*
X236402Y192503D01*
Y191949D01*
X236258Y191526D01*
X235959Y191224D01*
X235956D01*
X235950Y191221D01*
X235934Y191218D01*
X235912Y191213D01*
X235892Y191210D01*
X235867D01*
X235865D01*
X235859Y191213D01*
X235848Y191218D01*
X235837Y191226D01*
X235823Y191235D01*
X235809Y191249D01*
X235795Y191265D01*
X235784Y191285D01*
Y191296D01*
X235782Y191310D01*
Y191351D01*
X235779Y191376D01*
Y191617D01*
X235795Y191659D01*
X235928Y191789D01*
X236034Y192008D01*
Y192481D01*
X235923Y192808D01*
X235851Y192886D01*
X235535D01*
X235319Y192772D01*
X235214Y192664D01*
X235095Y192418D01*
X234829Y191761D01*
X234704Y191512D01*
X234535Y191351D01*
X234244Y191210D01*
X233923D01*
X233890Y191232D01*
X233596Y191528D01*
X233449Y191969D01*
X233457Y192512D01*
X233596Y192933D01*
X233599Y192936D01*
X233610Y192947D01*
X233627Y192966D01*
X233640Y192980D01*
X233654Y192997D01*
X233674Y193016D01*
X233693Y193035D01*
X233718Y193060D01*
X233746Y193091D01*
X233776Y193121D01*
X233812Y193157D01*
X233851Y193196D01*
X233892Y193237D01*
X233895Y193240D01*
X233906Y193249D01*
X233926Y193254D01*
X233953Y193257D01*
X233992D01*
X233995D01*
X234000Y193254D01*
X234012Y193249D01*
X234023Y193240D01*
X234036Y193229D01*
X234050Y193218D01*
X234064Y193201D01*
X234078Y193182D01*
Y193171D01*
X234081Y193160D01*
Y193121D01*
X234084Y193094D01*
Y192963D01*
X234081Y192933D01*
Y192872D01*
X234078Y192847D01*
X234056Y192803D01*
X233928Y192675D01*
X233820Y192459D01*
Y191988D01*
X233934Y191653D01*
X234009Y191581D01*
X234189D01*
X234385Y191681D01*
X234505Y191916D01*
X234765Y192553D01*
X234890Y192816D01*
X235194Y193113D01*
X235474Y193257D01*
X235926D01*
X235970Y193237D01*
D02*
G37*
G36*
X235698Y190470D02*
X235967Y190340D01*
X236261Y190038D01*
X236402Y189753D01*
X236394Y189171D01*
X236247Y188872D01*
X235956Y188584D01*
X235657Y188443D01*
X235266Y188315D01*
X234577D01*
X234158Y188456D01*
X233892Y188590D01*
X233601Y188889D01*
X233466Y189166D01*
X233457Y189196D01*
X233463Y189758D01*
X233613Y190060D01*
X233901Y190343D01*
X234200Y190487D01*
X234590Y190617D01*
X235280D01*
X235698Y190470D01*
D02*
G37*
G36*
X236319Y187584D02*
X236330Y187578D01*
X236341Y187573D01*
X236358Y187562D01*
X236374Y187548D01*
X236388Y187531D01*
X236402Y187509D01*
Y187299D01*
X236399Y187293D01*
X236394Y187285D01*
X236388Y187271D01*
X236380Y187260D01*
X236366Y187246D01*
X236352Y187235D01*
X236333Y187224D01*
X236288Y187215D01*
X234789D01*
X236349Y186531D01*
X236352Y186529D01*
X236358Y186523D01*
X236366Y186515D01*
X236374Y186501D01*
X236394Y186470D01*
X236399Y186451D01*
X236402Y186429D01*
Y186415D01*
X236397Y186401D01*
X236391Y186384D01*
X236383Y186365D01*
X236369Y186346D01*
X236349Y186326D01*
X236322Y186312D01*
X234657Y185651D01*
X236319D01*
X236322D01*
X236327Y185645D01*
X236338Y185639D01*
X236349Y185631D01*
X236371Y185609D01*
X236380Y185595D01*
X236388Y185581D01*
Y185579D01*
X236391Y185573D01*
X236394Y185565D01*
Y185551D01*
X236397Y185534D01*
X236399Y185515D01*
X236402Y185493D01*
Y185357D01*
X236399Y185351D01*
X236394Y185340D01*
X236385Y185329D01*
X236374Y185318D01*
X236360Y185304D01*
X236344Y185290D01*
X236322Y185279D01*
X236247D01*
X233552D01*
X233549D01*
X233541Y185285D01*
X233529Y185290D01*
X233518Y185296D01*
X233491Y185318D01*
X233480Y185335D01*
X233471Y185351D01*
X233469Y185354D01*
X233463Y185365D01*
X233460Y185382D01*
X233457Y185404D01*
Y185409D01*
X233460Y185423D01*
X233466Y185440D01*
X233477Y185457D01*
X233480Y185462D01*
X233491Y185473D01*
X233507Y185490D01*
X233532Y185509D01*
X235618Y186427D01*
X233502Y187368D01*
X233499Y187371D01*
X233493Y187376D01*
X233488Y187384D01*
X233480Y187398D01*
X233463Y187429D01*
X233460Y187448D01*
X233457Y187468D01*
Y187484D01*
X233460Y187498D01*
X233466Y187512D01*
Y187515D01*
X233469Y187520D01*
X233474Y187529D01*
X233482Y187542D01*
X233491Y187554D01*
X233505Y187565D01*
X233521Y187578D01*
X233541Y187587D01*
X233640D01*
X236308D01*
X236311D01*
X236319Y187584D01*
D02*
G37*
G36*
X236327Y184423D02*
X236341Y184415D01*
X236358Y184404D01*
X236374Y184390D01*
X236388Y184371D01*
X236399Y184346D01*
X236402Y184315D01*
Y184307D01*
X236399Y184296D01*
X236397Y184282D01*
X236388Y184254D01*
X236380Y184238D01*
X236369Y184224D01*
X234255Y182753D01*
X236308D01*
X236311D01*
X236316Y182750D01*
X236324Y182747D01*
X236338Y182742D01*
X236352Y182731D01*
X236366Y182720D01*
X236383Y182703D01*
X236397Y182681D01*
Y182673D01*
X236399Y182664D01*
Y182637D01*
X236402Y182617D01*
Y182459D01*
X236399Y182454D01*
X236394Y182443D01*
X236385Y182432D01*
X236374Y182421D01*
X236360Y182407D01*
X236344Y182393D01*
X236322Y182382D01*
X236247D01*
X233552D01*
X233549D01*
X233541Y182385D01*
X233529Y182393D01*
X233513Y182401D01*
X233499Y182415D01*
X233482Y182434D01*
X233469Y182457D01*
X233457Y182487D01*
Y182495D01*
X233460Y182507D01*
X233463Y182520D01*
X233471Y182554D01*
X233482Y182570D01*
X233493Y182587D01*
X235599Y184058D01*
X233543D01*
X233541D01*
X233532Y184061D01*
X233524Y184066D01*
X233510Y184074D01*
X233496Y184085D01*
X233482Y184099D01*
X233471Y184116D01*
X233463Y184138D01*
Y184144D01*
X233460Y184152D01*
Y184163D01*
X233457Y184194D01*
Y184343D01*
X233463Y184351D01*
X233469Y184362D01*
X233477Y184376D01*
X233488Y184390D01*
X233502Y184407D01*
X233518Y184418D01*
X233541Y184429D01*
X233624D01*
X236313D01*
X236316D01*
X236327Y184423D01*
D02*
G37*
G36*
X158585Y153252D02*
X158596Y153247D01*
X158607Y153241D01*
X158621Y153233D01*
X158634Y153219D01*
X158645Y153205D01*
X158657Y153186D01*
X158668Y153136D01*
Y151186D01*
X159812Y152355D01*
X159967D01*
X159983Y152352D01*
X160003Y152347D01*
X160022Y152338D01*
X160044Y152324D01*
X160061Y152308D01*
X160075Y152283D01*
X160078Y152277D01*
X160083Y152266D01*
X160086Y152252D01*
X160089Y152233D01*
Y152227D01*
X160086Y152214D01*
X160083Y152197D01*
X160072Y152178D01*
X160047Y152144D01*
X159285Y151387D01*
X160064Y150496D01*
Y150493D01*
X160066Y150491D01*
X160075Y150474D01*
X160080Y150452D01*
X160083Y150430D01*
Y150424D01*
Y150416D01*
X160080Y150402D01*
X160078Y150391D01*
Y150388D01*
X160075Y150383D01*
X160072Y150374D01*
X160064Y150363D01*
X160055Y150352D01*
X160044Y150338D01*
X160028Y150327D01*
X160008Y150316D01*
X159964Y150311D01*
X159673D01*
X159634Y150330D01*
X158986Y151106D01*
X158668Y150765D01*
Y150405D01*
Y150402D01*
X158665Y150397D01*
X158662Y150388D01*
X158657Y150374D01*
X158645Y150361D01*
X158634Y150347D01*
X158618Y150330D01*
X158596Y150316D01*
X158587D01*
X158579Y150313D01*
X158551D01*
X158532Y150311D01*
X158374D01*
X158369Y150313D01*
X158357Y150319D01*
X158346Y150327D01*
X158335Y150338D01*
X158321Y150352D01*
X158308Y150369D01*
X158297Y150391D01*
Y150466D01*
Y153161D01*
X158299Y153164D01*
X158302Y153175D01*
X158310Y153191D01*
X158324Y153208D01*
X158341Y153225D01*
X158366Y153241D01*
X158396Y153252D01*
X158432Y153255D01*
X158579D01*
X158585Y153252D01*
D02*
G37*
G36*
X156718Y153250D02*
X157139Y153108D01*
X157175Y153072D01*
X157446Y152665D01*
X157582Y151967D01*
Y151565D01*
X157441Y150892D01*
X157161Y150466D01*
X157114Y150441D01*
X156701Y150311D01*
X156396Y150319D01*
X155984Y150455D01*
X155942Y150491D01*
X155676Y150895D01*
X155538Y151593D01*
Y152014D01*
X155671Y152668D01*
X155961Y153094D01*
X155997Y153122D01*
X156419Y153252D01*
X156718Y153250D01*
D02*
G37*
G36*
X154069Y153258D02*
X154078Y153255D01*
X154105Y153247D01*
X154119Y153236D01*
X154136Y153225D01*
X154139Y153222D01*
X154141Y153219D01*
X154150Y153211D01*
X154158Y153200D01*
X154172Y153169D01*
X154175Y153153D01*
X154177Y153130D01*
Y150397D01*
Y150394D01*
X154175Y150388D01*
X154169Y150377D01*
X154161Y150363D01*
X154150Y150349D01*
X154136Y150336D01*
X154119Y150322D01*
X154097Y150311D01*
X153887D01*
X153878Y150313D01*
X153867Y150319D01*
X153856Y150327D01*
X153842Y150338D01*
X153829Y150355D01*
X153815Y150372D01*
X153806Y150394D01*
Y150477D01*
Y152640D01*
X153734Y152518D01*
X153435Y152377D01*
X153421D01*
X153408Y152380D01*
X153391D01*
X153355Y152391D01*
X153338Y152396D01*
X153322Y152408D01*
Y152410D01*
X153316Y152416D01*
X153311Y152424D01*
X153305Y152438D01*
X153299Y152457D01*
X153294Y152482D01*
X153291Y152515D01*
X153288Y152554D01*
Y152599D01*
Y152604D01*
Y152615D01*
X153291Y152629D01*
X153297Y152651D01*
X153302Y152671D01*
X153313Y152693D01*
X153330Y152712D01*
X153349Y152726D01*
X153593Y152851D01*
X153984Y153236D01*
X153989Y153238D01*
X154000Y153250D01*
X154022Y153258D01*
X154053Y153261D01*
X154061D01*
X154069Y153258D01*
D02*
G37*
G36*
X151585Y153247D02*
X151989Y153114D01*
X151992Y153111D01*
X152000Y153103D01*
X152017Y153092D01*
X152036Y153072D01*
X152061Y153047D01*
X152094Y153017D01*
X152128Y152981D01*
X152169Y152939D01*
X152313Y152657D01*
Y152205D01*
X152161Y151903D01*
X152006Y151751D01*
X151967Y151732D01*
X151601Y151615D01*
X152313Y150455D01*
Y150452D01*
Y150446D01*
Y150435D01*
X152311Y150424D01*
X152305Y150391D01*
X152291Y150352D01*
X152288Y150349D01*
X152283Y150347D01*
X152275Y150338D01*
X152263Y150333D01*
X152247Y150324D01*
X152230Y150316D01*
X152211Y150313D01*
X152189Y150311D01*
X152061D01*
X152045Y150313D01*
X152028Y150319D01*
X152006Y150327D01*
X151986Y150341D01*
X151970Y150358D01*
X151956Y150380D01*
X151216Y151601D01*
X150765D01*
Y150408D01*
Y150405D01*
X150762Y150397D01*
X150759Y150385D01*
X150751Y150374D01*
X150734Y150347D01*
X150721Y150336D01*
X150704Y150327D01*
X150701D01*
X150696Y150324D01*
X150684Y150322D01*
X150671Y150319D01*
X150654Y150316D01*
X150632Y150313D01*
X150610Y150311D01*
X150471D01*
X150466Y150313D01*
X150457Y150319D01*
X150446Y150327D01*
X150433Y150338D01*
X150419Y150352D01*
X150405Y150369D01*
X150394Y150391D01*
Y150466D01*
Y153166D01*
Y153169D01*
X150399Y153175D01*
X150402Y153186D01*
X150410Y153197D01*
X150433Y153225D01*
X150444Y153236D01*
X150460Y153247D01*
X150493Y153258D01*
X151585Y153247D01*
D02*
G37*
G36*
X131813Y130811D02*
X131824Y130806D01*
X131835Y130800D01*
X131849Y130792D01*
X131863Y130778D01*
X131874Y130764D01*
X131885Y130745D01*
X131896Y130695D01*
Y128745D01*
X133040Y129914D01*
X133195D01*
X133212Y129911D01*
X133231Y129906D01*
X133251Y129897D01*
X133273Y129883D01*
X133289Y129867D01*
X133303Y129842D01*
X133306Y129836D01*
X133311Y129825D01*
X133314Y129811D01*
X133317Y129792D01*
Y129787D01*
X133314Y129773D01*
X133311Y129756D01*
X133300Y129737D01*
X133275Y129703D01*
X132513Y128946D01*
X133292Y128055D01*
Y128052D01*
X133295Y128050D01*
X133303Y128033D01*
X133309Y128011D01*
X133311Y127989D01*
Y127983D01*
Y127975D01*
X133309Y127961D01*
X133306Y127950D01*
Y127947D01*
X133303Y127942D01*
X133300Y127933D01*
X133292Y127922D01*
X133284Y127911D01*
X133273Y127897D01*
X133256Y127886D01*
X133237Y127875D01*
X133192Y127870D01*
X132902D01*
X132863Y127889D01*
X132215Y128665D01*
X131896Y128324D01*
Y127964D01*
Y127961D01*
X131893Y127955D01*
X131890Y127947D01*
X131885Y127933D01*
X131874Y127919D01*
X131863Y127906D01*
X131846Y127889D01*
X131824Y127875D01*
X131816D01*
X131807Y127872D01*
X131780D01*
X131760Y127870D01*
X131602D01*
X131597Y127872D01*
X131586Y127878D01*
X131575Y127886D01*
X131564Y127897D01*
X131550Y127911D01*
X131536Y127928D01*
X131525Y127950D01*
Y128025D01*
Y130720D01*
X131528Y130723D01*
X131530Y130734D01*
X131539Y130751D01*
X131553Y130767D01*
X131569Y130784D01*
X131594Y130800D01*
X131625Y130811D01*
X131661Y130814D01*
X131807D01*
X131813Y130811D01*
D02*
G37*
G36*
X129946Y130809D02*
X130367Y130667D01*
X130403Y130631D01*
X130675Y130224D01*
X130810Y129526D01*
Y129124D01*
X130669Y128451D01*
X130389Y128025D01*
X130342Y128000D01*
X129929Y127870D01*
X129625Y127878D01*
X129212Y128014D01*
X129170Y128050D01*
X128904Y128454D01*
X128766Y129152D01*
Y129573D01*
X128899Y130227D01*
X129190Y130654D01*
X129226Y130681D01*
X129647Y130811D01*
X129946Y130809D01*
D02*
G37*
G36*
X127445Y130814D02*
X127749Y130659D01*
X127904Y130501D01*
X128049Y130208D01*
Y129908D01*
X128037Y129870D01*
X127896Y129595D01*
X127633Y129205D01*
X126716Y128238D01*
X128090D01*
X128093Y128235D01*
X128104Y128230D01*
X128118Y128221D01*
X128134Y128208D01*
X128151Y128188D01*
X128165Y128163D01*
X128176Y128136D01*
X128179Y128102D01*
Y128100D01*
Y128091D01*
X128176Y128075D01*
X128173Y128052D01*
Y128047D01*
Y128036D01*
Y128025D01*
Y128019D01*
Y128014D01*
Y128003D01*
X128170Y127986D01*
X128165Y127964D01*
X128159Y127942D01*
X128148Y127919D01*
X128132Y127900D01*
X128112Y127884D01*
X128079Y127870D01*
X126215D01*
X126207Y127875D01*
X126193Y127881D01*
X126179Y127889D01*
X126162Y127903D01*
X126148Y127922D01*
X126137Y127945D01*
X126129Y127975D01*
Y127978D01*
Y127986D01*
X126132Y127994D01*
Y128008D01*
X126140Y128039D01*
X126157Y128069D01*
X127325Y129368D01*
Y129371D01*
X127331Y129374D01*
X127337Y129382D01*
X127342Y129393D01*
X127362Y129424D01*
X127389Y129462D01*
X127420Y129507D01*
X127453Y129557D01*
X127492Y129612D01*
X127531Y129670D01*
Y129673D01*
X127536Y129678D01*
X127539Y129687D01*
X127547Y129698D01*
X127564Y129726D01*
X127586Y129764D01*
X127611Y129809D01*
X127636Y129856D01*
X127658Y129903D01*
X127677Y129950D01*
Y130155D01*
X127575Y130354D01*
X127378Y130451D01*
X126921D01*
X126722Y130346D01*
X126630Y130149D01*
Y130069D01*
Y130066D01*
Y130052D01*
X126628Y130036D01*
X126622Y130016D01*
X126611Y129994D01*
X126597Y129972D01*
X126578Y129953D01*
X126553Y129936D01*
X126547D01*
X126539Y129933D01*
X126528D01*
X126500Y129930D01*
X126417D01*
X126381Y129933D01*
X126362D01*
X126345Y129936D01*
X126342D01*
X126331Y129942D01*
X126317Y129950D01*
X126301Y129961D01*
X126281Y129980D01*
X126267Y130003D01*
X126256Y130033D01*
X126253Y130072D01*
Y130075D01*
Y130083D01*
Y130097D01*
Y130119D01*
Y130122D01*
Y130124D01*
X126256Y130141D01*
Y130163D01*
Y130191D01*
X126265Y130233D01*
X126403Y130504D01*
X126575Y130676D01*
X126580Y130678D01*
X126594Y130684D01*
X126616Y130698D01*
X126650Y130712D01*
X126694Y130734D01*
X126747Y130759D01*
X126807Y130789D01*
X126880Y130823D01*
X127445Y130814D01*
D02*
G37*
G36*
X124813Y130806D02*
X125218Y130673D01*
X125220Y130670D01*
X125229Y130662D01*
X125245Y130651D01*
X125265Y130631D01*
X125290Y130606D01*
X125323Y130576D01*
X125356Y130540D01*
X125398Y130498D01*
X125542Y130216D01*
Y129764D01*
X125389Y129462D01*
X125234Y129310D01*
X125195Y129291D01*
X124830Y129174D01*
X125542Y128014D01*
Y128011D01*
Y128005D01*
Y127994D01*
X125539Y127983D01*
X125533Y127950D01*
X125520Y127911D01*
X125517Y127908D01*
X125511Y127906D01*
X125503Y127897D01*
X125492Y127892D01*
X125475Y127884D01*
X125459Y127875D01*
X125439Y127872D01*
X125417Y127870D01*
X125290D01*
X125273Y127872D01*
X125256Y127878D01*
X125234Y127886D01*
X125215Y127900D01*
X125198Y127917D01*
X125184Y127939D01*
X124445Y129160D01*
X123993D01*
Y127967D01*
Y127964D01*
X123990Y127955D01*
X123988Y127945D01*
X123979Y127933D01*
X123963Y127906D01*
X123949Y127895D01*
X123932Y127886D01*
X123930D01*
X123924Y127884D01*
X123913Y127881D01*
X123899Y127878D01*
X123882Y127875D01*
X123860Y127872D01*
X123838Y127870D01*
X123700D01*
X123694Y127872D01*
X123686Y127878D01*
X123675Y127886D01*
X123661Y127897D01*
X123647Y127911D01*
X123633Y127928D01*
X123622Y127950D01*
Y128025D01*
Y130726D01*
Y130728D01*
X123628Y130734D01*
X123630Y130745D01*
X123639Y130756D01*
X123661Y130784D01*
X123672Y130795D01*
X123688Y130806D01*
X123722Y130817D01*
X124813Y130806D01*
D02*
G37*
G36*
X273761Y122155D02*
X273781Y122150D01*
X273800Y122142D01*
X273822Y122128D01*
X273839Y122111D01*
X273853Y122086D01*
X273855Y122083D01*
X273861Y122072D01*
X273864Y122056D01*
X273867Y122039D01*
Y122036D01*
Y122034D01*
X273864Y122017D01*
X273858Y121998D01*
X273844Y121978D01*
X273144Y121103D01*
X273545Y120981D01*
X273548Y120978D01*
X273553Y120975D01*
X273562Y120967D01*
X273573Y120956D01*
X273603Y120926D01*
X273642Y120887D01*
X273689Y120840D01*
X273739Y120787D01*
X273795Y120732D01*
X273853Y120674D01*
Y120671D01*
X273855Y120662D01*
X273861Y120646D01*
X273869Y120621D01*
X273880Y120588D01*
X273886Y120568D01*
X273894Y120543D01*
X273905Y120519D01*
X273914Y120488D01*
X273925Y120457D01*
X273939Y120422D01*
Y120419D01*
X273941Y120416D01*
X273944Y120408D01*
X273947Y120397D01*
X273958Y120366D01*
X273969Y120330D01*
X273977Y120286D01*
X273988Y120241D01*
X273994Y120194D01*
X273997Y120150D01*
Y120147D01*
Y120142D01*
Y120128D01*
X273994Y120111D01*
Y120108D01*
Y120097D01*
Y120084D01*
Y120067D01*
X273853Y119654D01*
X273850Y119651D01*
X273847Y119649D01*
X273839Y119640D01*
X273828Y119626D01*
X273797Y119596D01*
X273759Y119557D01*
X273711Y119510D01*
X273662Y119460D01*
X273606Y119405D01*
X273548Y119347D01*
X273110Y119208D01*
X272678D01*
X272263Y119352D01*
X272099Y119513D01*
X271950Y119812D01*
Y119815D01*
Y119826D01*
X271953Y119840D01*
Y119856D01*
X271961Y119892D01*
X271966Y119912D01*
X271975Y119926D01*
X271977Y119928D01*
X271980Y119931D01*
X271989Y119937D01*
X271997Y119945D01*
X272011Y119951D01*
X272027Y119956D01*
X272047Y119959D01*
X272072Y119962D01*
X272080D01*
X272094Y119956D01*
X272146D01*
X272158Y119959D01*
X272168Y119962D01*
X272196D01*
X272213Y119959D01*
X272232Y119953D01*
X272252Y119945D01*
X272274Y119931D01*
X272290Y119915D01*
X272304Y119890D01*
X272390Y119726D01*
X272393Y119723D01*
X272401Y119718D01*
X272415Y119707D01*
X272432Y119693D01*
X272457Y119679D01*
X272484Y119665D01*
X272517Y119649D01*
X272556Y119635D01*
X272562Y119632D01*
X272576Y119629D01*
X272595Y119621D01*
X272620Y119615D01*
X272651Y119604D01*
X272681Y119596D01*
X272711Y119585D01*
X272739Y119577D01*
X273083D01*
X273307Y119654D01*
X273443Y119748D01*
X273551Y119906D01*
Y119909D01*
Y119912D01*
X273553Y119920D01*
X273556Y119934D01*
X273562Y119951D01*
X273570Y119973D01*
X273579Y120001D01*
X273592Y120034D01*
X273595Y120036D01*
X273598Y120048D01*
X273603Y120064D01*
X273609Y120084D01*
X273620Y120128D01*
X273626Y120150D01*
Y120169D01*
Y120172D01*
Y120175D01*
Y120189D01*
Y120203D01*
X273623Y120214D01*
X273542Y120444D01*
X273446Y120588D01*
X273293Y120685D01*
X273066Y120757D01*
X272684D01*
X272678Y120759D01*
X272670Y120762D01*
X272659Y120768D01*
X272645Y120776D01*
X272631Y120787D01*
X272617Y120801D01*
X272603Y120820D01*
Y120823D01*
X272601Y120826D01*
X272598Y120840D01*
X272595Y120859D01*
X272592Y120876D01*
Y120879D01*
Y120884D01*
X272595Y120892D01*
Y120901D01*
X272603Y120926D01*
X272617Y120951D01*
X273304Y121795D01*
X272285D01*
X272277Y121798D01*
X272268Y121804D01*
X272254Y121812D01*
X272240Y121823D01*
X272227Y121834D01*
X272216Y121854D01*
X272204Y121873D01*
Y122064D01*
Y122067D01*
X272210Y122075D01*
X272213Y122083D01*
X272221Y122097D01*
X272243Y122125D01*
X272254Y122136D01*
X272271Y122147D01*
X272310Y122153D01*
X273601Y122158D01*
X273745D01*
X273761Y122155D01*
D02*
G37*
G36*
X269675D02*
X269695Y122150D01*
X269714Y122142D01*
X269737Y122128D01*
X269753Y122111D01*
X269767Y122086D01*
X269770Y122083D01*
X269775Y122072D01*
X269778Y122056D01*
X269781Y122039D01*
Y122036D01*
Y122034D01*
X269778Y122017D01*
X269773Y121998D01*
X269759Y121978D01*
X269058Y121103D01*
X269460Y120981D01*
X269462Y120978D01*
X269468Y120975D01*
X269476Y120967D01*
X269487Y120956D01*
X269518Y120926D01*
X269556Y120887D01*
X269603Y120840D01*
X269653Y120787D01*
X269709Y120732D01*
X269767Y120674D01*
Y120671D01*
X269770Y120662D01*
X269775Y120646D01*
X269784Y120621D01*
X269795Y120588D01*
X269800Y120568D01*
X269809Y120543D01*
X269820Y120519D01*
X269828Y120488D01*
X269839Y120457D01*
X269853Y120422D01*
Y120419D01*
X269856Y120416D01*
X269858Y120408D01*
X269861Y120397D01*
X269872Y120366D01*
X269883Y120330D01*
X269892Y120286D01*
X269903Y120241D01*
X269908Y120194D01*
X269911Y120150D01*
Y120147D01*
Y120142D01*
Y120128D01*
X269908Y120111D01*
Y120108D01*
Y120097D01*
Y120084D01*
Y120067D01*
X269767Y119654D01*
X269764Y119651D01*
X269761Y119649D01*
X269753Y119640D01*
X269742Y119626D01*
X269711Y119596D01*
X269673Y119557D01*
X269626Y119510D01*
X269576Y119460D01*
X269520Y119405D01*
X269462Y119347D01*
X269025Y119208D01*
X268593D01*
X268177Y119352D01*
X268014Y119513D01*
X267864Y119812D01*
Y119815D01*
Y119826D01*
X267867Y119840D01*
Y119856D01*
X267875Y119892D01*
X267881Y119912D01*
X267889Y119926D01*
X267892Y119928D01*
X267894Y119931D01*
X267903Y119937D01*
X267911Y119945D01*
X267925Y119951D01*
X267941Y119956D01*
X267961Y119959D01*
X267986Y119962D01*
X267994D01*
X268008Y119956D01*
X268061D01*
X268072Y119959D01*
X268083Y119962D01*
X268110D01*
X268127Y119959D01*
X268146Y119953D01*
X268166Y119945D01*
X268188Y119931D01*
X268205Y119915D01*
X268218Y119890D01*
X268304Y119726D01*
X268307Y119723D01*
X268316Y119718D01*
X268329Y119707D01*
X268346Y119693D01*
X268371Y119679D01*
X268399Y119665D01*
X268432Y119649D01*
X268471Y119635D01*
X268476Y119632D01*
X268490Y119629D01*
X268509Y119621D01*
X268534Y119615D01*
X268565Y119604D01*
X268595Y119596D01*
X268626Y119585D01*
X268653Y119577D01*
X268997D01*
X269221Y119654D01*
X269357Y119748D01*
X269465Y119906D01*
Y119909D01*
Y119912D01*
X269468Y119920D01*
X269471Y119934D01*
X269476Y119951D01*
X269484Y119973D01*
X269493Y120001D01*
X269507Y120034D01*
X269509Y120036D01*
X269512Y120048D01*
X269518Y120064D01*
X269523Y120084D01*
X269534Y120128D01*
X269540Y120150D01*
Y120169D01*
Y120172D01*
Y120175D01*
Y120189D01*
Y120203D01*
X269537Y120214D01*
X269457Y120444D01*
X269360Y120588D01*
X269207Y120685D01*
X268980Y120757D01*
X268598D01*
X268593Y120759D01*
X268584Y120762D01*
X268573Y120768D01*
X268559Y120776D01*
X268545Y120787D01*
X268531Y120801D01*
X268518Y120820D01*
Y120823D01*
X268515Y120826D01*
X268512Y120840D01*
X268509Y120859D01*
X268507Y120876D01*
Y120879D01*
Y120884D01*
X268509Y120892D01*
Y120901D01*
X268518Y120926D01*
X268531Y120951D01*
X269218Y121795D01*
X268199D01*
X268191Y121798D01*
X268182Y121804D01*
X268169Y121812D01*
X268155Y121823D01*
X268141Y121834D01*
X268130Y121854D01*
X268119Y121873D01*
Y122064D01*
Y122067D01*
X268124Y122075D01*
X268127Y122083D01*
X268135Y122097D01*
X268158Y122125D01*
X268169Y122136D01*
X268185Y122147D01*
X268224Y122153D01*
X269515Y122158D01*
X269659D01*
X269675Y122155D01*
D02*
G37*
G36*
X274997Y122150D02*
X275008Y122144D01*
X275019Y122139D01*
X275033Y122131D01*
X275047Y122117D01*
X275058Y122103D01*
X275069Y122083D01*
X275080Y122034D01*
Y120084D01*
X276224Y121253D01*
X276379D01*
X276396Y121250D01*
X276415Y121244D01*
X276434Y121236D01*
X276456Y121222D01*
X276473Y121205D01*
X276487Y121180D01*
X276490Y121175D01*
X276495Y121164D01*
X276498Y121150D01*
X276501Y121131D01*
Y121125D01*
X276498Y121111D01*
X276495Y121095D01*
X276484Y121075D01*
X276459Y121042D01*
X275697Y120285D01*
X276476Y119394D01*
Y119391D01*
X276479Y119388D01*
X276487Y119372D01*
X276493Y119350D01*
X276495Y119327D01*
Y119322D01*
Y119314D01*
X276493Y119300D01*
X276490Y119289D01*
Y119286D01*
X276487Y119280D01*
X276484Y119272D01*
X276476Y119261D01*
X276468Y119250D01*
X276456Y119236D01*
X276440Y119225D01*
X276420Y119214D01*
X276376Y119208D01*
X276085D01*
X276046Y119228D01*
X275398Y120003D01*
X275080Y119662D01*
Y119302D01*
Y119300D01*
X275077Y119294D01*
X275074Y119286D01*
X275069Y119272D01*
X275058Y119258D01*
X275047Y119244D01*
X275030Y119228D01*
X275008Y119214D01*
X274999D01*
X274991Y119211D01*
X274963D01*
X274944Y119208D01*
X274786D01*
X274781Y119211D01*
X274770Y119217D01*
X274759Y119225D01*
X274747Y119236D01*
X274734Y119250D01*
X274720Y119266D01*
X274709Y119289D01*
Y119363D01*
Y122059D01*
X274711Y122061D01*
X274714Y122072D01*
X274723Y122089D01*
X274736Y122106D01*
X274753Y122122D01*
X274778Y122139D01*
X274808Y122150D01*
X274844Y122153D01*
X274991D01*
X274997Y122150D01*
D02*
G37*
G36*
X270986Y119834D02*
X271002D01*
X271038Y119823D01*
X271058Y119818D01*
X271074Y119807D01*
X271238Y119640D01*
Y119638D01*
X271241Y119629D01*
X271243Y119618D01*
X271246Y119604D01*
X271252Y119568D01*
X271254Y119530D01*
Y119527D01*
Y119518D01*
Y119505D01*
X271252Y119483D01*
Y119477D01*
Y119463D01*
Y119447D01*
Y119424D01*
X271230Y119380D01*
X271058Y119217D01*
X271019Y119208D01*
X270886D01*
X270875Y119211D01*
X270858Y119214D01*
X270822Y119225D01*
X270806Y119233D01*
X270789Y119247D01*
X270634Y119397D01*
X270623Y119441D01*
Y119549D01*
Y119552D01*
Y119560D01*
Y119574D01*
X270626Y119590D01*
X270631Y119626D01*
X270637Y119646D01*
X270645Y119662D01*
X270814Y119823D01*
X270853Y119837D01*
X270972D01*
X270986Y119834D01*
D02*
G37*
G36*
X266545Y122144D02*
X266950Y122011D01*
X266953Y122009D01*
X266961Y122000D01*
X266978Y121989D01*
X266997Y121970D01*
X267022Y121945D01*
X267055Y121915D01*
X267088Y121879D01*
X267130Y121837D01*
X267274Y121554D01*
Y121103D01*
X267122Y120801D01*
X266967Y120649D01*
X266928Y120629D01*
X266562Y120513D01*
X267274Y119352D01*
Y119350D01*
Y119344D01*
Y119333D01*
X267271Y119322D01*
X267266Y119289D01*
X267252Y119250D01*
X267249Y119247D01*
X267244Y119244D01*
X267235Y119236D01*
X267224Y119230D01*
X267208Y119222D01*
X267191Y119214D01*
X267172Y119211D01*
X267149Y119208D01*
X267022D01*
X267005Y119211D01*
X266989Y119217D01*
X266967Y119225D01*
X266947Y119239D01*
X266931Y119255D01*
X266917Y119278D01*
X266177Y120499D01*
X265725D01*
Y119305D01*
Y119302D01*
X265723Y119294D01*
X265720Y119283D01*
X265712Y119272D01*
X265695Y119244D01*
X265681Y119233D01*
X265665Y119225D01*
X265662D01*
X265656Y119222D01*
X265645Y119219D01*
X265631Y119217D01*
X265615Y119214D01*
X265593Y119211D01*
X265570Y119208D01*
X265432D01*
X265426Y119211D01*
X265418Y119217D01*
X265407Y119225D01*
X265393Y119236D01*
X265379Y119250D01*
X265365Y119266D01*
X265354Y119289D01*
Y119363D01*
Y122064D01*
Y122067D01*
X265360Y122072D01*
X265363Y122083D01*
X265371Y122095D01*
X265393Y122122D01*
X265404Y122133D01*
X265421Y122144D01*
X265454Y122155D01*
X266545Y122144D01*
D02*
G37*
G36*
X238354Y209549D02*
X238365D01*
X238373Y209546D01*
X238387Y209543D01*
X238401Y209538D01*
X238412Y209527D01*
X238423Y209516D01*
X238432Y209499D01*
Y209496D01*
X238434Y209491D01*
X238437Y209479D01*
X238443Y209466D01*
X238445Y209449D01*
X238448Y209430D01*
X238451Y209405D01*
Y209380D01*
Y209280D01*
Y209277D01*
X238448Y209272D01*
X238443Y209261D01*
X238434Y209250D01*
X238415Y209222D01*
X238385Y209194D01*
X238335Y209186D01*
X237273D01*
X237179Y208565D01*
X237182Y208568D01*
X237191Y208571D01*
X237207Y208579D01*
X237232Y208588D01*
X237263Y208599D01*
X237304Y208615D01*
X237354Y208632D01*
X237415Y208651D01*
X237847Y208648D01*
X238263Y208510D01*
X238265Y208507D01*
X238271Y208505D01*
X238279Y208496D01*
X238290Y208485D01*
X238321Y208455D01*
X238359Y208416D01*
X238404Y208369D01*
X238457Y208319D01*
X238512Y208263D01*
X238567Y208205D01*
X238711Y207773D01*
Y207485D01*
X238567Y207056D01*
X238564Y207053D01*
X238562Y207050D01*
X238553Y207042D01*
X238542Y207028D01*
X238512Y206998D01*
X238473Y206959D01*
X238426Y206912D01*
X238376Y206862D01*
X238321Y206806D01*
X238263Y206748D01*
X237828Y206610D01*
X237396D01*
X236980Y206754D01*
X236814Y206912D01*
X236667Y207216D01*
Y207219D01*
Y207227D01*
X236670Y207241D01*
Y207258D01*
X236678Y207294D01*
X236684Y207313D01*
X236692Y207327D01*
X236695Y207330D01*
X236698Y207333D01*
X236706Y207338D01*
X236714Y207347D01*
X236728Y207352D01*
X236745Y207358D01*
X236764Y207361D01*
X236789Y207363D01*
X236797D01*
X236811Y207358D01*
X236864D01*
X236875Y207361D01*
X236886Y207363D01*
X236914D01*
X236930Y207361D01*
X236950Y207355D01*
X236969Y207347D01*
X236991Y207333D01*
X237008Y207316D01*
X237022Y207291D01*
X237107Y207128D01*
X237110Y207125D01*
X237119Y207119D01*
X237132Y207108D01*
X237149Y207095D01*
X237174Y207081D01*
X237202Y207067D01*
X237235Y207050D01*
X237274Y207036D01*
X237279Y207034D01*
X237293Y207031D01*
X237313Y207023D01*
X237337Y207017D01*
X237365Y207006D01*
X237396Y206998D01*
X237426Y206986D01*
X237456Y206978D01*
X237800D01*
X238024Y207056D01*
X238160Y207147D01*
X238268Y207308D01*
X238340Y207535D01*
Y207748D01*
X238265Y207970D01*
X238171Y208108D01*
X238008Y208214D01*
X237783Y208286D01*
X237326D01*
X237074Y208158D01*
X236875D01*
X236872Y208161D01*
X236864Y208164D01*
X236850Y208172D01*
X236836Y208183D01*
X236822Y208200D01*
X236808Y208219D01*
X236797Y208244D01*
X236792Y208272D01*
X236927Y209474D01*
Y209477D01*
X236930Y209485D01*
X236933Y209496D01*
X236941Y209510D01*
X236952Y209524D01*
X236969Y209535D01*
X236991Y209546D01*
X237022Y209554D01*
X238354Y209549D01*
D02*
G37*
G36*
X235213D02*
X235634Y209407D01*
X235670Y209371D01*
X235941Y208964D01*
X236077Y208266D01*
Y207865D01*
X235936Y207191D01*
X235656Y206765D01*
X235609Y206740D01*
X235196Y206610D01*
X234892Y206618D01*
X234479Y206754D01*
X234437Y206790D01*
X234171Y207194D01*
X234033Y207892D01*
Y208313D01*
X234166Y208967D01*
X234457Y209394D01*
X234493Y209421D01*
X234914Y209552D01*
X235213Y209549D01*
D02*
G37*
G36*
X232578D02*
X233000Y209407D01*
X233036Y209371D01*
X233307Y208964D01*
X233443Y208266D01*
Y207865D01*
X233301Y207191D01*
X233022Y206765D01*
X232975Y206740D01*
X232562Y206610D01*
X232257Y206618D01*
X231844Y206754D01*
X231803Y206790D01*
X231537Y207194D01*
X231399Y207892D01*
Y208313D01*
X231532Y208967D01*
X231822Y209394D01*
X231858Y209421D01*
X232279Y209552D01*
X232578Y209549D01*
D02*
G37*
G36*
X230435Y207236D02*
X230451D01*
X230487Y207225D01*
X230507Y207219D01*
X230523Y207208D01*
X230687Y207042D01*
Y207039D01*
X230689Y207031D01*
X230692Y207020D01*
X230695Y207006D01*
X230700Y206970D01*
X230703Y206931D01*
Y206928D01*
Y206920D01*
Y206906D01*
X230700Y206884D01*
Y206878D01*
Y206865D01*
Y206848D01*
Y206826D01*
X230678Y206782D01*
X230507Y206618D01*
X230468Y206610D01*
X230335D01*
X230324Y206613D01*
X230307Y206615D01*
X230271Y206626D01*
X230255Y206635D01*
X230238Y206649D01*
X230083Y206798D01*
X230072Y206842D01*
Y206950D01*
Y206953D01*
Y206962D01*
Y206976D01*
X230075Y206992D01*
X230080Y207028D01*
X230085Y207048D01*
X230094Y207064D01*
X230263Y207225D01*
X230302Y207239D01*
X230421D01*
X230435Y207236D01*
D02*
G37*
G36*
X228493Y209549D02*
X228914Y209407D01*
X228950Y209371D01*
X229221Y208964D01*
X229357Y208266D01*
Y207865D01*
X229216Y207191D01*
X228936Y206765D01*
X228889Y206740D01*
X228476Y206610D01*
X228171Y206618D01*
X227759Y206754D01*
X227717Y206790D01*
X227451Y207194D01*
X227313Y207892D01*
Y208313D01*
X227446Y208967D01*
X227737Y209394D01*
X227773Y209421D01*
X228194Y209552D01*
X228493Y209549D01*
D02*
G37*
G36*
X225994Y209546D02*
X226399Y209413D01*
X226401Y209410D01*
X226410Y209402D01*
X226426Y209391D01*
X226446Y209371D01*
X226471Y209347D01*
X226504Y209316D01*
X226537Y209280D01*
X226579Y209239D01*
X226723Y208956D01*
Y208505D01*
X226570Y208203D01*
X226415Y208050D01*
X226377Y208031D01*
X226011Y207914D01*
X226723Y206754D01*
Y206751D01*
Y206746D01*
Y206734D01*
X226720Y206723D01*
X226714Y206690D01*
X226701Y206651D01*
X226698Y206649D01*
X226692Y206646D01*
X226684Y206638D01*
X226673Y206632D01*
X226656Y206624D01*
X226640Y206615D01*
X226620Y206613D01*
X226598Y206610D01*
X226471D01*
X226454Y206613D01*
X226437Y206618D01*
X226415Y206626D01*
X226396Y206640D01*
X226379Y206657D01*
X226365Y206679D01*
X225626Y207901D01*
X225174D01*
Y206707D01*
Y206704D01*
X225172Y206696D01*
X225169Y206685D01*
X225161Y206674D01*
X225144Y206646D01*
X225130Y206635D01*
X225113Y206626D01*
X225111D01*
X225105Y206624D01*
X225094Y206621D01*
X225080Y206618D01*
X225063Y206615D01*
X225041Y206613D01*
X225019Y206610D01*
X224881D01*
X224875Y206613D01*
X224867Y206618D01*
X224856Y206626D01*
X224842Y206638D01*
X224828Y206651D01*
X224814Y206668D01*
X224803Y206690D01*
Y206765D01*
Y209466D01*
Y209468D01*
X224809Y209474D01*
X224812Y209485D01*
X224820Y209496D01*
X224842Y209524D01*
X224853Y209535D01*
X224870Y209546D01*
X224903Y209557D01*
X225994Y209546D01*
D02*
G37*
G36*
X320637Y175297D02*
X320649D01*
X320657Y175294D01*
X320671Y175291D01*
X320685Y175286D01*
X320696Y175275D01*
X320707Y175264D01*
X320715Y175247D01*
Y175244D01*
X320718Y175239D01*
X320721Y175228D01*
X320726Y175214D01*
X320729Y175197D01*
X320732Y175178D01*
X320734Y175153D01*
Y175128D01*
Y175028D01*
Y175025D01*
X320732Y175020D01*
X320726Y175009D01*
X320718Y174998D01*
X320698Y174970D01*
X320668Y174942D01*
X320618Y174934D01*
X319557D01*
X319463Y174313D01*
X319466Y174316D01*
X319474Y174319D01*
X319491Y174327D01*
X319516Y174336D01*
X319546Y174347D01*
X319588Y174363D01*
X319637Y174380D01*
X319698Y174399D01*
X320130Y174397D01*
X320546Y174258D01*
X320549Y174255D01*
X320554Y174252D01*
X320563Y174244D01*
X320574Y174233D01*
X320604Y174203D01*
X320643Y174164D01*
X320687Y174117D01*
X320740Y174067D01*
X320795Y174012D01*
X320851Y173953D01*
X320995Y173521D01*
Y173233D01*
X320851Y172804D01*
X320848Y172801D01*
X320845Y172798D01*
X320837Y172790D01*
X320826Y172776D01*
X320795Y172746D01*
X320757Y172707D01*
X320709Y172660D01*
X320660Y172610D01*
X320604Y172555D01*
X320546Y172496D01*
X320111Y172358D01*
X319679D01*
X319264Y172502D01*
X319097Y172660D01*
X318951Y172965D01*
Y172967D01*
Y172976D01*
X318953Y172989D01*
Y173006D01*
X318962Y173042D01*
X318967Y173061D01*
X318975Y173075D01*
X318978Y173078D01*
X318981Y173081D01*
X318989Y173086D01*
X318998Y173095D01*
X319011Y173100D01*
X319028Y173106D01*
X319047Y173108D01*
X319072Y173111D01*
X319081D01*
X319095Y173106D01*
X319147D01*
X319158Y173108D01*
X319169Y173111D01*
X319197D01*
X319214Y173108D01*
X319233Y173103D01*
X319252Y173095D01*
X319275Y173081D01*
X319291Y173064D01*
X319305Y173039D01*
X319391Y172876D01*
X319394Y172873D01*
X319402Y172868D01*
X319416Y172856D01*
X319432Y172843D01*
X319457Y172829D01*
X319485Y172815D01*
X319518Y172798D01*
X319557Y172784D01*
X319563Y172782D01*
X319577Y172779D01*
X319596Y172771D01*
X319621Y172765D01*
X319649Y172754D01*
X319679Y172746D01*
X319709Y172735D01*
X319740Y172726D01*
X320083D01*
X320308Y172804D01*
X320444Y172895D01*
X320552Y173056D01*
X320624Y173283D01*
Y173496D01*
X320549Y173718D01*
X320455Y173856D01*
X320291Y173962D01*
X320067Y174034D01*
X319610D01*
X319358Y173906D01*
X319158D01*
X319156Y173909D01*
X319147Y173912D01*
X319133Y173920D01*
X319120Y173931D01*
X319106Y173948D01*
X319092Y173967D01*
X319081Y173992D01*
X319075Y174020D01*
X319211Y175222D01*
Y175225D01*
X319214Y175233D01*
X319216Y175244D01*
X319225Y175258D01*
X319236Y175272D01*
X319252Y175283D01*
X319275Y175294D01*
X319305Y175302D01*
X320637Y175297D01*
D02*
G37*
G36*
X317496D02*
X317917Y175155D01*
X317953Y175119D01*
X318225Y174712D01*
X318360Y174014D01*
Y173613D01*
X318219Y172940D01*
X317939Y172513D01*
X317892Y172488D01*
X317480Y172358D01*
X317175Y172366D01*
X316762Y172502D01*
X316721Y172538D01*
X316455Y172942D01*
X316316Y173640D01*
Y174061D01*
X316449Y174715D01*
X316740Y175142D01*
X316776Y175169D01*
X317197Y175300D01*
X317496Y175297D01*
D02*
G37*
G36*
X314862D02*
X315283Y175155D01*
X315319Y175119D01*
X315591Y174712D01*
X315726Y174014D01*
Y173613D01*
X315585Y172940D01*
X315305Y172513D01*
X315258Y172488D01*
X314845Y172358D01*
X314541Y172366D01*
X314128Y172502D01*
X314086Y172538D01*
X313821Y172942D01*
X313682Y173640D01*
Y174061D01*
X313815Y174715D01*
X314106Y175142D01*
X314142Y175169D01*
X314563Y175300D01*
X314862Y175297D01*
D02*
G37*
G36*
X312718Y172984D02*
X312735D01*
X312771Y172973D01*
X312790Y172967D01*
X312807Y172956D01*
X312970Y172790D01*
Y172787D01*
X312973Y172779D01*
X312976Y172768D01*
X312978Y172754D01*
X312984Y172718D01*
X312987Y172679D01*
Y172676D01*
Y172668D01*
Y172654D01*
X312984Y172632D01*
Y172626D01*
Y172613D01*
Y172596D01*
Y172574D01*
X312962Y172530D01*
X312790Y172366D01*
X312751Y172358D01*
X312618D01*
X312607Y172361D01*
X312591Y172363D01*
X312555Y172374D01*
X312538Y172383D01*
X312521Y172397D01*
X312366Y172546D01*
X312355Y172590D01*
Y172699D01*
Y172701D01*
Y172710D01*
Y172723D01*
X312358Y172740D01*
X312364Y172776D01*
X312369Y172795D01*
X312377Y172812D01*
X312546Y172973D01*
X312585Y172987D01*
X312704D01*
X312718Y172984D01*
D02*
G37*
G36*
X310776Y175297D02*
X311197Y175155D01*
X311233Y175119D01*
X311505Y174712D01*
X311641Y174014D01*
Y173613D01*
X311499Y172940D01*
X311220Y172513D01*
X311172Y172488D01*
X310760Y172358D01*
X310455Y172366D01*
X310042Y172502D01*
X310001Y172538D01*
X309735Y172942D01*
X309596Y173640D01*
Y174061D01*
X309729Y174715D01*
X310020Y175142D01*
X310056Y175169D01*
X310477Y175300D01*
X310776Y175297D01*
D02*
G37*
G36*
X308278Y175294D02*
X308682Y175161D01*
X308685Y175158D01*
X308693Y175150D01*
X308710Y175139D01*
X308729Y175119D01*
X308754Y175095D01*
X308787Y175064D01*
X308821Y175028D01*
X308862Y174987D01*
X309006Y174704D01*
Y174252D01*
X308854Y173951D01*
X308699Y173798D01*
X308660Y173779D01*
X308294Y173662D01*
X309006Y172502D01*
Y172499D01*
Y172494D01*
Y172483D01*
X309003Y172471D01*
X308998Y172438D01*
X308984Y172399D01*
X308981Y172397D01*
X308976Y172394D01*
X308967Y172386D01*
X308956Y172380D01*
X308940Y172372D01*
X308923Y172363D01*
X308904Y172361D01*
X308882Y172358D01*
X308754D01*
X308737Y172361D01*
X308721Y172366D01*
X308699Y172374D01*
X308679Y172388D01*
X308663Y172405D01*
X308649Y172427D01*
X307909Y173649D01*
X307458D01*
Y172455D01*
Y172452D01*
X307455Y172444D01*
X307452Y172433D01*
X307444Y172422D01*
X307427Y172394D01*
X307414Y172383D01*
X307397Y172374D01*
X307394D01*
X307388Y172372D01*
X307378Y172369D01*
X307364Y172366D01*
X307347Y172363D01*
X307325Y172361D01*
X307303Y172358D01*
X307164D01*
X307159Y172361D01*
X307150Y172366D01*
X307139Y172374D01*
X307125Y172386D01*
X307112Y172399D01*
X307098Y172416D01*
X307087Y172438D01*
Y172513D01*
Y175214D01*
Y175216D01*
X307092Y175222D01*
X307095Y175233D01*
X307103Y175244D01*
X307125Y175272D01*
X307137Y175283D01*
X307153Y175294D01*
X307186Y175305D01*
X308278Y175294D01*
D02*
G37*
G36*
X200893Y136028D02*
X200907Y136022D01*
X200909D01*
X200915Y136020D01*
X200923Y136014D01*
X200937Y136006D01*
X200948Y135997D01*
X200959Y135984D01*
X200973Y135967D01*
X200981Y135948D01*
Y135848D01*
Y133180D01*
Y133178D01*
X200979Y133169D01*
X200973Y133158D01*
X200968Y133147D01*
X200957Y133131D01*
X200943Y133114D01*
X200926Y133100D01*
X200904Y133086D01*
X200693D01*
X200688Y133089D01*
X200679Y133095D01*
X200666Y133100D01*
X200655Y133108D01*
X200641Y133122D01*
X200630Y133136D01*
X200619Y133155D01*
X200610Y133200D01*
Y134699D01*
X199926Y133139D01*
X199923Y133136D01*
X199918Y133131D01*
X199909Y133122D01*
X199896Y133114D01*
X199865Y133095D01*
X199846Y133089D01*
X199824Y133086D01*
X199810D01*
X199796Y133092D01*
X199779Y133097D01*
X199760Y133106D01*
X199741Y133119D01*
X199721Y133139D01*
X199707Y133167D01*
X199045Y134831D01*
Y133169D01*
Y133167D01*
X199040Y133161D01*
X199034Y133150D01*
X199026Y133139D01*
X199004Y133117D01*
X198990Y133108D01*
X198976Y133100D01*
X198973D01*
X198968Y133097D01*
X198959Y133095D01*
X198945D01*
X198929Y133092D01*
X198909Y133089D01*
X198887Y133086D01*
X198752D01*
X198746Y133089D01*
X198735Y133095D01*
X198724Y133103D01*
X198713Y133114D01*
X198699Y133128D01*
X198685Y133144D01*
X198674Y133167D01*
Y133241D01*
Y135936D01*
Y135939D01*
X198680Y135948D01*
X198685Y135959D01*
X198691Y135970D01*
X198713Y135997D01*
X198729Y136009D01*
X198746Y136017D01*
X198749Y136020D01*
X198760Y136025D01*
X198776Y136028D01*
X198799Y136031D01*
X198804D01*
X198818Y136028D01*
X198835Y136022D01*
X198851Y136011D01*
X198857Y136009D01*
X198868Y135997D01*
X198885Y135981D01*
X198904Y135956D01*
X199821Y133871D01*
X200763Y135986D01*
X200765Y135989D01*
X200771Y135995D01*
X200779Y136000D01*
X200793Y136009D01*
X200824Y136025D01*
X200843Y136028D01*
X200862Y136031D01*
X200879D01*
X200893Y136028D01*
D02*
G37*
G36*
X197081Y136033D02*
X197090Y136031D01*
X197117Y136022D01*
X197131Y136011D01*
X197148Y136000D01*
X197151Y135997D01*
X197153Y135995D01*
X197162Y135986D01*
X197170Y135975D01*
X197184Y135945D01*
X197187Y135928D01*
X197189Y135906D01*
Y133172D01*
Y133169D01*
X197187Y133164D01*
X197181Y133153D01*
X197173Y133139D01*
X197162Y133125D01*
X197148Y133111D01*
X197131Y133097D01*
X197109Y133086D01*
X196898D01*
X196890Y133089D01*
X196879Y133095D01*
X196868Y133103D01*
X196854Y133114D01*
X196840Y133131D01*
X196827Y133147D01*
X196818Y133169D01*
Y133252D01*
Y135416D01*
X196746Y135294D01*
X196447Y135153D01*
X196433D01*
X196419Y135155D01*
X196403D01*
X196367Y135167D01*
X196350Y135172D01*
X196333Y135183D01*
Y135186D01*
X196328Y135191D01*
X196322Y135200D01*
X196317Y135214D01*
X196311Y135233D01*
X196306Y135258D01*
X196303Y135291D01*
X196300Y135330D01*
Y135374D01*
Y135380D01*
Y135391D01*
X196303Y135405D01*
X196309Y135427D01*
X196314Y135446D01*
X196325Y135468D01*
X196342Y135488D01*
X196361Y135502D01*
X196605Y135626D01*
X196995Y136011D01*
X197001Y136014D01*
X197012Y136025D01*
X197034Y136033D01*
X197065Y136036D01*
X197073D01*
X197081Y136033D01*
D02*
G37*
G36*
X194597Y136022D02*
X195001Y135889D01*
X195004Y135887D01*
X195012Y135878D01*
X195029Y135867D01*
X195048Y135848D01*
X195073Y135823D01*
X195106Y135793D01*
X195140Y135757D01*
X195181Y135715D01*
X195325Y135432D01*
Y134981D01*
X195173Y134679D01*
X195018Y134527D01*
X194979Y134507D01*
X194613Y134391D01*
X195325Y133230D01*
Y133228D01*
Y133222D01*
Y133211D01*
X195322Y133200D01*
X195317Y133167D01*
X195303Y133128D01*
X195300Y133125D01*
X195295Y133122D01*
X195286Y133114D01*
X195275Y133108D01*
X195259Y133100D01*
X195242Y133092D01*
X195223Y133089D01*
X195201Y133086D01*
X195073D01*
X195056Y133089D01*
X195040Y133095D01*
X195018Y133103D01*
X194998Y133117D01*
X194982Y133133D01*
X194968Y133155D01*
X194228Y134377D01*
X193777D01*
Y133183D01*
Y133180D01*
X193774Y133172D01*
X193771Y133161D01*
X193763Y133150D01*
X193746Y133122D01*
X193732Y133111D01*
X193716Y133103D01*
X193713D01*
X193707Y133100D01*
X193696Y133097D01*
X193683Y133095D01*
X193666Y133092D01*
X193644Y133089D01*
X193622Y133086D01*
X193483D01*
X193477Y133089D01*
X193469Y133095D01*
X193458Y133103D01*
X193444Y133114D01*
X193430Y133128D01*
X193417Y133144D01*
X193405Y133167D01*
Y133241D01*
Y135942D01*
Y135945D01*
X193411Y135950D01*
X193414Y135961D01*
X193422Y135972D01*
X193444Y136000D01*
X193455Y136011D01*
X193472Y136022D01*
X193505Y136033D01*
X194597Y136022D01*
D02*
G37*
G36*
X309598Y124321D02*
X309609Y124315D01*
X309623Y124307D01*
X309642Y124296D01*
X309659Y124279D01*
X309673Y124257D01*
X309684Y124235D01*
X309686Y124207D01*
X309676Y124155D01*
X308637Y121437D01*
X308634Y121434D01*
X308628Y121426D01*
X308620Y121418D01*
X308606Y121407D01*
X308590Y121393D01*
X308568Y121385D01*
X308540Y121376D01*
X308509Y121374D01*
X308506D01*
X308498Y121376D01*
X308487Y121379D01*
X308476Y121387D01*
X308448Y121404D01*
X308437Y121418D01*
X308429Y121432D01*
X307382Y124182D01*
Y124185D01*
Y124188D01*
X307385Y124205D01*
X307390Y124227D01*
X307401Y124254D01*
X307418Y124279D01*
X307443Y124302D01*
X307459Y124310D01*
X307482Y124318D01*
X307504Y124321D01*
X307529Y124324D01*
X307667D01*
X307673Y124318D01*
X307684Y124313D01*
X307695Y124304D01*
X307720Y124282D01*
X307731Y124268D01*
X307739Y124252D01*
X308522Y122188D01*
X309326Y124263D01*
X309329Y124266D01*
X309335Y124271D01*
X309346Y124282D01*
X309360Y124293D01*
X309376Y124304D01*
X309401Y124315D01*
X309426Y124321D01*
X309459Y124324D01*
X309595D01*
X309598Y124321D01*
D02*
G37*
G36*
X315138Y124313D02*
X315149Y124307D01*
X315163Y124299D01*
X315177Y124288D01*
X315193Y124274D01*
X315204Y124257D01*
X315215Y124235D01*
Y124152D01*
Y122235D01*
X315077Y121822D01*
X315071Y121817D01*
X315058Y121803D01*
X315035Y121778D01*
X315002Y121745D01*
X314958Y121701D01*
X314905Y121648D01*
X314844Y121587D01*
X314772Y121518D01*
X314770D01*
X314761Y121515D01*
X314744Y121509D01*
X314725Y121504D01*
X314703Y121495D01*
X314675Y121487D01*
X314645Y121476D01*
X314614Y121465D01*
X314542Y121443D01*
X314470Y121418D01*
X314398Y121396D01*
X314332Y121374D01*
X314030D01*
X313617Y121512D01*
X313614Y121515D01*
X313612Y121518D01*
X313603Y121526D01*
X313592Y121534D01*
X313564Y121562D01*
X313526Y121598D01*
X313479Y121645D01*
X313426Y121695D01*
X313368Y121753D01*
X313307Y121817D01*
X313168Y122246D01*
Y124224D01*
X313171Y124227D01*
X313174Y124238D01*
X313182Y124254D01*
X313196Y124271D01*
X313213Y124288D01*
X313238Y124304D01*
X313268Y124315D01*
X313304Y124318D01*
X313451D01*
X313457Y124315D01*
X313468Y124310D01*
X313479Y124304D01*
X313492Y124296D01*
X313506Y124282D01*
X313517Y124268D01*
X313528Y124249D01*
X313540Y124199D01*
Y122277D01*
X313653Y121941D01*
X313745Y121853D01*
X314091Y121742D01*
X314312D01*
X314639Y121853D01*
X314734Y121950D01*
X314844Y122304D01*
Y124232D01*
Y124235D01*
X314847Y124243D01*
X314853Y124252D01*
X314861Y124266D01*
X314872Y124279D01*
X314886Y124293D01*
X314902Y124304D01*
X314925Y124313D01*
X314930D01*
X314938Y124315D01*
X314949D01*
X314980Y124318D01*
X315130D01*
X315138Y124313D01*
D02*
G37*
G36*
X311590D02*
X311891Y124163D01*
X312174Y123875D01*
X312318Y123576D01*
X312448Y123185D01*
Y122495D01*
X312301Y122077D01*
X312171Y121809D01*
X311869Y121515D01*
X311584Y121374D01*
X311002Y121382D01*
X310703Y121529D01*
X310415Y121820D01*
X310274Y122119D01*
X310146Y122509D01*
Y123199D01*
X310288Y123617D01*
X310421Y123883D01*
X310720Y124174D01*
X310997Y124310D01*
X311027Y124318D01*
X311590Y124313D01*
D02*
G37*
G36*
X317631D02*
X317642D01*
X317650Y124310D01*
X317664Y124307D01*
X317678Y124302D01*
X317689Y124290D01*
X317700Y124279D01*
X317708Y124263D01*
Y124260D01*
X317711Y124254D01*
X317714Y124243D01*
X317720Y124230D01*
X317722Y124213D01*
X317725Y124194D01*
X317728Y124169D01*
Y124144D01*
Y124044D01*
Y124041D01*
X317725Y124036D01*
X317720Y124024D01*
X317711Y124013D01*
X317692Y123986D01*
X317675Y123972D01*
X317659Y123958D01*
X317612Y123950D01*
X316955D01*
Y121457D01*
X316952Y121454D01*
X316947Y121443D01*
X316938Y121429D01*
X316925Y121415D01*
X316905Y121398D01*
X316880Y121385D01*
X316852Y121374D01*
X316816Y121371D01*
X316670D01*
X316661Y121376D01*
X316650Y121382D01*
X316636Y121390D01*
X316609Y121415D01*
X316598Y121429D01*
X316592Y121448D01*
X316584Y121493D01*
Y123950D01*
X315894D01*
X315886Y123955D01*
X315878Y123958D01*
X315864Y123966D01*
X315839Y123986D01*
X315828Y123997D01*
X315822Y124011D01*
Y124013D01*
X315819Y124019D01*
Y124027D01*
X315816Y124041D01*
X315814Y124058D01*
Y124077D01*
X315811Y124099D01*
Y124127D01*
Y124227D01*
Y124230D01*
X315814Y124238D01*
X315822Y124252D01*
X315830Y124268D01*
X315844Y124282D01*
X315861Y124299D01*
X315886Y124310D01*
X315914Y124318D01*
X317631Y124313D01*
D02*
G37*
G36*
X309815Y199318D02*
X310117Y199163D01*
X310399Y198878D01*
X310543Y198579D01*
Y198576D01*
Y198567D01*
Y198556D01*
X310541Y198542D01*
X310532Y198509D01*
X310524Y198493D01*
X310516Y198479D01*
X310513Y198476D01*
X310507Y198470D01*
X310496Y198465D01*
X310482Y198457D01*
X310466Y198446D01*
X310444Y198440D01*
X310419Y198434D01*
X310391Y198432D01*
X310361D01*
X310333Y198434D01*
X310325D01*
X310316Y198437D01*
X310308D01*
X310280Y198443D01*
X310250Y198446D01*
X310247D01*
X310244Y198448D01*
X310225Y198457D01*
X310216Y198462D01*
X310205Y198473D01*
X310194Y198487D01*
X310183Y198506D01*
X310070Y198742D01*
X309956Y198850D01*
X309743Y198955D01*
X309289D01*
X309070Y198844D01*
X308967Y198736D01*
Y198734D01*
X308962Y198728D01*
X308956Y198717D01*
X308948Y198703D01*
X308940Y198681D01*
X308928Y198659D01*
X308915Y198628D01*
X308898Y198595D01*
X308881Y198556D01*
X308865Y198512D01*
X308845Y198462D01*
X308826Y198407D01*
X308804Y198349D01*
X308784Y198285D01*
X308759Y198213D01*
X308737Y198138D01*
Y197534D01*
Y197531D01*
X308740Y197523D01*
X308746Y197509D01*
X308751Y197493D01*
X308759Y197473D01*
X308765Y197448D01*
X308784Y197398D01*
X308801Y197346D01*
X308818Y197296D01*
X308826Y197277D01*
X308832Y197257D01*
X308837Y197243D01*
X308840Y197232D01*
Y197230D01*
X308843Y197224D01*
X308848Y197216D01*
X308851Y197205D01*
X308865Y197171D01*
X308884Y197133D01*
X308904Y197088D01*
X308928Y197038D01*
X308953Y196991D01*
X308978Y196944D01*
X309084Y196842D01*
X309294Y196742D01*
X309748D01*
X309967Y196850D01*
X310067Y196958D01*
X310172Y197171D01*
Y197407D01*
X309746D01*
X309740Y197410D01*
X309729Y197415D01*
X309715Y197421D01*
X309690Y197437D01*
X309679Y197448D01*
X309671Y197462D01*
X309654Y197498D01*
X309660Y197687D01*
Y197689D01*
X309663Y197695D01*
X309668Y197706D01*
X309676Y197717D01*
X309685Y197731D01*
X309699Y197745D01*
X309712Y197756D01*
X309732Y197764D01*
X309782Y197775D01*
X310455D01*
X310463Y197770D01*
X310474Y197764D01*
X310488Y197756D01*
X310516Y197731D01*
X310529Y197717D01*
X310538Y197698D01*
X310543Y197645D01*
Y197105D01*
X310385Y196797D01*
X310100Y196518D01*
X309806Y196374D01*
X309225Y196382D01*
X308923Y196529D01*
X308638Y196820D01*
X308494Y197119D01*
X308366Y197509D01*
Y198202D01*
X308507Y198617D01*
X308643Y198886D01*
X308942Y199174D01*
X309219Y199315D01*
X309253Y199324D01*
X309815Y199318D01*
D02*
G37*
G36*
X313230Y199313D02*
X313241Y199307D01*
X313255Y199299D01*
X313269Y199288D01*
X313286Y199274D01*
X313297Y199257D01*
X313308Y199235D01*
Y199152D01*
Y196462D01*
Y196459D01*
X313302Y196448D01*
X313294Y196434D01*
X313283Y196418D01*
X313269Y196401D01*
X313250Y196387D01*
X313225Y196376D01*
X313194Y196374D01*
X313186D01*
X313175Y196376D01*
X313161Y196379D01*
X313133Y196387D01*
X313117Y196396D01*
X313103Y196407D01*
X311632Y198520D01*
Y196468D01*
Y196465D01*
X311629Y196459D01*
X311626Y196451D01*
X311621Y196437D01*
X311610Y196423D01*
X311599Y196410D01*
X311582Y196393D01*
X311560Y196379D01*
X311552D01*
X311543Y196376D01*
X311516D01*
X311496Y196374D01*
X311338D01*
X311333Y196376D01*
X311322Y196382D01*
X311311Y196390D01*
X311300Y196401D01*
X311286Y196415D01*
X311272Y196432D01*
X311261Y196454D01*
Y196529D01*
Y199224D01*
Y199227D01*
X311264Y199235D01*
X311272Y199246D01*
X311280Y199263D01*
X311294Y199276D01*
X311313Y199293D01*
X311336Y199307D01*
X311366Y199318D01*
X311374D01*
X311385Y199315D01*
X311399Y199313D01*
X311433Y199304D01*
X311449Y199293D01*
X311466Y199282D01*
X312937Y197177D01*
Y199232D01*
Y199235D01*
X312939Y199243D01*
X312945Y199252D01*
X312953Y199266D01*
X312964Y199279D01*
X312978Y199293D01*
X312995Y199304D01*
X313017Y199313D01*
X313022D01*
X313031Y199315D01*
X313042D01*
X313072Y199318D01*
X313222D01*
X313230Y199313D01*
D02*
G37*
G36*
X315227Y199307D02*
X315629Y199174D01*
X315632Y199171D01*
X315637Y199169D01*
X315646Y199160D01*
X315657Y199149D01*
X315687Y199119D01*
X315726Y199080D01*
X315770Y199033D01*
X315823Y198983D01*
X315878Y198927D01*
X315934Y198869D01*
X316075Y198579D01*
X316205Y198180D01*
Y197493D01*
X316058Y197072D01*
X315926Y196806D01*
X315626Y196512D01*
X315191Y196374D01*
X314236D01*
X314230Y196379D01*
X314219Y196385D01*
X314208Y196393D01*
X314197Y196404D01*
X314183Y196418D01*
X314169Y196434D01*
X314158Y196454D01*
Y196529D01*
Y199230D01*
Y199232D01*
X314164Y199238D01*
X314166Y199249D01*
X314175Y199260D01*
X314197Y199288D01*
X314208Y199299D01*
X314225Y199310D01*
X314255Y199315D01*
X315227Y199307D01*
D02*
G37*
G36*
X294743Y202746D02*
X294781Y202740D01*
X294784D01*
X294790Y202737D01*
X294806Y202729D01*
X294817Y202724D01*
X294829Y202710D01*
X294840Y202696D01*
X294848Y202677D01*
X294859Y202629D01*
Y200793D01*
Y200790D01*
X294853Y200785D01*
X294848Y200774D01*
X294840Y200760D01*
X294820Y200735D01*
X294806Y200727D01*
X294793Y200718D01*
X294790D01*
X294787Y200715D01*
X294779Y200713D01*
X294768D01*
X294751Y200710D01*
X294734Y200707D01*
X294715Y200704D01*
X294646D01*
X294610Y200707D01*
X294593Y200710D01*
X294577Y200713D01*
X294574D01*
X294565Y200718D01*
X294551Y200724D01*
X294538Y200732D01*
X294524Y200743D01*
X294510Y200754D01*
X294499Y200771D01*
X294493Y200787D01*
Y200790D01*
Y200804D01*
X294491Y200826D01*
Y200857D01*
Y200876D01*
Y200901D01*
X294488Y200926D01*
Y200954D01*
Y200984D01*
Y201020D01*
Y201056D01*
Y201098D01*
Y201100D01*
X294286Y200848D01*
X293989Y200704D01*
X293541Y200710D01*
X293236Y200859D01*
X293208Y200898D01*
X293070Y201322D01*
Y202652D01*
X293072Y202657D01*
X293075Y202668D01*
X293083Y202682D01*
X293097Y202701D01*
X293114Y202718D01*
X293139Y202735D01*
X293169Y202746D01*
X293205Y202749D01*
X293222D01*
X293233Y202746D01*
X293247D01*
X293264Y202743D01*
X293272D01*
X293283Y202740D01*
X293294D01*
X293324Y202737D01*
X293360Y202735D01*
X293363D01*
X293369Y202732D01*
X293377Y202729D01*
X293388Y202726D01*
X293399Y202718D01*
X293410Y202707D01*
X293421Y202693D01*
X293430Y202674D01*
X293441Y202627D01*
Y201361D01*
X293543Y201167D01*
X293740Y201073D01*
X293942D01*
X293945Y201076D01*
X293953Y201081D01*
X293967Y201087D01*
X293984Y201095D01*
X294003Y201106D01*
X294028Y201120D01*
X294058Y201136D01*
X294092Y201156D01*
X294130Y201178D01*
X294178Y201206D01*
X294228Y201236D01*
X294283Y201272D01*
X294344Y201311D01*
X294413Y201355D01*
X294488Y201405D01*
Y202652D01*
Y202654D01*
X294491Y202663D01*
X294493Y202674D01*
X294499Y202688D01*
X294515Y202713D01*
X294529Y202724D01*
X294543Y202732D01*
X294546D01*
X294551Y202735D01*
X294563Y202737D01*
X294577Y202740D01*
X294593Y202743D01*
X294615Y202746D01*
X294637Y202749D01*
X294707D01*
X294743Y202746D01*
D02*
G37*
G36*
X289485Y203652D02*
X289505Y203646D01*
X289524Y203638D01*
X289546Y203624D01*
X289563Y203607D01*
X289577Y203582D01*
X289579Y203580D01*
X289585Y203569D01*
X289588Y203552D01*
X289591Y203535D01*
Y203533D01*
Y203530D01*
X289588Y203513D01*
X289582Y203494D01*
X289568Y203474D01*
X288867Y202599D01*
X289269Y202477D01*
X289272Y202474D01*
X289278Y202472D01*
X289286Y202463D01*
X289297Y202452D01*
X289327Y202422D01*
X289366Y202383D01*
X289413Y202336D01*
X289463Y202283D01*
X289518Y202228D01*
X289577Y202170D01*
Y202167D01*
X289579Y202158D01*
X289585Y202142D01*
X289593Y202117D01*
X289604Y202084D01*
X289610Y202064D01*
X289618Y202039D01*
X289629Y202014D01*
X289638Y201984D01*
X289649Y201954D01*
X289663Y201918D01*
Y201915D01*
X289665Y201912D01*
X289668Y201904D01*
X289671Y201893D01*
X289682Y201862D01*
X289693Y201826D01*
X289701Y201782D01*
X289712Y201737D01*
X289718Y201690D01*
X289721Y201646D01*
Y201643D01*
Y201638D01*
Y201624D01*
X289718Y201607D01*
Y201605D01*
Y201593D01*
Y201580D01*
Y201563D01*
X289577Y201150D01*
X289574Y201148D01*
X289571Y201145D01*
X289563Y201136D01*
X289552Y201123D01*
X289521Y201092D01*
X289482Y201053D01*
X289435Y201006D01*
X289386Y200956D01*
X289330Y200901D01*
X289272Y200843D01*
X288834Y200704D01*
X288402D01*
X287987Y200848D01*
X287823Y201009D01*
X287674Y201308D01*
Y201311D01*
Y201322D01*
X287676Y201336D01*
Y201353D01*
X287685Y201389D01*
X287690Y201408D01*
X287699Y201422D01*
X287701Y201425D01*
X287704Y201427D01*
X287712Y201433D01*
X287721Y201441D01*
X287735Y201447D01*
X287751Y201452D01*
X287771Y201455D01*
X287795Y201458D01*
X287804D01*
X287818Y201452D01*
X287870D01*
X287881Y201455D01*
X287893Y201458D01*
X287920D01*
X287937Y201455D01*
X287956Y201449D01*
X287976Y201441D01*
X287998Y201427D01*
X288014Y201411D01*
X288028Y201386D01*
X288114Y201222D01*
X288117Y201220D01*
X288125Y201214D01*
X288139Y201203D01*
X288156Y201189D01*
X288180Y201175D01*
X288208Y201161D01*
X288242Y201145D01*
X288280Y201131D01*
X288286Y201128D01*
X288300Y201125D01*
X288319Y201117D01*
X288344Y201112D01*
X288374Y201100D01*
X288405Y201092D01*
X288435Y201081D01*
X288463Y201073D01*
X288807D01*
X289031Y201150D01*
X289167Y201244D01*
X289275Y201402D01*
Y201405D01*
Y201408D01*
X289278Y201416D01*
X289280Y201430D01*
X289286Y201447D01*
X289294Y201469D01*
X289302Y201497D01*
X289316Y201530D01*
X289319Y201533D01*
X289322Y201544D01*
X289327Y201560D01*
X289333Y201580D01*
X289344Y201624D01*
X289350Y201646D01*
Y201665D01*
Y201668D01*
Y201671D01*
Y201685D01*
Y201699D01*
X289347Y201710D01*
X289266Y201940D01*
X289169Y202084D01*
X289017Y202181D01*
X288790Y202253D01*
X288408D01*
X288402Y202256D01*
X288394Y202258D01*
X288383Y202264D01*
X288369Y202272D01*
X288355Y202283D01*
X288341Y202297D01*
X288327Y202316D01*
Y202319D01*
X288325Y202322D01*
X288322Y202336D01*
X288319Y202355D01*
X288316Y202372D01*
Y202375D01*
Y202380D01*
X288319Y202389D01*
Y202397D01*
X288327Y202422D01*
X288341Y202447D01*
X289028Y203292D01*
X288009D01*
X288000Y203294D01*
X287992Y203300D01*
X287978Y203308D01*
X287965Y203319D01*
X287951Y203330D01*
X287940Y203350D01*
X287929Y203369D01*
Y203560D01*
Y203563D01*
X287934Y203571D01*
X287937Y203580D01*
X287945Y203593D01*
X287967Y203621D01*
X287978Y203632D01*
X287995Y203643D01*
X288034Y203649D01*
X289325Y203654D01*
X289469D01*
X289485Y203652D01*
D02*
G37*
G36*
X286851D02*
X286870Y203646D01*
X286890Y203638D01*
X286912Y203624D01*
X286929Y203607D01*
X286942Y203582D01*
X286945Y203580D01*
X286951Y203569D01*
X286953Y203552D01*
X286956Y203535D01*
Y203533D01*
Y203530D01*
X286953Y203513D01*
X286948Y203494D01*
X286934Y203474D01*
X286233Y202599D01*
X286635Y202477D01*
X286638Y202474D01*
X286643Y202472D01*
X286651Y202463D01*
X286663Y202452D01*
X286693Y202422D01*
X286732Y202383D01*
X286779Y202336D01*
X286829Y202283D01*
X286884Y202228D01*
X286942Y202170D01*
Y202167D01*
X286945Y202158D01*
X286951Y202142D01*
X286959Y202117D01*
X286970Y202084D01*
X286976Y202064D01*
X286984Y202039D01*
X286995Y202014D01*
X287003Y201984D01*
X287014Y201954D01*
X287028Y201918D01*
Y201915D01*
X287031Y201912D01*
X287034Y201904D01*
X287036Y201893D01*
X287048Y201862D01*
X287059Y201826D01*
X287067Y201782D01*
X287078Y201737D01*
X287084Y201690D01*
X287086Y201646D01*
Y201643D01*
Y201638D01*
Y201624D01*
X287084Y201607D01*
Y201605D01*
Y201593D01*
Y201580D01*
Y201563D01*
X286942Y201150D01*
X286940Y201148D01*
X286937Y201145D01*
X286929Y201136D01*
X286917Y201123D01*
X286887Y201092D01*
X286848Y201053D01*
X286801Y201006D01*
X286751Y200956D01*
X286696Y200901D01*
X286638Y200843D01*
X286200Y200704D01*
X285768D01*
X285352Y200848D01*
X285189Y201009D01*
X285039Y201308D01*
Y201311D01*
Y201322D01*
X285042Y201336D01*
Y201353D01*
X285051Y201389D01*
X285056Y201408D01*
X285064Y201422D01*
X285067Y201425D01*
X285070Y201427D01*
X285078Y201433D01*
X285086Y201441D01*
X285100Y201447D01*
X285117Y201452D01*
X285136Y201455D01*
X285161Y201458D01*
X285170D01*
X285183Y201452D01*
X285236D01*
X285247Y201455D01*
X285258Y201458D01*
X285286D01*
X285302Y201455D01*
X285322Y201449D01*
X285341Y201441D01*
X285364Y201427D01*
X285380Y201411D01*
X285394Y201386D01*
X285480Y201222D01*
X285483Y201220D01*
X285491Y201214D01*
X285505Y201203D01*
X285521Y201189D01*
X285546Y201175D01*
X285574Y201161D01*
X285607Y201145D01*
X285646Y201131D01*
X285651Y201128D01*
X285665Y201125D01*
X285685Y201117D01*
X285710Y201112D01*
X285740Y201100D01*
X285771Y201092D01*
X285801Y201081D01*
X285829Y201073D01*
X286172D01*
X286397Y201150D01*
X286532Y201244D01*
X286640Y201402D01*
Y201405D01*
Y201408D01*
X286643Y201416D01*
X286646Y201430D01*
X286651Y201447D01*
X286660Y201469D01*
X286668Y201497D01*
X286682Y201530D01*
X286685Y201533D01*
X286687Y201544D01*
X286693Y201560D01*
X286699Y201580D01*
X286710Y201624D01*
X286715Y201646D01*
Y201665D01*
Y201668D01*
Y201671D01*
Y201685D01*
Y201699D01*
X286712Y201710D01*
X286632Y201940D01*
X286535Y202084D01*
X286383Y202181D01*
X286156Y202253D01*
X285773D01*
X285768Y202256D01*
X285760Y202258D01*
X285749Y202264D01*
X285735Y202272D01*
X285721Y202283D01*
X285707Y202297D01*
X285693Y202316D01*
Y202319D01*
X285690Y202322D01*
X285688Y202336D01*
X285685Y202355D01*
X285682Y202372D01*
Y202375D01*
Y202380D01*
X285685Y202389D01*
Y202397D01*
X285693Y202422D01*
X285707Y202447D01*
X286394Y203292D01*
X285374D01*
X285366Y203294D01*
X285358Y203300D01*
X285344Y203308D01*
X285330Y203319D01*
X285316Y203330D01*
X285305Y203350D01*
X285294Y203369D01*
Y203560D01*
Y203563D01*
X285300Y203571D01*
X285302Y203580D01*
X285311Y203593D01*
X285333Y203621D01*
X285344Y203632D01*
X285361Y203643D01*
X285400Y203649D01*
X286690Y203654D01*
X286834D01*
X286851Y203652D01*
D02*
G37*
G36*
X297396Y203643D02*
X297405D01*
X297416Y203641D01*
X297427Y203638D01*
X297441Y203632D01*
X297452Y203621D01*
X297463Y203610D01*
X297471Y203593D01*
Y203591D01*
X297474Y203585D01*
X297477Y203574D01*
X297479Y203563D01*
X297482Y203546D01*
X297485Y203527D01*
X297488Y203483D01*
Y203375D01*
Y203372D01*
X297485Y203363D01*
X297479Y203355D01*
X297474Y203341D01*
X297463Y203327D01*
X297452Y203314D01*
X297435Y203300D01*
X297416Y203289D01*
X297369Y203280D01*
X296072D01*
Y202363D01*
X296754D01*
X296759Y202361D01*
X296767Y202358D01*
X296781Y202352D01*
X296793Y202344D01*
X296806Y202330D01*
X296820Y202314D01*
X296834Y202294D01*
Y202291D01*
X296837Y202286D01*
Y202278D01*
X296840Y202267D01*
X296842Y202250D01*
Y202233D01*
X296845Y202211D01*
Y202186D01*
Y202184D01*
Y202175D01*
Y202161D01*
Y202145D01*
X296842Y202106D01*
Y202086D01*
X296840Y202070D01*
Y202067D01*
X296837Y202064D01*
X296834Y202056D01*
X296829Y202045D01*
X296820Y202037D01*
X296809Y202026D01*
X296793Y202014D01*
X296773Y202003D01*
X296726Y201995D01*
X296072D01*
Y200801D01*
Y200799D01*
X296070Y200790D01*
X296067Y200779D01*
X296058Y200768D01*
X296042Y200740D01*
X296028Y200729D01*
X296011Y200721D01*
X296009D01*
X296003Y200718D01*
X295992Y200715D01*
X295978Y200713D01*
X295961Y200710D01*
X295939Y200707D01*
X295917Y200704D01*
X295779D01*
X295773Y200707D01*
X295765Y200713D01*
X295754Y200721D01*
X295740Y200732D01*
X295726Y200746D01*
X295712Y200763D01*
X295701Y200785D01*
Y200859D01*
Y203557D01*
Y203560D01*
X295704Y203569D01*
X295709Y203580D01*
X295721Y203593D01*
X295732Y203610D01*
X295748Y203624D01*
X295770Y203638D01*
X295795Y203649D01*
X297396Y203643D01*
D02*
G37*
G36*
X291488D02*
X291909Y203502D01*
X291945Y203466D01*
X292216Y203059D01*
X292352Y202361D01*
Y201959D01*
X292211Y201286D01*
X291931Y200859D01*
X291884Y200834D01*
X291471Y200704D01*
X291167Y200713D01*
X290754Y200848D01*
X290712Y200884D01*
X290446Y201289D01*
X290308Y201987D01*
Y202408D01*
X290441Y203062D01*
X290732Y203488D01*
X290768Y203516D01*
X291189Y203646D01*
X291488Y203643D01*
D02*
G37*
G36*
X163959Y171116D02*
X163968Y171110D01*
X163981Y171105D01*
X163995Y171093D01*
X164009Y171082D01*
X164023Y171066D01*
X164034Y171046D01*
X164042Y170999D01*
Y169703D01*
X164959D01*
Y170384D01*
X164962Y170390D01*
X164965Y170398D01*
X164970Y170412D01*
X164979Y170423D01*
X164992Y170437D01*
X165009Y170451D01*
X165029Y170465D01*
X165031D01*
X165037Y170467D01*
X165045D01*
X165056Y170470D01*
X165073Y170473D01*
X165089D01*
X165112Y170476D01*
X165137D01*
X165139D01*
X165148D01*
X165162D01*
X165178D01*
X165217Y170473D01*
X165236D01*
X165253Y170470D01*
X165256D01*
X165259Y170467D01*
X165267Y170465D01*
X165278Y170459D01*
X165286Y170451D01*
X165297Y170440D01*
X165308Y170423D01*
X165319Y170404D01*
X165328Y170357D01*
Y169703D01*
X166522D01*
X166524D01*
X166533Y169700D01*
X166544Y169697D01*
X166555Y169689D01*
X166583Y169673D01*
X166594Y169659D01*
X166602Y169642D01*
Y169639D01*
X166605Y169634D01*
X166607Y169623D01*
X166610Y169609D01*
X166613Y169592D01*
X166616Y169570D01*
X166619Y169548D01*
Y169409D01*
X166616Y169404D01*
X166610Y169395D01*
X166602Y169384D01*
X166591Y169371D01*
X166577Y169357D01*
X166560Y169343D01*
X166538Y169332D01*
X166463D01*
X163765D01*
X163763D01*
X163754Y169335D01*
X163743Y169340D01*
X163729Y169351D01*
X163713Y169362D01*
X163699Y169379D01*
X163685Y169401D01*
X163674Y169426D01*
X163680Y171027D01*
Y171035D01*
X163682Y171046D01*
X163685Y171057D01*
X163691Y171071D01*
X163702Y171082D01*
X163713Y171093D01*
X163729Y171102D01*
X163732D01*
X163738Y171105D01*
X163749Y171107D01*
X163760Y171110D01*
X163777Y171113D01*
X163796Y171116D01*
X163840Y171118D01*
X163948D01*
X163951D01*
X163959Y171116D01*
D02*
G37*
G36*
X166538Y168484D02*
X166549Y168479D01*
X166563Y168470D01*
X166588Y168451D01*
X166596Y168437D01*
X166605Y168423D01*
Y168421D01*
X166607Y168418D01*
X166610Y168409D01*
Y168398D01*
X166613Y168382D01*
X166616Y168365D01*
X166619Y168346D01*
Y168276D01*
X166616Y168240D01*
X166613Y168224D01*
X166610Y168207D01*
Y168204D01*
X166605Y168196D01*
X166599Y168182D01*
X166591Y168168D01*
X166580Y168155D01*
X166569Y168141D01*
X166552Y168130D01*
X166535Y168124D01*
X166533D01*
X166519D01*
X166497Y168121D01*
X166466D01*
X166447D01*
X166422D01*
X166397Y168119D01*
X166369D01*
X166339D01*
X166303D01*
X166267D01*
X166225D01*
X166222D01*
X166474Y167916D01*
X166619Y167620D01*
X166613Y167171D01*
X166463Y166867D01*
X166425Y166839D01*
X166001Y166700D01*
X164671D01*
X164666Y166703D01*
X164655Y166706D01*
X164641Y166714D01*
X164621Y166728D01*
X164605Y166745D01*
X164588Y166770D01*
X164577Y166800D01*
X164574Y166836D01*
Y166853D01*
X164577Y166864D01*
Y166878D01*
X164580Y166894D01*
Y166902D01*
X164583Y166914D01*
Y166925D01*
X164585Y166955D01*
X164588Y166991D01*
Y166994D01*
X164591Y166999D01*
X164594Y167008D01*
X164596Y167019D01*
X164605Y167030D01*
X164616Y167041D01*
X164630Y167052D01*
X164649Y167060D01*
X164696Y167071D01*
X165962D01*
X166156Y167174D01*
X166250Y167371D01*
Y167573D01*
X166247Y167576D01*
X166242Y167584D01*
X166236Y167598D01*
X166228Y167614D01*
X166217Y167634D01*
X166203Y167659D01*
X166186Y167689D01*
X166167Y167722D01*
X166145Y167761D01*
X166117Y167808D01*
X166087Y167858D01*
X166051Y167914D01*
X166012Y167974D01*
X165968Y168044D01*
X165918Y168119D01*
X164671D01*
X164669D01*
X164660Y168121D01*
X164649Y168124D01*
X164635Y168130D01*
X164610Y168146D01*
X164599Y168160D01*
X164591Y168174D01*
Y168177D01*
X164588Y168182D01*
X164585Y168193D01*
X164583Y168207D01*
X164580Y168224D01*
X164577Y168246D01*
X164574Y168268D01*
Y168337D01*
X164577Y168373D01*
X164583Y168412D01*
Y168415D01*
X164585Y168421D01*
X164594Y168437D01*
X164599Y168448D01*
X164613Y168459D01*
X164627Y168470D01*
X164646Y168479D01*
X164693Y168490D01*
X166530D01*
X166533D01*
X166538Y168484D01*
D02*
G37*
G36*
X166037Y165842D02*
X166463Y165562D01*
X166488Y165515D01*
X166619Y165102D01*
X166610Y164797D01*
X166474Y164385D01*
X166438Y164343D01*
X166034Y164077D01*
X165336Y163939D01*
X164915D01*
X164261Y164072D01*
X163835Y164362D01*
X163807Y164399D01*
X163677Y164820D01*
X163680Y165119D01*
X163821Y165540D01*
X163857Y165576D01*
X164264Y165847D01*
X164962Y165983D01*
X165364D01*
X166037Y165842D01*
D02*
G37*
G36*
Y163207D02*
X166463Y162928D01*
X166488Y162881D01*
X166619Y162468D01*
X166610Y162163D01*
X166474Y161750D01*
X166438Y161709D01*
X166034Y161443D01*
X165336Y161304D01*
X164915D01*
X164261Y161437D01*
X163835Y161728D01*
X163807Y161764D01*
X163677Y162185D01*
X163680Y162484D01*
X163821Y162905D01*
X163857Y162941D01*
X164264Y163213D01*
X164962Y163349D01*
X165364D01*
X166037Y163207D01*
D02*
G37*
G36*
X166541Y159941D02*
X166552Y159936D01*
X166566Y159928D01*
X166580Y159917D01*
X166594Y159903D01*
X166607Y159886D01*
X166619Y159864D01*
Y159653D01*
X166616Y159645D01*
X166610Y159634D01*
X166602Y159623D01*
X166591Y159609D01*
X166574Y159595D01*
X166558Y159581D01*
X166535Y159573D01*
X166452D01*
X164289D01*
X164411Y159501D01*
X164552Y159202D01*
Y159188D01*
X164549Y159174D01*
Y159158D01*
X164538Y159122D01*
X164533Y159105D01*
X164522Y159088D01*
X164519D01*
X164513Y159083D01*
X164505Y159077D01*
X164491Y159072D01*
X164472Y159066D01*
X164447Y159061D01*
X164414Y159058D01*
X164375Y159055D01*
X164330D01*
X164325D01*
X164314D01*
X164300Y159058D01*
X164278Y159063D01*
X164259Y159069D01*
X164236Y159080D01*
X164217Y159097D01*
X164203Y159116D01*
X164078Y159360D01*
X163693Y159750D01*
X163691Y159756D01*
X163680Y159767D01*
X163671Y159789D01*
X163669Y159820D01*
Y159828D01*
X163671Y159836D01*
X163674Y159845D01*
X163682Y159872D01*
X163693Y159886D01*
X163705Y159903D01*
X163707Y159906D01*
X163710Y159908D01*
X163718Y159917D01*
X163729Y159925D01*
X163760Y159939D01*
X163777Y159941D01*
X163799Y159944D01*
X166533D01*
X166535D01*
X166541Y159941D01*
D02*
G37*
%LPC*%
G36*
X111557Y124702D02*
X109822D01*
Y123307D01*
X111557D01*
Y124702D01*
D02*
G37*
G36*
X235269Y137142D02*
X234575D01*
X234554Y137139D01*
X234526Y137132D01*
X234495Y137121D01*
X234461Y137097D01*
X234433Y137066D01*
X234422Y137045D01*
X234412Y137021D01*
X234409Y136993D01*
X234405Y136962D01*
Y136504D01*
Y136500D01*
Y136493D01*
Y136483D01*
X234409Y136469D01*
X234416Y136434D01*
X234426Y136396D01*
X234447Y136361D01*
X234478Y136334D01*
X234499Y136323D01*
X234523Y136316D01*
X234547D01*
X234579Y136320D01*
X235283D01*
X235293Y136316D01*
X235307D01*
X235338Y136320D01*
X235377Y136327D01*
X235411Y136344D01*
X235429Y136358D01*
X235443Y136375D01*
X235450Y136400D01*
X235456Y136424D01*
Y136455D01*
X235453Y136493D01*
Y136969D01*
Y136972D01*
Y136976D01*
X235456Y136996D01*
X235453Y137024D01*
X235446Y137055D01*
X235436Y137073D01*
X235425Y137087D01*
X235411Y137101D01*
X235391Y137114D01*
X235370Y137125D01*
X235342Y137135D01*
X235307Y137139D01*
X235269Y137142D01*
D02*
G37*
G36*
X231688Y138024D02*
X230435D01*
Y137201D01*
X231869D01*
Y137850D01*
Y137854D01*
Y137857D01*
X231872Y137878D01*
X231869Y137906D01*
X231862Y137937D01*
X231841Y137968D01*
X231827Y137982D01*
X231809Y137996D01*
X231785Y138006D01*
X231757Y138017D01*
X231726Y138020D01*
X231688Y138024D01*
D02*
G37*
G36*
X230106D02*
X228846D01*
X228825Y138020D01*
X228798Y138013D01*
X228766Y138003D01*
X228732Y137978D01*
X228704Y137947D01*
X228694Y137926D01*
X228683Y137902D01*
X228680Y137874D01*
X228676Y137843D01*
Y137201D01*
X230106D01*
Y138024D01*
D02*
G37*
G36*
X231869Y136875D02*
X230435D01*
Y135900D01*
X231698D01*
X231709Y135897D01*
X231723D01*
X231754Y135900D01*
X231792Y135907D01*
X231827Y135924D01*
X231844Y135938D01*
X231858Y135955D01*
X231865Y135980D01*
X231872Y136004D01*
Y136035D01*
X231869Y136073D01*
Y136875D01*
D02*
G37*
G36*
X230106D02*
X228676D01*
Y136080D01*
Y136077D01*
Y136070D01*
Y136059D01*
X228680Y136046D01*
X228686Y136014D01*
X228697Y135976D01*
X228718Y135942D01*
X228749Y135914D01*
X228770Y135903D01*
X228794Y135897D01*
X228818D01*
X228850Y135900D01*
X230106D01*
Y136875D01*
D02*
G37*
G36*
X113543Y157456D02*
X112731D01*
X112710Y157452D01*
X112682Y157445D01*
X112651Y157435D01*
X112616Y157411D01*
X112588Y157379D01*
X112578Y157358D01*
X112567Y157334D01*
X112564Y157306D01*
X112560Y157275D01*
Y156893D01*
Y156890D01*
Y156883D01*
Y156873D01*
X112564Y156859D01*
X112571Y156827D01*
X112581Y156789D01*
X112602Y156755D01*
X112633Y156727D01*
X112654Y156717D01*
X112679Y156710D01*
X112703D01*
X112734Y156713D01*
X113518D01*
X113529Y156710D01*
X113543D01*
X113574Y156713D01*
X113612Y156720D01*
X113647Y156737D01*
X113661Y156751D01*
X113674Y156769D01*
X113681Y156793D01*
X113688Y156817D01*
Y156848D01*
X113685Y156886D01*
Y157320D01*
Y157327D01*
X113688Y157341D01*
X113685Y157362D01*
X113678Y157390D01*
X113657Y157414D01*
X113643Y157424D01*
X113626Y157435D01*
X113602Y157442D01*
X113574Y157449D01*
X113543Y157456D01*
D02*
G37*
G36*
X115573D02*
X114799D01*
X114778Y157452D01*
X114750Y157445D01*
X114719Y157435D01*
X114684Y157411D01*
X114656Y157379D01*
X114646Y157358D01*
X114636Y157334D01*
X114632Y157306D01*
X114629Y157275D01*
Y156893D01*
Y156890D01*
Y156883D01*
Y156873D01*
X114632Y156859D01*
X114639Y156827D01*
X114649Y156789D01*
X114670Y156755D01*
X114701Y156727D01*
X114722Y156717D01*
X114747Y156710D01*
X114771D01*
X114802Y156713D01*
X115583D01*
X115593Y156710D01*
X115607D01*
X115638Y156713D01*
X115677Y156720D01*
X115711Y156737D01*
X115729Y156751D01*
X115743Y156769D01*
X115750Y156793D01*
X115756Y156817D01*
Y156848D01*
X115753Y156886D01*
Y157282D01*
Y157285D01*
Y157289D01*
X115756Y157310D01*
X115753Y157338D01*
X115746Y157369D01*
X115725Y157400D01*
X115711Y157414D01*
X115694Y157428D01*
X115670Y157438D01*
X115642Y157449D01*
X115611Y157452D01*
X115573Y157456D01*
D02*
G37*
G36*
X115166Y156404D02*
X115128D01*
X115094Y156394D01*
X115075Y156387D01*
X115233D01*
X115229Y156390D01*
X115215Y156397D01*
X115212Y156401D01*
X115166Y156404D01*
D02*
G37*
G36*
X115684Y154945D02*
X115781Y154905D01*
X115847Y154881D01*
X115909Y154860D01*
X115954Y154843D01*
X115930Y154860D01*
X115881Y154888D01*
X115829Y154909D01*
X115781Y154922D01*
X115736Y154936D01*
X115697Y154943D01*
X115684Y154945D01*
D02*
G37*
G36*
X115534Y154624D02*
X114858D01*
X114844Y154621D01*
X114802Y154610D01*
X114757Y154593D01*
X114733Y154579D01*
X114708Y154562D01*
X114688Y154541D01*
X114667Y154516D01*
X114653Y154485D01*
X114639Y154451D01*
X114632Y154412D01*
X114629Y154367D01*
Y153909D01*
Y153906D01*
Y153895D01*
X114632Y153882D01*
Y153864D01*
X114643Y153819D01*
X114660Y153767D01*
X114674Y153743D01*
X114691Y153718D01*
X114712Y153694D01*
X114736Y153677D01*
X114764Y153663D01*
X114799Y153653D01*
X114837Y153649D01*
X114882Y153653D01*
X115576D01*
X115624Y153656D01*
X115677Y153670D01*
X115701Y153680D01*
X115725Y153698D01*
X115750Y153718D01*
X115767Y153743D01*
X115781Y153774D01*
X115791Y153812D01*
X115795Y153854D01*
X115791Y153906D01*
Y154371D01*
Y154374D01*
Y154381D01*
Y154395D01*
Y154409D01*
X115788Y154451D01*
X115774Y154499D01*
X115760Y154520D01*
X115746Y154544D01*
X115725Y154565D01*
X115697Y154586D01*
X115666Y154600D01*
X115631Y154614D01*
X115586Y154621D01*
X115534Y154624D01*
D02*
G37*
G36*
X113352D02*
X112790D01*
X112776Y154621D01*
X112734Y154610D01*
X112689Y154593D01*
X112665Y154579D01*
X112640Y154562D01*
X112619Y154541D01*
X112599Y154516D01*
X112585Y154485D01*
X112571Y154451D01*
X112564Y154412D01*
X112560Y154367D01*
Y153909D01*
Y153906D01*
Y153895D01*
X112564Y153882D01*
Y153864D01*
X112574Y153819D01*
X112592Y153767D01*
X112606Y153743D01*
X112623Y153718D01*
X112644Y153694D01*
X112668Y153677D01*
X112696Y153663D01*
X112731Y153653D01*
X112769Y153649D01*
X112814Y153653D01*
X113397D01*
X113442Y153656D01*
X113494Y153670D01*
X113522Y153680D01*
X113543Y153698D01*
X113567Y153718D01*
X113584Y153743D01*
X113598Y153774D01*
X113609Y153812D01*
X113612Y153854D01*
X113609Y153906D01*
Y154371D01*
Y154374D01*
Y154381D01*
Y154395D01*
Y154409D01*
X113605Y154451D01*
X113591Y154499D01*
X113577Y154520D01*
X113563Y154544D01*
X113543Y154565D01*
X113515Y154586D01*
X113484Y154600D01*
X113449Y154614D01*
X113404Y154621D01*
X113352Y154624D01*
D02*
G37*
G36*
X115153Y171488D02*
X113900D01*
Y170666D01*
X115333D01*
Y171315D01*
Y171318D01*
Y171322D01*
X115337Y171342D01*
X115333Y171370D01*
X115326Y171401D01*
X115305Y171433D01*
X115291Y171447D01*
X115274Y171460D01*
X115250Y171471D01*
X115222Y171481D01*
X115191Y171485D01*
X115153Y171488D01*
D02*
G37*
G36*
X113570D02*
X112311D01*
X112290Y171485D01*
X112262Y171478D01*
X112231Y171467D01*
X112196Y171443D01*
X112168Y171412D01*
X112158Y171391D01*
X112148Y171367D01*
X112144Y171339D01*
X112141Y171308D01*
Y170666D01*
X113570D01*
Y171488D01*
D02*
G37*
G36*
X115333Y170340D02*
X113900D01*
Y169365D01*
X115163D01*
X115173Y169361D01*
X115187D01*
X115219Y169365D01*
X115257Y169371D01*
X115291Y169389D01*
X115309Y169403D01*
X115323Y169420D01*
X115330Y169444D01*
X115337Y169469D01*
Y169500D01*
X115333Y169538D01*
Y170340D01*
D02*
G37*
G36*
X113570D02*
X112141D01*
Y169545D01*
Y169542D01*
Y169535D01*
Y169524D01*
X112144Y169510D01*
X112151Y169479D01*
X112162Y169441D01*
X112182Y169406D01*
X112214Y169378D01*
X112234Y169368D01*
X112259Y169361D01*
X112283D01*
X112314Y169365D01*
X113570D01*
Y170340D01*
D02*
G37*
G36*
X185535Y115756D02*
X184105D01*
Y115499D01*
Y115496D01*
Y115489D01*
Y115478D01*
X184109Y115464D01*
X184116Y115433D01*
X184126Y115395D01*
X184147Y115360D01*
X184178Y115332D01*
X184199Y115322D01*
X184223Y115315D01*
X184248D01*
X184279Y115319D01*
X185368D01*
X185379Y115315D01*
X185393D01*
X185424Y115319D01*
X185462Y115325D01*
X185497Y115343D01*
X185511Y115357D01*
X185524Y115374D01*
X185531Y115398D01*
X185538Y115423D01*
Y115454D01*
X185535Y115492D01*
Y115756D01*
D02*
G37*
G36*
X185858Y114378D02*
X183952D01*
X183956Y114375D01*
X183966Y114364D01*
X183987Y114344D01*
X184011Y114319D01*
X184043Y114288D01*
X184081Y114253D01*
X184126Y114212D01*
X184178Y114163D01*
X184237Y114114D01*
X184300Y114059D01*
X184369Y114000D01*
X184442Y113938D01*
X184522Y113875D01*
X184605Y113809D01*
X184692Y113743D01*
X184785Y113674D01*
X184789D01*
X184792Y113677D01*
X184813Y113688D01*
X184844Y113705D01*
X184889Y113726D01*
X184941Y113754D01*
X185004Y113788D01*
X185073Y113827D01*
X185150Y113872D01*
X185233Y113917D01*
X185316Y113969D01*
X185406Y114024D01*
X185497Y114083D01*
X185677Y114212D01*
X185767Y114278D01*
X185854Y114347D01*
X185858D01*
X185868Y114350D01*
X185878Y114357D01*
X185889Y114364D01*
Y114368D01*
X185885Y114371D01*
X185882Y114375D01*
X185871D01*
X185858Y114378D01*
D02*
G37*
G36*
X185969Y125096D02*
X184199D01*
X184178Y125092D01*
X184150Y125085D01*
X184119Y125075D01*
X184084Y125051D01*
X184057Y125019D01*
X184046Y124999D01*
X184036Y124974D01*
X184032Y124947D01*
X184029Y124915D01*
Y124582D01*
X186149D01*
Y124922D01*
Y124926D01*
Y124929D01*
X186153Y124950D01*
X186149Y124978D01*
X186142Y125009D01*
X186121Y125040D01*
X186107Y125054D01*
X186090Y125068D01*
X186066Y125078D01*
X186038Y125089D01*
X186007Y125092D01*
X185969Y125096D01*
D02*
G37*
G36*
X186149Y124256D02*
X184029D01*
Y123919D01*
Y123916D01*
Y123909D01*
Y123899D01*
X184032Y123885D01*
X184039Y123854D01*
X184050Y123815D01*
X184071Y123781D01*
X184102Y123753D01*
X184123Y123742D01*
X184147Y123735D01*
X184171D01*
X184202Y123739D01*
X185979D01*
X185989Y123735D01*
X186003D01*
X186035Y123739D01*
X186073Y123746D01*
X186107Y123763D01*
X186125Y123777D01*
X186139Y123794D01*
X186146Y123819D01*
X186153Y123843D01*
Y123874D01*
X186149Y123913D01*
Y124256D01*
D02*
G37*
G36*
X186121Y122684D02*
X185712D01*
Y121369D01*
X186302D01*
Y122511D01*
Y122514D01*
Y122518D01*
X186305Y122538D01*
X186302Y122566D01*
X186295Y122597D01*
X186274Y122629D01*
X186260Y122643D01*
X186243Y122656D01*
X186218Y122667D01*
X186191Y122677D01*
X186159Y122681D01*
X186121Y122684D01*
D02*
G37*
G36*
X185382D02*
X184796D01*
Y121369D01*
X185382D01*
Y122684D01*
D02*
G37*
G36*
X184463D02*
X184046D01*
X184025Y122681D01*
X183998Y122674D01*
X183966Y122663D01*
X183932Y122639D01*
X183904Y122608D01*
X183894Y122587D01*
X183883Y122563D01*
X183880Y122535D01*
X183876Y122504D01*
Y121369D01*
X184463D01*
Y122684D01*
D02*
G37*
G36*
X166245Y124530D02*
X165641D01*
X165279Y124414D01*
X164943Y124184D01*
X164830Y123865D01*
Y123635D01*
X164946Y123311D01*
X165270Y123092D01*
X165625Y122970D01*
X166226D01*
X166575Y123081D01*
X166927Y123317D01*
X167032Y123633D01*
Y123846D01*
X166927Y124184D01*
X166592Y124408D01*
X166245Y124530D01*
D02*
G37*
G36*
X165456Y118478D02*
X165129D01*
X164929Y118378D01*
X164830Y118181D01*
Y117300D01*
X165747D01*
Y118173D01*
X165650Y118378D01*
X165456Y118478D01*
D02*
G37*
G36*
X235241Y190246D02*
X234637D01*
X234275Y190130D01*
X233940Y189900D01*
X233826Y189581D01*
Y189351D01*
X233942Y189027D01*
X234266Y188808D01*
X234621Y188686D01*
X235222D01*
X235571Y188797D01*
X235923Y189033D01*
X236028Y189348D01*
Y189562D01*
X235923Y189900D01*
X235588Y190124D01*
X235241Y190246D01*
D02*
G37*
G36*
X156670Y152887D02*
X156443D01*
X156177Y152793D01*
X156033Y152582D01*
X155909Y151975D01*
Y151621D01*
X156033Y150995D01*
X156183Y150773D01*
X156443Y150684D01*
X156659D01*
X156942Y150770D01*
X157092Y150992D01*
X157211Y151588D01*
Y151942D01*
X157086Y152574D01*
X156939Y152795D01*
X156670Y152887D01*
D02*
G37*
G36*
X151532D02*
X150765D01*
Y151970D01*
X151513D01*
X151845Y152078D01*
X151942Y152261D01*
Y152590D01*
X151842Y152779D01*
X151532Y152887D01*
D02*
G37*
G36*
X129899Y130446D02*
X129672D01*
X129406Y130352D01*
X129262Y130141D01*
X129137Y129534D01*
Y129180D01*
X129262Y128554D01*
X129411Y128332D01*
X129672Y128244D01*
X129888D01*
X130170Y128330D01*
X130320Y128551D01*
X130439Y129147D01*
Y129501D01*
X130314Y130133D01*
X130168Y130354D01*
X129899Y130446D01*
D02*
G37*
G36*
X124760D02*
X123993D01*
Y129529D01*
X124741D01*
X125074Y129637D01*
X125171Y129820D01*
Y130149D01*
X125071Y130338D01*
X124760Y130446D01*
D02*
G37*
G36*
X266493Y121784D02*
X265725D01*
Y120868D01*
X266473D01*
X266806Y120975D01*
X266903Y121158D01*
Y121488D01*
X266803Y121676D01*
X266493Y121784D01*
D02*
G37*
G36*
X235166Y209186D02*
X234939D01*
X234673Y209092D01*
X234529Y208881D01*
X234404Y208275D01*
Y207920D01*
X234529Y207294D01*
X234678Y207072D01*
X234939Y206984D01*
X235155D01*
X235437Y207070D01*
X235587Y207291D01*
X235706Y207887D01*
Y208241D01*
X235581Y208873D01*
X235434Y209095D01*
X235166Y209186D01*
D02*
G37*
G36*
X232531D02*
X232304D01*
X232038Y209092D01*
X231894Y208881D01*
X231770Y208275D01*
Y207920D01*
X231894Y207294D01*
X232044Y207072D01*
X232304Y206984D01*
X232520D01*
X232803Y207070D01*
X232952Y207291D01*
X233072Y207887D01*
Y208241D01*
X232947Y208873D01*
X232800Y209095D01*
X232531Y209186D01*
D02*
G37*
G36*
X228446D02*
X228219D01*
X227953Y209092D01*
X227809Y208881D01*
X227684Y208275D01*
Y207920D01*
X227809Y207294D01*
X227958Y207072D01*
X228219Y206984D01*
X228435D01*
X228717Y207070D01*
X228867Y207291D01*
X228986Y207887D01*
Y208241D01*
X228861Y208873D01*
X228714Y209095D01*
X228446Y209186D01*
D02*
G37*
G36*
X225942D02*
X225174D01*
Y208269D01*
X225922D01*
X226255Y208377D01*
X226352Y208560D01*
Y208890D01*
X226252Y209078D01*
X225942Y209186D01*
D02*
G37*
G36*
X317449Y174934D02*
X317222D01*
X316956Y174840D01*
X316812Y174629D01*
X316687Y174023D01*
Y173668D01*
X316812Y173042D01*
X316962Y172820D01*
X317222Y172732D01*
X317438D01*
X317721Y172818D01*
X317870Y173039D01*
X317989Y173635D01*
Y173989D01*
X317865Y174621D01*
X317718Y174843D01*
X317449Y174934D01*
D02*
G37*
G36*
X314815D02*
X314588D01*
X314322Y174840D01*
X314178Y174629D01*
X314053Y174023D01*
Y173668D01*
X314178Y173042D01*
X314327Y172820D01*
X314588Y172732D01*
X314804D01*
X315086Y172818D01*
X315236Y173039D01*
X315355Y173635D01*
Y173989D01*
X315230Y174621D01*
X315084Y174843D01*
X314815Y174934D01*
D02*
G37*
G36*
X310729D02*
X310502D01*
X310236Y174840D01*
X310092Y174629D01*
X309967Y174023D01*
Y173668D01*
X310092Y173042D01*
X310242Y172820D01*
X310502Y172732D01*
X310718D01*
X311001Y172818D01*
X311150Y173039D01*
X311269Y173635D01*
Y173989D01*
X311145Y174621D01*
X310998Y174843D01*
X310729Y174934D01*
D02*
G37*
G36*
X308225D02*
X307458D01*
Y174017D01*
X308206D01*
X308538Y174125D01*
X308635Y174308D01*
Y174638D01*
X308535Y174826D01*
X308225Y174934D01*
D02*
G37*
G36*
X194544Y135662D02*
X193777D01*
Y134745D01*
X194525D01*
X194857Y134853D01*
X194954Y135036D01*
Y135366D01*
X194854Y135554D01*
X194544Y135662D01*
D02*
G37*
G36*
X311412Y123950D02*
X311182D01*
X310858Y123833D01*
X310639Y123509D01*
X310518Y123155D01*
Y122554D01*
X310628Y122205D01*
X310864Y121853D01*
X311180Y121748D01*
X311393D01*
X311731Y121853D01*
X311955Y122188D01*
X312077Y122534D01*
Y123138D01*
X311961Y123501D01*
X311731Y123836D01*
X311412Y123950D01*
D02*
G37*
G36*
X315164Y198950D02*
X314529D01*
Y196742D01*
X315144D01*
X315499Y196853D01*
X315596Y196944D01*
Y196947D01*
X315599Y196950D01*
X315604Y196958D01*
X315610Y196969D01*
X315615Y196983D01*
X315626Y197005D01*
X315637Y197030D01*
X315649Y197058D01*
X315665Y197094D01*
X315682Y197135D01*
X315701Y197185D01*
X315723Y197241D01*
X315748Y197301D01*
X315773Y197374D01*
X315804Y197451D01*
X315834Y197537D01*
Y198135D01*
Y198138D01*
X315831Y198141D01*
X315828Y198149D01*
X315826Y198160D01*
X315817Y198188D01*
X315804Y198224D01*
X315790Y198271D01*
X315770Y198324D01*
X315751Y198382D01*
X315729Y198446D01*
Y198448D01*
X315726Y198454D01*
X315723Y198462D01*
X315718Y198476D01*
X315707Y198506D01*
X315690Y198548D01*
X315671Y198592D01*
X315649Y198640D01*
X315623Y198689D01*
X315599Y198734D01*
X315499Y198831D01*
X315164Y198950D01*
D02*
G37*
G36*
X291441Y203280D02*
X291214D01*
X290948Y203186D01*
X290804Y202976D01*
X290679Y202369D01*
Y202014D01*
X290804Y201389D01*
X290953Y201167D01*
X291214Y201078D01*
X291430D01*
X291712Y201164D01*
X291862Y201386D01*
X291981Y201981D01*
Y202336D01*
X291856Y202967D01*
X291709Y203189D01*
X291441Y203280D01*
D02*
G37*
G36*
X165342Y165612D02*
X164987D01*
X164355Y165487D01*
X164134Y165340D01*
X164042Y165072D01*
Y164844D01*
X164137Y164578D01*
X164347Y164435D01*
X164954Y164310D01*
X165308D01*
X165934Y164435D01*
X166156Y164584D01*
X166245Y164844D01*
Y165060D01*
X166159Y165343D01*
X165937Y165493D01*
X165342Y165612D01*
D02*
G37*
G36*
Y162977D02*
X164987D01*
X164355Y162853D01*
X164134Y162706D01*
X164042Y162437D01*
Y162210D01*
X164137Y161944D01*
X164347Y161800D01*
X164954Y161676D01*
X165308D01*
X165934Y161800D01*
X166156Y161950D01*
X166245Y162210D01*
Y162426D01*
X166159Y162709D01*
X165937Y162858D01*
X165342Y162977D01*
D02*
G37*
%LPD*%
D10*
X240866Y171260D02*
G03*
X240866Y171260I-492J0D01*
G01*
X230197Y201969D02*
G03*
X230197Y201969I-492J0D01*
G01*
X163091Y137858D02*
G03*
X163091Y137858I-492J0D01*
G01*
D11*
X148150Y140020D02*
Y148169D01*
X162087Y140020D02*
Y148169D01*
X156890D02*
X162087D01*
X148150D02*
X153347D01*
X148150Y140020D02*
X153347D01*
X156890D02*
X162087D01*
X309941Y152146D02*
Y157480D01*
Y170689D02*
X319390D01*
X309941Y152146D02*
X319390D01*
Y157480D01*
Y165354D02*
Y170689D01*
X309941Y165354D02*
Y170689D01*
X254331Y203445D02*
X259665D01*
X241122D02*
Y212894D01*
X259665Y203445D02*
Y212894D01*
X254331D02*
X259665D01*
X241122D02*
X246457D01*
X241122Y203445D02*
X246457D01*
X123925Y112031D02*
X132075D01*
X123925Y125969D02*
X132075D01*
X123925Y120772D02*
Y125969D01*
Y112031D02*
Y117228D01*
X132075Y112031D02*
Y117228D01*
Y120772D02*
Y125969D01*
X177382Y130669D02*
Y138819D01*
X191319Y130669D02*
Y138819D01*
X186122D02*
X191319D01*
X177382D02*
X182579D01*
X177382Y130669D02*
X182579D01*
X186122D02*
X191319D01*
X278228Y109705D02*
Y117854D01*
X264291Y109705D02*
Y117854D01*
Y109705D02*
X269488D01*
X273031D02*
X278228D01*
X273031Y117854D02*
X278228D01*
X264291D02*
X269488D01*
X168646Y191720D02*
X200646D01*
Y144720D02*
Y191720D01*
X168646Y144720D02*
X200646D01*
X168646D02*
Y191720D01*
X184646Y144720D02*
Y191720D01*
X168646Y185721D02*
X174646Y191720D01*
X168646Y180720D02*
X179646Y191720D01*
X168646Y175721D02*
X184646Y191720D01*
X168646Y170721D02*
X184646Y186721D01*
X168646Y165720D02*
X184646Y181720D01*
X168646Y160721D02*
X184646Y176720D01*
X168646Y155720D02*
X184646Y171721D01*
X168646Y150721D02*
X184646Y166720D01*
X168646Y145721D02*
X184646Y161721D01*
X172646Y144720D02*
X184646Y156720D01*
X177646Y144720D02*
X184646Y151720D01*
X182646Y144720D02*
X184646Y146721D01*
X191646Y191720D02*
Y195721D01*
X177646Y191720D02*
Y195721D01*
X183661Y205906D02*
X187598D01*
X183661Y211417D02*
X187598D01*
X183661Y205906D02*
Y211417D01*
X187598Y205906D02*
Y211417D01*
X186417Y205906D02*
Y211417D01*
D12*
X275571Y134756D02*
Y135756D01*
X295571Y134756D02*
Y135756D01*
X275571Y130756D02*
Y134756D01*
X295571Y130756D02*
Y134756D01*
X293571Y135756D02*
X300571Y142756D01*
X285571Y137756D02*
X290571Y142756D01*
X285571Y135756D02*
Y137756D01*
Y143756D01*
X300571Y142756D02*
X305571Y147756D01*
X285571Y187756D02*
X295571Y197756D01*
X285571Y177756D02*
X305571Y197756D01*
X285571Y167756D02*
X305571Y187756D01*
X285571Y157756D02*
X305571Y177756D01*
X285571Y147756D02*
X305571Y167756D01*
X290571Y142756D02*
X305571Y157756D01*
X285571Y142756D02*
Y197756D01*
X305571Y135756D02*
Y197756D01*
X265571D02*
X305571D01*
X265571Y135756D02*
Y197756D01*
Y135756D02*
X305571D01*
D13*
X209449Y164104D02*
X223500D01*
X245005D02*
X259056D01*
X245005Y111349D02*
X259055D01*
X209450D02*
X223500D01*
X259055D02*
X259056Y164104D01*
X209449D02*
X209450Y111349D01*
X240256Y174803D02*
Y198425D01*
X260965Y174803D02*
Y198425D01*
X229823Y174803D02*
Y198425D01*
X209114Y174803D02*
Y198425D01*
X162716Y110693D02*
Y134315D01*
X142008Y110693D02*
Y134315D01*
X145157Y141516D02*
Y179036D01*
X107716D02*
X145157D01*
X107716Y141438D02*
Y179036D01*
Y141438D02*
X145000D01*
X264567Y127802D02*
X268566D01*
X266566Y129801D02*
Y125803D01*
X197244Y198275D02*
X201243D01*
X199243Y200274D02*
Y196275D01*
X301575Y127802D02*
X305574D01*
X167323Y198668D02*
X171321D01*
X322835Y106299D02*
Y214567D01*
X106299Y106299D02*
X322835D01*
X106299Y214567D02*
X322835D01*
X106299Y106299D02*
Y214567D01*
Y97244D02*
X112299Y99244D01*
X106299Y97244D02*
X112299Y95244D01*
X316835D02*
X322835Y97244D01*
X316835Y99244D02*
X322835Y97244D01*
X106299D02*
X191873D01*
X234061D02*
X322835D01*
X106299Y96244D02*
Y104799D01*
X322835Y96244D02*
Y104799D01*
X336976Y112299D02*
X338976Y106299D01*
X340976Y112299D01*
X338976Y214567D02*
X340976Y208567D01*
X336976D02*
X338976Y214567D01*
Y106299D02*
Y137739D01*
Y179927D02*
Y214567D01*
X324335Y106299D02*
X339976D01*
X324335Y214567D02*
X339976D01*
D14*
X197472Y99643D02*
X193473D01*
Y96644D01*
X195473Y97644D01*
X196472D01*
X197472Y96644D01*
Y94645D01*
X196472Y93645D01*
X194473D01*
X193473Y94645D01*
X203470Y99643D02*
X199471D01*
Y96644D01*
X201471Y97644D01*
X202470D01*
X203470Y96644D01*
Y94645D01*
X202470Y93645D01*
X200471D01*
X199471Y94645D01*
X205469Y93645D02*
Y94645D01*
X206469D01*
Y93645D01*
X205469D01*
X210468Y98643D02*
X211467Y99643D01*
X213467D01*
X214466Y98643D01*
Y94645D01*
X213467Y93645D01*
X211467D01*
X210468Y94645D01*
Y98643D01*
X216466D02*
X217465Y99643D01*
X219465D01*
X220464Y98643D01*
Y94645D01*
X219465Y93645D01*
X217465D01*
X216466Y94645D01*
Y98643D01*
X222464Y93645D02*
Y97644D01*
X223464D01*
X224463Y96644D01*
Y93645D01*
Y96644D01*
X225463Y97644D01*
X226463Y96644D01*
Y93645D01*
X228462D02*
Y97644D01*
X229462D01*
X230461Y96644D01*
Y93645D01*
Y96644D01*
X231461Y97644D01*
X232461Y96644D01*
Y93645D01*
X342575Y143338D02*
Y139339D01*
X338577Y143338D01*
X337577D01*
X336577Y142338D01*
Y140339D01*
X337577Y139339D01*
X336577Y145337D02*
Y149336D01*
X337577D01*
X341576Y145337D01*
X342575D01*
Y151336D02*
X341576D01*
Y152335D01*
X342575D01*
Y151336D01*
X336577Y160333D02*
Y156334D01*
X339576D01*
X338577Y158333D01*
Y159333D01*
X339576Y160333D01*
X341576D01*
X342575Y159333D01*
Y157334D01*
X341576Y156334D01*
X337577Y162332D02*
X336577Y163332D01*
Y165331D01*
X337577Y166331D01*
X341576D01*
X342575Y165331D01*
Y163332D01*
X341576Y162332D01*
X337577D01*
X342575Y168330D02*
X338577D01*
Y169330D01*
X339576Y170329D01*
X342575D01*
X339576D01*
X338577Y171329D01*
X339576Y172329D01*
X342575D01*
Y174328D02*
X338577D01*
Y175328D01*
X339576Y176327D01*
X342575D01*
X339576D01*
X338577Y177327D01*
X339576Y178327D01*
X342575D01*
M02*
