G04*
G04 #@! TF.GenerationSoftware,Altium Limited,Altium Designer,20.0.2 (26)*
G04*
G04 Layer_Physical_Order=2*
G04 Layer_Color=16711680*
%FSLAX25Y25*%
%MOIN*%
G70*
G01*
G75*
%ADD12C,0.01500*%
%ADD13C,0.01000*%
%ADD14C,0.00600*%
%ADD15R,0.04567X0.05787*%
%ADD18R,0.05787X0.04567*%
%ADD45C,0.02000*%
%ADD46O,0.08661X0.05118*%
%ADD47C,0.04724*%
%ADD48R,0.14173X0.07874*%
%ADD49R,0.07874X0.14173*%
%ADD50R,0.06693X0.06693*%
%ADD51C,0.06693*%
%ADD52R,0.19685X0.11811*%
%ADD53R,0.07087X0.07087*%
%ADD54C,0.07087*%
%ADD55C,0.07087*%
%ADD56C,0.02400*%
%ADD57O,0.01102X0.03150*%
%ADD58O,0.03150X0.01102*%
%ADD59R,0.09055X0.09055*%
G36*
X266339Y213976D02*
Y187630D01*
X253839D01*
X253487Y187560D01*
X253190Y187362D01*
X242446Y176618D01*
X205236D01*
X204968Y177118D01*
X205007Y177176D01*
X205131Y177800D01*
X205007Y178424D01*
X204654Y178954D01*
X204418Y179111D01*
Y180821D01*
X206050D01*
Y186187D01*
X199462D01*
Y180821D01*
X202582D01*
Y179111D01*
X202346Y178954D01*
X201993Y178424D01*
X201869Y177800D01*
X201993Y177176D01*
X202032Y177118D01*
X201764Y176618D01*
X200861D01*
X192480Y184999D01*
X192182Y185198D01*
X191831Y185268D01*
X168405D01*
X168054Y185198D01*
X167757Y184999D01*
X163623Y180865D01*
X163424Y180568D01*
X163354Y180217D01*
Y162500D01*
X163424Y162149D01*
X163623Y161851D01*
X168150Y157324D01*
X168448Y157125D01*
X168799Y157055D01*
X175636D01*
X175685Y156998D01*
X175858Y156555D01*
X175738Y156375D01*
X175664Y156004D01*
X175738Y155633D01*
X175897Y155394D01*
X175812Y155100D01*
X175683Y154894D01*
X156837D01*
Y156660D01*
X150250D01*
Y154894D01*
X144134D01*
X143783Y154824D01*
X143485Y154625D01*
X141739Y152880D01*
X141540Y152582D01*
X141471Y152231D01*
Y151804D01*
X140971Y151705D01*
X140649Y152481D01*
X140017Y153305D01*
X139193Y153937D01*
X138234Y154334D01*
X137205Y154470D01*
X136175Y154334D01*
X135216Y153937D01*
X134392Y153305D01*
X133760Y152481D01*
X133363Y151522D01*
X133227Y150492D01*
X133363Y149463D01*
X133760Y148503D01*
X134392Y147680D01*
X135146Y147101D01*
Y114272D01*
X135236Y113823D01*
X135490Y113443D01*
X138738Y110195D01*
X139118Y109940D01*
X139567Y109851D01*
X254035D01*
X254484Y109940D01*
X254865Y110195D01*
X257277Y112607D01*
X260451D01*
X260543Y112469D01*
X261073Y112115D01*
X261697Y111991D01*
X262321Y112115D01*
X262850Y112469D01*
X263204Y112998D01*
X263328Y113622D01*
X263204Y114246D01*
X262850Y114776D01*
X262321Y115129D01*
X261697Y115253D01*
X261073Y115129D01*
X260807Y114952D01*
X256791D01*
X256343Y114863D01*
X255962Y114609D01*
X253550Y112196D01*
X140053D01*
X137491Y114757D01*
Y146553D01*
X138234Y146650D01*
X139193Y147048D01*
X140017Y147680D01*
X140649Y148503D01*
X140971Y149279D01*
X141471Y149180D01*
Y145801D01*
X141540Y145450D01*
X141739Y145152D01*
X143879Y143013D01*
X144176Y142814D01*
X144528Y142744D01*
X150250D01*
Y140978D01*
X156837D01*
Y146345D01*
X150250D01*
Y144579D01*
X144908D01*
X143306Y146181D01*
Y147083D01*
X143806Y147351D01*
X143864Y147312D01*
X144488Y147188D01*
X145113Y147312D01*
X145642Y147665D01*
X145799Y147901D01*
X161037D01*
X165887Y143052D01*
X166184Y142853D01*
X166535Y142783D01*
X170079D01*
X170430Y142853D01*
X170728Y143052D01*
X174172Y146497D01*
X174371Y146794D01*
X174441Y147146D01*
Y148734D01*
X174888Y149181D01*
X176372D01*
X176634Y149129D01*
X178681D01*
X179052Y149202D01*
X179367Y149413D01*
X179577Y149727D01*
X179651Y150098D01*
X179577Y150470D01*
X179369Y150781D01*
X179367Y150784D01*
X179367Y151381D01*
X179369Y151384D01*
X179577Y151696D01*
X179651Y152067D01*
X179577Y152438D01*
X179369Y152750D01*
X179367Y152753D01*
X179367Y153350D01*
X179369Y153353D01*
X179577Y153664D01*
X179651Y154035D01*
X179577Y154407D01*
X179369Y154718D01*
X179367Y154721D01*
X179367Y155318D01*
X179369Y155321D01*
X179577Y155633D01*
X179651Y156004D01*
X179577Y156375D01*
X179367Y156690D01*
Y157287D01*
X179577Y157601D01*
X179651Y157972D01*
X179577Y158344D01*
X179367Y158658D01*
X179052Y158868D01*
X178681Y158942D01*
X178575D01*
Y160053D01*
X179416Y160893D01*
X180428D01*
Y160689D01*
X180502Y160318D01*
X180712Y160003D01*
X181026Y159793D01*
X181398Y159719D01*
X181769Y159793D01*
X182083Y160003D01*
X182680D01*
X182995Y159793D01*
X183366Y159719D01*
X183737Y159793D01*
X184049Y160001D01*
X184052Y160003D01*
X184649Y160003D01*
X184652Y160001D01*
X184964Y159793D01*
X185335Y159719D01*
X185706Y159793D01*
X186017Y160001D01*
X186020Y160003D01*
X186617Y160003D01*
X186620Y160001D01*
X186932Y159793D01*
X187303Y159719D01*
X187674Y159793D01*
X187989Y160003D01*
X188199Y160318D01*
X188273Y160689D01*
Y162736D01*
X188221Y162999D01*
Y176164D01*
X188151Y176515D01*
X187952Y176813D01*
X185726Y179039D01*
X185890Y179582D01*
X185959Y179595D01*
X186488Y179949D01*
X186646Y180185D01*
X190087D01*
X201609Y168663D01*
X201444Y168121D01*
X201376Y168107D01*
X200847Y167754D01*
X200493Y167224D01*
X200369Y166600D01*
X200493Y165976D01*
X200847Y165446D01*
X201082Y165289D01*
Y158480D01*
X199524Y156922D01*
X194298D01*
X194035Y156974D01*
X191988D01*
X191617Y156900D01*
X191302Y156690D01*
X191092Y156375D01*
X191018Y156004D01*
X191092Y155633D01*
X191302Y155318D01*
Y154721D01*
X191092Y154407D01*
X191018Y154035D01*
X191092Y153664D01*
X191300Y153353D01*
X191302Y153350D01*
X191302Y152753D01*
X191300Y152750D01*
X191092Y152438D01*
X191018Y152067D01*
X191092Y151696D01*
X191302Y151381D01*
Y150784D01*
X191092Y150470D01*
X191018Y150098D01*
X191092Y149727D01*
X191302Y149413D01*
X191617Y149202D01*
X191988Y149129D01*
X194035D01*
X194298Y149181D01*
X205821D01*
X209883Y145119D01*
X210180Y144920D01*
X210531Y144850D01*
X212742D01*
X213242Y144849D01*
X213242Y144350D01*
Y141718D01*
X191667D01*
X190189Y143195D01*
Y145072D01*
X190242Y145335D01*
Y147382D01*
X190168Y147753D01*
X189957Y148068D01*
X189643Y148278D01*
X189272Y148352D01*
X188900Y148278D01*
X188589Y148070D01*
X188586Y148068D01*
X187989Y148068D01*
X187986Y148070D01*
X187674Y148278D01*
X187303Y148352D01*
X186932Y148278D01*
X186617Y148068D01*
X186020D01*
X185706Y148278D01*
X185335Y148352D01*
X184964Y148278D01*
X184652Y148070D01*
X184649Y148068D01*
X184052Y148068D01*
X184049Y148070D01*
X183737Y148278D01*
X183366Y148352D01*
X182995Y148278D01*
X182683Y148070D01*
X182680Y148068D01*
X182083Y148068D01*
X182080Y148070D01*
X181769Y148278D01*
X181398Y148352D01*
X181026Y148278D01*
X180712Y148068D01*
X180502Y147753D01*
X180428Y147382D01*
Y145335D01*
X180480Y145072D01*
Y141423D01*
X176628Y137571D01*
X156837D01*
Y139337D01*
X150250D01*
Y133970D01*
X156837D01*
Y135736D01*
X177008D01*
X177359Y135806D01*
X177657Y136005D01*
X181948Y140296D01*
X182333Y140190D01*
X182448Y140108D01*
Y139238D01*
X182420Y139196D01*
X182350Y138844D01*
Y132480D01*
X182420Y132129D01*
X182619Y131831D01*
X185375Y129076D01*
X185672Y128877D01*
X186024Y128807D01*
X210348D01*
Y126431D01*
X212114D01*
Y120223D01*
X210348D01*
Y113635D01*
X215715D01*
Y120223D01*
X213949D01*
Y126431D01*
X215715D01*
Y133018D01*
X210348D01*
Y130642D01*
X186404D01*
X184185Y132860D01*
Y134239D01*
X184685Y134391D01*
X184686Y134390D01*
X187638Y131438D01*
X187936Y131239D01*
X188287Y131169D01*
X205709D01*
X206060Y131239D01*
X206358Y131438D01*
X210026Y135106D01*
X244587D01*
X244938Y135176D01*
X245235Y135375D01*
X250706Y140845D01*
X250984Y140790D01*
X251608Y140914D01*
X252138Y141268D01*
X252491Y141797D01*
X252616Y142421D01*
X252491Y143046D01*
X252138Y143575D01*
X251714Y143858D01*
X251817Y144358D01*
X254134D01*
X254485Y144428D01*
X254783Y144627D01*
X258523Y148367D01*
X258722Y148665D01*
X258792Y149016D01*
Y168605D01*
X259154Y168846D01*
X259507Y169376D01*
X259631Y170000D01*
X259507Y170624D01*
X259154Y171153D01*
X258624Y171507D01*
X258000Y171631D01*
X257376Y171507D01*
X256846Y171153D01*
X256493Y170624D01*
X256369Y170000D01*
X256493Y169376D01*
X256846Y168846D01*
X256956Y168773D01*
Y149396D01*
X253754Y146193D01*
X252111D01*
X251960Y146693D01*
X252236Y146878D01*
X252590Y147407D01*
X252714Y148031D01*
X252590Y148656D01*
X252236Y149185D01*
X252000Y149343D01*
Y150702D01*
X254475D01*
Y156069D01*
X247887D01*
Y150702D01*
X250165D01*
Y149343D01*
X249929Y149185D01*
X249575Y148656D01*
X249451Y148031D01*
X249575Y147407D01*
X249929Y146878D01*
X250206Y146693D01*
X250054Y146193D01*
X243983D01*
Y148569D01*
X238616D01*
Y141982D01*
X243983D01*
Y144358D01*
X250151D01*
X250255Y143858D01*
X249831Y143575D01*
X249477Y143046D01*
X249353Y142421D01*
X249408Y142143D01*
X244207Y136941D01*
X209646D01*
X209295Y136871D01*
X208997Y136672D01*
X205329Y133004D01*
X199185D01*
X199098Y133119D01*
X198964Y133504D01*
X199243Y133923D01*
X199368Y134547D01*
X199243Y135171D01*
X198890Y135701D01*
X198361Y136054D01*
X197736Y136179D01*
X197112Y136054D01*
X196583Y135701D01*
X196425Y135465D01*
X190538D01*
X188218Y137785D01*
Y141881D01*
X188346Y141972D01*
X188718Y142071D01*
X190638Y140151D01*
X190935Y139952D01*
X191287Y139882D01*
X213242D01*
Y139482D01*
X219829D01*
X219829Y144849D01*
X220329Y144850D01*
X231608D01*
Y141982D01*
X236975D01*
Y148569D01*
X231608D01*
Y146685D01*
X219829D01*
Y151857D01*
X217453D01*
Y152924D01*
X217689Y153082D01*
X218043Y153611D01*
X218167Y154235D01*
X218043Y154860D01*
X217689Y155389D01*
X217160Y155743D01*
X216535Y155867D01*
X215911Y155743D01*
X215382Y155389D01*
X215224Y155153D01*
X205235D01*
X204884Y155083D01*
X204587Y154884D01*
X202734Y153032D01*
X202258Y153057D01*
X202108Y153511D01*
X205472Y156874D01*
X205671Y157172D01*
X205740Y157523D01*
Y161484D01*
X205976Y161642D01*
X206134Y161878D01*
X213242D01*
Y160250D01*
X219829D01*
Y165617D01*
X213242D01*
Y163713D01*
X206134D01*
X205976Y163949D01*
X205740Y164106D01*
Y166747D01*
X205671Y167098D01*
X205472Y167396D01*
X191116Y181751D01*
X190819Y181950D01*
X190468Y182020D01*
X186646D01*
X186488Y182256D01*
X185959Y182609D01*
X185335Y182734D01*
X184710Y182609D01*
X184181Y182256D01*
X183951Y181912D01*
X183451Y182063D01*
Y182821D01*
X178084D01*
Y176234D01*
X183451D01*
Y178011D01*
X183951Y178218D01*
X186386Y175784D01*
Y169735D01*
X186270Y169653D01*
X185886Y169546D01*
X183269Y172163D01*
X183324Y172441D01*
X183200Y173065D01*
X182846Y173594D01*
X182317Y173948D01*
X181693Y174072D01*
X181069Y173948D01*
X180539Y173594D01*
X180186Y173065D01*
X180062Y172441D01*
X180186Y171817D01*
X180539Y171287D01*
X180963Y171004D01*
X180860Y170504D01*
X178727D01*
Y172979D01*
X173360D01*
Y166391D01*
X178727D01*
Y168669D01*
X181018D01*
X182350Y167336D01*
Y163845D01*
X181850Y163578D01*
X181769Y163632D01*
X181398Y163706D01*
X181026Y163632D01*
X180712Y163422D01*
X180502Y163107D01*
X180428Y162736D01*
Y162729D01*
X179035D01*
X178684Y162659D01*
X178387Y162460D01*
X177009Y161082D01*
X176810Y160784D01*
X176740Y160433D01*
Y158942D01*
X176634D01*
X176372Y158890D01*
X169179D01*
X165189Y162880D01*
Y179836D01*
X168786Y183433D01*
X191451D01*
X199832Y175051D01*
X200130Y174852D01*
X200481Y174782D01*
X242826D01*
X243177Y174852D01*
X243475Y175051D01*
X250132Y181709D01*
X250521Y181390D01*
X250432Y181257D01*
X250362Y180905D01*
Y163077D01*
X247887D01*
Y157710D01*
X254475D01*
Y163077D01*
X252197D01*
Y180525D01*
X254809Y183138D01*
X262173D01*
X262331Y182902D01*
X262860Y182548D01*
X263484Y182424D01*
X264108Y182548D01*
X264638Y182902D01*
X264991Y183431D01*
X265116Y184055D01*
X264991Y184679D01*
X264638Y185209D01*
X264509Y185295D01*
X264660Y185795D01*
X266339D01*
Y161024D01*
X322342D01*
Y123721D01*
X300689D01*
Y106890D01*
X106890D01*
Y213820D01*
X107244Y214173D01*
X266339Y213976D01*
D02*
G37*
G36*
X322146Y162500D02*
X272506D01*
Y169042D01*
X270741D01*
Y184508D01*
X270682Y184801D01*
X270671Y184859D01*
X270472Y185157D01*
X268267Y187362D01*
X267969Y187560D01*
X267618Y187630D01*
X267421D01*
Y213976D01*
X322146D01*
Y162500D01*
D02*
G37*
%LPC*%
G36*
X212000Y205631D02*
X211376Y205507D01*
X210846Y205153D01*
X210689Y204918D01*
X205400D01*
X205049Y204848D01*
X204751Y204649D01*
X202151Y202049D01*
X201952Y201751D01*
X201882Y201400D01*
Y193195D01*
X199462D01*
Y187828D01*
X206050D01*
Y193195D01*
X203718D01*
Y201020D01*
X205780Y203082D01*
X210689D01*
X210846Y202847D01*
X211376Y202493D01*
X212000Y202369D01*
X212624Y202493D01*
X213154Y202847D01*
X213507Y203376D01*
X213631Y204000D01*
X213507Y204624D01*
X213154Y205153D01*
X212624Y205507D01*
X212000Y205631D01*
D02*
G37*
G36*
X124114Y203168D02*
X123393Y203073D01*
X122721Y202795D01*
X122144Y202352D01*
X121701Y201775D01*
X121423Y201103D01*
X121328Y200382D01*
X121423Y199661D01*
X121701Y198989D01*
X122144Y198412D01*
X122721Y197969D01*
X123393Y197691D01*
X124114Y197596D01*
X124835Y197691D01*
X125507Y197969D01*
X126084Y198412D01*
X126527Y198989D01*
X126805Y199661D01*
X126900Y200382D01*
X126805Y201103D01*
X126527Y201775D01*
X126084Y202352D01*
X125507Y202795D01*
X124835Y203073D01*
X124114Y203168D01*
D02*
G37*
G36*
X193884Y212053D02*
X188517D01*
Y205466D01*
X190108D01*
Y202664D01*
X187592D01*
Y194777D01*
X188041D01*
Y192959D01*
X185565D01*
Y186372D01*
X190931D01*
Y192959D01*
X190896D01*
Y194777D01*
X195479D01*
Y202664D01*
X192963D01*
Y205466D01*
X193884D01*
Y212053D01*
D02*
G37*
G36*
X162605Y199416D02*
X153931D01*
Y198226D01*
X153095Y198143D01*
X151906Y197783D01*
X150811Y197197D01*
X149850Y196409D01*
X149098Y195492D01*
X145965D01*
X145192Y195391D01*
X144472Y195093D01*
X143854Y194618D01*
X143380Y194000D01*
X143082Y193280D01*
X142980Y192508D01*
X143082Y191735D01*
X143380Y191016D01*
X143854Y190397D01*
X144472Y189923D01*
X145192Y189625D01*
X145965Y189523D01*
X148471D01*
X148477Y189504D01*
X149063Y188409D01*
X149850Y187449D01*
X150811Y186661D01*
X151906Y186075D01*
X153095Y185715D01*
X153931Y185633D01*
Y184442D01*
X162605D01*
Y185633D01*
X163441Y185715D01*
X164629Y186075D01*
X165725Y186661D01*
X166685Y187449D01*
X167473Y188409D01*
X168058Y189504D01*
X168419Y190693D01*
X168541Y191929D01*
X168419Y193165D01*
X168058Y194354D01*
X167473Y195449D01*
X166685Y196409D01*
X165725Y197197D01*
X164629Y197783D01*
X163441Y198143D01*
X162605Y198226D01*
Y199416D01*
D02*
G37*
G36*
X124114Y187420D02*
X123393Y187325D01*
X122721Y187047D01*
X122144Y186604D01*
X121701Y186027D01*
X121423Y185355D01*
X121328Y184634D01*
X121423Y183913D01*
X121701Y183241D01*
X122144Y182664D01*
X122721Y182221D01*
X123393Y181943D01*
X124114Y181848D01*
X124835Y181943D01*
X125507Y182221D01*
X126084Y182664D01*
X126527Y183241D01*
X126805Y183913D01*
X126900Y184634D01*
X126805Y185355D01*
X126527Y186027D01*
X126084Y186604D01*
X125507Y187047D01*
X124835Y187325D01*
X124114Y187420D01*
D02*
G37*
G36*
X137205Y174154D02*
X136175Y174019D01*
X135216Y173622D01*
X134392Y172990D01*
X133760Y172166D01*
X133363Y171207D01*
X133227Y170177D01*
X133363Y169148D01*
X133760Y168189D01*
X134392Y167365D01*
X135216Y166733D01*
X136175Y166335D01*
X137205Y166200D01*
X138234Y166335D01*
X139193Y166733D01*
X140017Y167365D01*
X140649Y168189D01*
X141047Y169148D01*
X141182Y170177D01*
X141047Y171207D01*
X140649Y172166D01*
X140017Y172990D01*
X139193Y173622D01*
X138234Y174019D01*
X137205Y174154D01*
D02*
G37*
G36*
X127362D02*
X126333Y174019D01*
X125373Y173622D01*
X124550Y172990D01*
X123918Y172166D01*
X123520Y171207D01*
X123385Y170177D01*
X123520Y169148D01*
X123918Y168189D01*
X124550Y167365D01*
X125373Y166733D01*
X126333Y166335D01*
X127362Y166200D01*
X128392Y166335D01*
X129351Y166733D01*
X130175Y167365D01*
X130807Y168189D01*
X131204Y169148D01*
X131340Y170177D01*
X131204Y171207D01*
X130807Y172166D01*
X130175Y172990D01*
X129351Y173622D01*
X128392Y174019D01*
X127362Y174154D01*
D02*
G37*
G36*
Y164312D02*
X126333Y164176D01*
X125373Y163779D01*
X124550Y163147D01*
X123918Y162323D01*
X123520Y161364D01*
X123506Y161252D01*
X117762D01*
Y162880D01*
X111175D01*
Y157513D01*
X117762D01*
Y159417D01*
X123506D01*
X123520Y159305D01*
X123918Y158346D01*
X124550Y157522D01*
X125373Y156890D01*
X126333Y156493D01*
X127362Y156357D01*
X128392Y156493D01*
X129351Y156890D01*
X130175Y157522D01*
X130807Y158346D01*
X131204Y159305D01*
X131340Y160335D01*
X131204Y161364D01*
X130807Y162323D01*
X130175Y163147D01*
X129351Y163779D01*
X128392Y164176D01*
X127362Y164312D01*
D02*
G37*
G36*
X137205D02*
X136175Y164176D01*
X135216Y163779D01*
X134392Y163147D01*
X133760Y162323D01*
X133363Y161364D01*
X133227Y160335D01*
X133363Y159305D01*
X133760Y158346D01*
X134392Y157522D01*
X135216Y156890D01*
X136175Y156493D01*
X137205Y156357D01*
X138234Y156493D01*
X139193Y156890D01*
X140017Y157522D01*
X140649Y158346D01*
X141047Y159305D01*
X141182Y160335D01*
X141047Y161364D01*
X140649Y162323D01*
X140017Y163147D01*
X139193Y163779D01*
X138234Y164176D01*
X137205Y164312D01*
D02*
G37*
G36*
X286680Y152194D02*
X281313D01*
Y150327D01*
X277783D01*
X277165Y150450D01*
X276541Y150326D01*
X276012Y149972D01*
X275658Y149443D01*
X275534Y148819D01*
X275658Y148195D01*
X276012Y147665D01*
X276541Y147312D01*
X277165Y147188D01*
X277790Y147312D01*
X278030Y147473D01*
X281313D01*
Y145606D01*
X286680D01*
Y152194D01*
D02*
G37*
G36*
X190262Y158963D02*
X180407D01*
Y149108D01*
X190262D01*
Y158963D01*
D02*
G37*
G36*
X127362Y154470D02*
X126333Y154334D01*
X125373Y153937D01*
X124550Y153305D01*
X123918Y152481D01*
X123520Y151522D01*
X123385Y150492D01*
X123520Y149463D01*
X123918Y148503D01*
X124550Y147680D01*
X125373Y147048D01*
X126333Y146650D01*
X127362Y146515D01*
X128392Y146650D01*
X129351Y147048D01*
X130175Y147680D01*
X130807Y148503D01*
X131204Y149463D01*
X131340Y150492D01*
X131204Y151522D01*
X130807Y152481D01*
X130175Y153305D01*
X129351Y153937D01*
X128392Y154334D01*
X127362Y154470D01*
D02*
G37*
G36*
X279317Y131502D02*
X271824D01*
Y124010D01*
X279317D01*
Y131502D01*
D02*
G37*
G36*
X236975Y120223D02*
X231608D01*
Y117847D01*
X222723D01*
Y120223D01*
X217356D01*
Y113635D01*
X222723D01*
Y116012D01*
X231608D01*
Y113635D01*
X236975D01*
Y120223D01*
D02*
G37*
%LPD*%
D12*
X261461Y113779D02*
X261500Y113819D01*
X256791Y113779D02*
X261461D01*
X254035Y111024D02*
X256791Y113779D01*
X136319Y149606D02*
X137205Y150492D01*
X136319Y114272D02*
Y149606D01*
X139567Y111024D02*
X254035D01*
X136319Y114272D02*
X139567Y111024D01*
X276831Y165748D02*
X282827D01*
D13*
X166535Y143701D02*
X170079D01*
X161417Y148819D02*
X166535Y143701D01*
X144488Y148819D02*
X161417D01*
X173524Y147146D02*
Y149114D01*
X170079Y143701D02*
X173524Y147146D01*
X144134Y153976D02*
X153543D01*
X142388Y152231D02*
X144134Y153976D01*
X142388Y145801D02*
Y152231D01*
X144528Y143661D02*
X153543D01*
X142388Y145801D02*
X144528Y143661D01*
X191287Y140800D02*
X215170D01*
X189272Y142815D02*
X191287Y140800D01*
X215170D02*
X216535Y142165D01*
X191201Y208760D02*
X191535Y208425D01*
X168209Y179528D02*
X173760D01*
X168110Y179429D02*
X168209Y179528D01*
X183268Y161713D02*
Y167717D01*
X181398Y161764D02*
X181449Y161713D01*
X168799Y157972D02*
X177657D01*
X164272Y162500D02*
X168799Y157972D01*
X164272Y162500D02*
Y180217D01*
X168405Y184350D01*
X242826Y175700D02*
X253839Y186713D01*
X200481Y175700D02*
X242826D01*
X191831Y184350D02*
X200481Y175700D01*
X253839Y186713D02*
X267618D01*
X168405Y184350D02*
X191831D01*
X185335Y181102D02*
X190468D01*
X204823Y166747D01*
X183940Y179528D02*
X187303Y176164D01*
Y161713D02*
Y176164D01*
X180768Y179528D02*
X183940D01*
X185335Y161713D02*
Y168799D01*
X181693Y172441D02*
X185335Y168799D01*
X181398Y169587D02*
X183268Y167717D01*
X181449Y161713D02*
X183268D01*
X176142Y169587D02*
X181398D01*
X183268Y161713D02*
X183366D01*
X181398D02*
X181449D01*
X181350Y161811D02*
X181398Y161764D01*
Y161713D02*
Y161764D01*
X176043Y169685D02*
X176142Y169587D01*
X189469Y196653D02*
X191535Y198721D01*
X267618Y186713D02*
X269823Y184508D01*
X220039Y116929D02*
X234291D01*
X114469Y160197D02*
X114606Y160335D01*
X127362D01*
X114370Y153091D02*
X114469Y153189D01*
X114370Y146653D02*
Y153091D01*
X269823Y165748D02*
Y184508D01*
X251279Y160394D02*
Y180905D01*
X190157Y134547D02*
X197736D01*
X187300Y137405D02*
X190157Y134547D01*
X187300Y137405D02*
Y146355D01*
X244587Y136024D02*
X250984Y142421D01*
X209646Y136024D02*
X244587D01*
X205709Y132087D02*
X209646Y136024D01*
X188287Y132087D02*
X205709D01*
X185335Y135039D02*
Y146358D01*
Y135039D02*
X188287Y132087D01*
X251083Y148031D02*
Y153287D01*
X241299Y145276D02*
X254134D01*
X257874Y149016D01*
Y169874D01*
X251083Y153287D02*
X251181Y153386D01*
X183268Y132480D02*
Y138844D01*
X254429Y184055D02*
X263484D01*
X251279Y180905D02*
X254429Y184055D01*
X181398Y141043D02*
Y146358D01*
X177008Y136653D02*
X181398Y141043D01*
X153543Y136653D02*
X177008D01*
X183366Y138943D02*
Y146358D01*
X183268Y138844D02*
X183366Y138943D01*
X186024Y129724D02*
X213032D01*
X183268Y132480D02*
X186024Y129724D01*
X213032Y116929D02*
Y129724D01*
X257874Y169874D02*
X258000Y170000D01*
X189272Y142815D02*
Y146358D01*
X233799Y145768D02*
X234291Y145276D01*
X210531Y145768D02*
X233799D01*
X206201Y150098D02*
X210531Y145768D01*
X193012Y150098D02*
X206201D01*
X277165Y148819D02*
Y148900D01*
X187300Y146355D02*
X187303Y146358D01*
X205235Y154235D02*
X216535D01*
X203067Y152067D02*
X205235Y154235D01*
X193012Y152067D02*
X203067D01*
X216535Y149173D02*
Y154235D01*
X202756Y190512D02*
X202800Y190556D01*
Y201400D01*
X205400Y204000D02*
X212000D01*
X202800Y201400D02*
X205400Y204000D01*
X202756Y183504D02*
X203500Y182760D01*
Y177800D02*
Y182760D01*
X204823Y162795D02*
Y166747D01*
X202000Y158100D02*
Y166600D01*
X199904Y156004D02*
X202000Y158100D01*
X193012Y156004D02*
X199904D01*
X204823Y157523D02*
Y162795D01*
X201335Y154035D02*
X204823Y157523D01*
X193012Y154035D02*
X201335D01*
X216398Y162795D02*
X216535Y162933D01*
X204823Y162795D02*
X216398D01*
X168996Y169646D02*
X169035Y169685D01*
X168996Y162992D02*
Y169646D01*
X179035Y161811D02*
X181350D01*
X177657Y157972D02*
Y160433D01*
X179035Y161811D01*
X177657Y156004D02*
Y157972D01*
X153543Y153976D02*
X176547D01*
X176606Y154035D01*
X177657D01*
X174508Y150098D02*
X177657D01*
X173524Y149114D02*
X174508Y150098D01*
X172047Y152067D02*
X177657D01*
X170866Y150886D02*
X172047Y152067D01*
X170866Y148524D02*
Y150886D01*
X322835Y106299D02*
Y214567D01*
X106299Y106299D02*
X322835D01*
X106299Y214567D02*
X322835D01*
X106299Y106299D02*
Y214567D01*
Y97244D02*
X112299Y99244D01*
X106299Y97244D02*
X112299Y95244D01*
X316835D02*
X322835Y97244D01*
X316835Y99244D02*
X322835Y97244D01*
X106299D02*
X191873D01*
X234061D02*
X322835D01*
X106299Y96244D02*
Y104799D01*
X322835Y96244D02*
Y104799D01*
X336976Y112299D02*
X338976Y106299D01*
X340976Y112299D01*
X338976Y214567D02*
X340976Y208567D01*
X336976D02*
X338976Y214567D01*
Y106299D02*
Y137739D01*
Y179927D02*
Y214567D01*
X324335Y106299D02*
X339976D01*
X324335Y214567D02*
X339976D01*
D14*
X197472Y99643D02*
X193473D01*
Y96644D01*
X195473Y97644D01*
X196472D01*
X197472Y96644D01*
Y94645D01*
X196472Y93645D01*
X194473D01*
X193473Y94645D01*
X203470Y99643D02*
X199471D01*
Y96644D01*
X201471Y97644D01*
X202470D01*
X203470Y96644D01*
Y94645D01*
X202470Y93645D01*
X200471D01*
X199471Y94645D01*
X205469Y93645D02*
Y94645D01*
X206469D01*
Y93645D01*
X205469D01*
X210468Y98643D02*
X211467Y99643D01*
X213467D01*
X214466Y98643D01*
Y94645D01*
X213467Y93645D01*
X211467D01*
X210468Y94645D01*
Y98643D01*
X216466D02*
X217465Y99643D01*
X219465D01*
X220464Y98643D01*
Y94645D01*
X219465Y93645D01*
X217465D01*
X216466Y94645D01*
Y98643D01*
X222464Y93645D02*
Y97644D01*
X223464D01*
X224463Y96644D01*
Y93645D01*
Y96644D01*
X225463Y97644D01*
X226463Y96644D01*
Y93645D01*
X228462D02*
Y97644D01*
X229462D01*
X230461Y96644D01*
Y93645D01*
Y96644D01*
X231461Y97644D01*
X232461Y96644D01*
Y93645D01*
X342575Y143338D02*
Y139339D01*
X338577Y143338D01*
X337577D01*
X336577Y142338D01*
Y140339D01*
X337577Y139339D01*
X336577Y145337D02*
Y149336D01*
X337577D01*
X341576Y145337D01*
X342575D01*
Y151336D02*
X341576D01*
Y152335D01*
X342575D01*
Y151336D01*
X336577Y160333D02*
Y156334D01*
X339576D01*
X338577Y158333D01*
Y159333D01*
X339576Y160333D01*
X341576D01*
X342575Y159333D01*
Y157334D01*
X341576Y156334D01*
X337577Y162332D02*
X336577Y163332D01*
Y165331D01*
X337577Y166331D01*
X341576D01*
X342575Y165331D01*
Y163332D01*
X341576Y162332D01*
X337577D01*
X342575Y168330D02*
X338577D01*
Y169330D01*
X339576Y170329D01*
X342575D01*
X339576D01*
X338577Y171329D01*
X339576Y172329D01*
X342575D01*
Y174328D02*
X338577D01*
Y175328D01*
X339576Y176327D01*
X342575D01*
X339576D01*
X338577Y177327D01*
X339576Y178327D01*
X342575D01*
D15*
X173760Y179528D02*
D03*
X180768D02*
D03*
X241299Y145276D02*
D03*
X234291D02*
D03*
X283996Y148900D02*
D03*
X291004D02*
D03*
X269823Y165748D02*
D03*
X276831D02*
D03*
X213032Y129724D02*
D03*
X220039D02*
D03*
Y116929D02*
D03*
X213032D02*
D03*
X234291D02*
D03*
X241299D02*
D03*
X176043Y169685D02*
D03*
X169035D02*
D03*
X188248Y189665D02*
D03*
X181240D02*
D03*
X191201Y208760D02*
D03*
X184193D02*
D03*
D18*
X114469Y153189D02*
D03*
Y160197D02*
D03*
X153543Y160984D02*
D03*
Y153976D02*
D03*
X202756Y190512D02*
D03*
Y183504D02*
D03*
X251181Y153386D02*
D03*
Y160394D02*
D03*
X153543Y143661D02*
D03*
Y136653D02*
D03*
X216535Y142165D02*
D03*
Y149173D02*
D03*
Y162933D02*
D03*
Y169941D02*
D03*
D45*
X191535Y198721D02*
Y208425D01*
X177756Y198557D02*
X179823Y196490D01*
Y189508D02*
Y196490D01*
Y189508D02*
X181240Y188091D01*
X189469Y189311D02*
Y196653D01*
X188248Y188091D02*
X189469Y189311D01*
X177756Y198557D02*
Y198721D01*
X297875Y148900D02*
X298031Y149056D01*
X291004Y148900D02*
X297875D01*
X277165D02*
X283996D01*
D46*
X147736Y200776D02*
D03*
Y192508D02*
D03*
Y184240D02*
D03*
D47*
X124114Y200382D02*
D03*
Y184634D02*
D03*
D48*
X145669Y210039D02*
D03*
D49*
X158268Y191929D02*
D03*
X133858D02*
D03*
D50*
X275571Y127756D02*
D03*
D51*
X295571D02*
D03*
D52*
X312008Y207677D02*
D03*
Y113287D02*
D03*
D53*
X191535Y198721D02*
D03*
D54*
X177756D02*
D03*
D55*
X137205Y170177D02*
D03*
Y150492D02*
D03*
Y160335D02*
D03*
X127362Y170177D02*
D03*
Y160335D02*
D03*
Y150492D02*
D03*
D56*
X144488Y148819D02*
D03*
X279528Y200787D02*
D03*
Y204724D02*
D03*
Y208661D02*
D03*
X275590D02*
D03*
Y204724D02*
D03*
Y200787D02*
D03*
X271654D02*
D03*
Y204724D02*
D03*
Y208661D02*
D03*
X169291Y200787D02*
D03*
Y204724D02*
D03*
Y133858D02*
D03*
X129921Y137795D02*
D03*
X125984Y133858D02*
D03*
X122047D02*
D03*
X125984Y137795D02*
D03*
X122047D02*
D03*
X114173Y204724D02*
D03*
X110236D02*
D03*
Y200787D02*
D03*
X114173D02*
D03*
X118110D02*
D03*
Y204724D02*
D03*
Y208661D02*
D03*
X114173D02*
D03*
X110236D02*
D03*
X318898Y181102D02*
D03*
Y185039D02*
D03*
Y188976D02*
D03*
X314961D02*
D03*
Y185039D02*
D03*
Y181102D02*
D03*
X311024D02*
D03*
Y185039D02*
D03*
Y188976D02*
D03*
X318898Y133858D02*
D03*
Y137795D02*
D03*
Y141732D02*
D03*
X311024Y133858D02*
D03*
Y137795D02*
D03*
Y141732D02*
D03*
X314961Y133858D02*
D03*
Y141732D02*
D03*
Y137795D02*
D03*
X168209Y179528D02*
D03*
X185335Y181102D02*
D03*
X181693Y172441D02*
D03*
X114370Y146653D02*
D03*
X197736Y134547D02*
D03*
X250984Y142421D02*
D03*
X251083Y148031D02*
D03*
X263484Y184055D02*
D03*
X298031Y149056D02*
D03*
X277165Y148819D02*
D03*
X216535Y154235D02*
D03*
X203500Y177800D02*
D03*
X202000Y166600D02*
D03*
X204823Y162795D02*
D03*
X168996Y162992D02*
D03*
X170866Y148524D02*
D03*
X282827Y165748D02*
D03*
X261697Y113622D02*
D03*
X258000Y170000D02*
D03*
X212000Y204000D02*
D03*
X227000D02*
D03*
X222000D02*
D03*
X217000D02*
D03*
D57*
X189272Y146358D02*
D03*
X187303D02*
D03*
X185335D02*
D03*
X183366D02*
D03*
X181398D02*
D03*
Y161713D02*
D03*
X183366D02*
D03*
X185335D02*
D03*
X187303D02*
D03*
X189272D02*
D03*
D58*
X177657Y150098D02*
D03*
Y152067D02*
D03*
Y154035D02*
D03*
Y156004D02*
D03*
Y157972D02*
D03*
X193012D02*
D03*
Y156004D02*
D03*
Y154035D02*
D03*
Y152067D02*
D03*
Y150098D02*
D03*
D59*
X185335Y154035D02*
D03*
M02*
