G04*
G04 #@! TF.GenerationSoftware,Altium Limited,Altium Designer,20.0.2 (26)*
G04*
G04 Layer_Color=255*
%FSLAX25Y25*%
%MOIN*%
G70*
G01*
G75*
%ADD14R,0.04567X0.05787*%
%ADD15R,0.07087X0.04449*%
%ADD16R,0.04449X0.07087*%
%ADD17R,0.05787X0.04567*%
%ADD18R,0.19685X0.13780*%
%ADD19R,0.11811X0.19685*%
%ADD20R,0.02402X0.05512*%
%ADD21R,0.15748X0.15000*%
%ADD22R,0.11811X0.07874*%
%ADD23R,0.04921X0.03937*%
%ADD45O,0.08661X0.05118*%
%ADD46C,0.04724*%
%ADD47R,0.14173X0.07874*%
%ADD48R,0.07874X0.14173*%
%ADD49R,0.06693X0.06693*%
%ADD50C,0.06693*%
%ADD51R,0.19685X0.11811*%
%ADD52R,0.07087X0.07087*%
%ADD53C,0.07087*%
%ADD54C,0.07087*%
D14*
X158622Y144095D02*
D03*
X151614D02*
D03*
X187854Y134744D02*
D03*
X180847D02*
D03*
X267756Y113779D02*
D03*
X274764D02*
D03*
D15*
X314665Y167283D02*
D03*
Y155551D02*
D03*
D16*
X244528Y208169D02*
D03*
X256260D02*
D03*
D17*
X128000Y122504D02*
D03*
Y115496D02*
D03*
D18*
X234252Y160366D02*
D03*
X234253Y115090D02*
D03*
D19*
X195177Y117323D02*
D03*
X174606Y117421D02*
D03*
D20*
X243110Y175528D02*
D03*
X248110D02*
D03*
X253110D02*
D03*
X258110D02*
D03*
X258110Y197701D02*
D03*
X253110D02*
D03*
X248110D02*
D03*
X243110D02*
D03*
X226969Y197701D02*
D03*
X221969D02*
D03*
X216968D02*
D03*
X211968D02*
D03*
X211968Y175528D02*
D03*
X216968D02*
D03*
X221969D02*
D03*
X226969D02*
D03*
X159862Y133591D02*
D03*
X154862D02*
D03*
X149862D02*
D03*
X144862D02*
D03*
X144862Y111417D02*
D03*
X149862D02*
D03*
X154862D02*
D03*
X159862D02*
D03*
D21*
X250610Y189433D02*
D03*
X219468Y183795D02*
D03*
X152362Y119685D02*
D03*
D22*
X113091Y114567D02*
D03*
Y132087D02*
D03*
D23*
X179823Y208661D02*
D03*
X191437D02*
D03*
D45*
X147736Y200776D02*
D03*
Y192508D02*
D03*
Y184240D02*
D03*
D46*
X124114Y200382D02*
D03*
Y184634D02*
D03*
D47*
X145669Y210039D02*
D03*
D48*
X158268Y191929D02*
D03*
X133858D02*
D03*
D49*
X275571Y127756D02*
D03*
D50*
X295571D02*
D03*
D51*
X312008Y207677D02*
D03*
Y113287D02*
D03*
D52*
X191535Y198721D02*
D03*
D53*
X177756D02*
D03*
D54*
X137205Y170177D02*
D03*
Y150492D02*
D03*
Y160335D02*
D03*
X127362Y170177D02*
D03*
Y160335D02*
D03*
Y150492D02*
D03*
M02*
