G04*
G04 #@! TF.GenerationSoftware,Altium Limited,Altium Designer,20.0.2 (26)*
G04*
G04 Layer_Color=255*
%FSLAX25Y25*%
%MOIN*%
G70*
G01*
G75*
%ADD14R,0.04567X0.05787*%
%ADD17R,0.05787X0.04567*%
%ADD45O,0.08661X0.05118*%
%ADD46C,0.04724*%
%ADD47R,0.14173X0.07874*%
%ADD48R,0.07874X0.14173*%
%ADD49R,0.06693X0.06693*%
%ADD50C,0.06693*%
%ADD51R,0.19685X0.11811*%
%ADD52R,0.07087X0.07087*%
%ADD53C,0.07087*%
%ADD54C,0.07087*%
%ADD56O,0.01102X0.03150*%
%ADD57O,0.03150X0.01102*%
%ADD58R,0.09055X0.09055*%
D14*
X173760Y179528D02*
D03*
X180768D02*
D03*
X241299Y145276D02*
D03*
X234291D02*
D03*
X283996Y148900D02*
D03*
X291004D02*
D03*
X269823Y165748D02*
D03*
X276831D02*
D03*
X213032Y129724D02*
D03*
X220039D02*
D03*
Y116929D02*
D03*
X213032D02*
D03*
X234291D02*
D03*
X241299D02*
D03*
X176043Y169685D02*
D03*
X169035D02*
D03*
X188248Y189665D02*
D03*
X181240D02*
D03*
X191201Y208760D02*
D03*
X184193D02*
D03*
D17*
X114469Y153189D02*
D03*
Y160197D02*
D03*
X153543Y160984D02*
D03*
Y153976D02*
D03*
X202756Y190512D02*
D03*
Y183504D02*
D03*
X251181Y153386D02*
D03*
Y160394D02*
D03*
X153543Y143661D02*
D03*
Y136653D02*
D03*
X216535Y142165D02*
D03*
Y149173D02*
D03*
Y162933D02*
D03*
Y169941D02*
D03*
D45*
X147736Y200776D02*
D03*
Y192508D02*
D03*
Y184240D02*
D03*
D46*
X124114Y200382D02*
D03*
Y184634D02*
D03*
D47*
X145669Y210039D02*
D03*
D48*
X158268Y191929D02*
D03*
X133858D02*
D03*
D49*
X275571Y127756D02*
D03*
D50*
X295571D02*
D03*
D51*
X312008Y207677D02*
D03*
Y113287D02*
D03*
D52*
X191535Y198721D02*
D03*
D53*
X177756D02*
D03*
D54*
X137205Y170177D02*
D03*
Y150492D02*
D03*
Y160335D02*
D03*
X127362Y170177D02*
D03*
Y160335D02*
D03*
Y150492D02*
D03*
D56*
X189272Y146358D02*
D03*
X187303D02*
D03*
X185335D02*
D03*
X183366D02*
D03*
X181398D02*
D03*
Y161713D02*
D03*
X183366D02*
D03*
X185335D02*
D03*
X187303D02*
D03*
X189272D02*
D03*
D57*
X177657Y150098D02*
D03*
Y152067D02*
D03*
Y154035D02*
D03*
Y156004D02*
D03*
Y157972D02*
D03*
X193012D02*
D03*
Y156004D02*
D03*
Y154035D02*
D03*
Y152067D02*
D03*
Y150098D02*
D03*
D58*
X185335Y154035D02*
D03*
M02*
