G04*
G04 #@! TF.GenerationSoftware,Altium Limited,Altium Designer,20.0.2 (26)*
G04*
G04 Layer_Color=128*
%FSLAX25Y25*%
%MOIN*%
G70*
G01*
G75*
%ADD13C,0.01000*%
%ADD14C,0.00600*%
%ADD15R,0.04567X0.05787*%
%ADD18R,0.05787X0.04567*%
%ADD57O,0.01102X0.03150*%
%ADD58O,0.03150X0.01102*%
%ADD59R,0.09055X0.09055*%
D13*
X322835Y106299D02*
Y214567D01*
X106299Y106299D02*
X322835D01*
X106299Y214567D02*
X322835D01*
X106299Y106299D02*
Y214567D01*
Y97244D02*
X112299Y99244D01*
X106299Y97244D02*
X112299Y95244D01*
X316835D02*
X322835Y97244D01*
X316835Y99244D02*
X322835Y97244D01*
X106299D02*
X191873D01*
X234061D02*
X322835D01*
X106299Y96244D02*
Y104799D01*
X322835Y96244D02*
Y104799D01*
X336976Y112299D02*
X338976Y106299D01*
X340976Y112299D01*
X338976Y214567D02*
X340976Y208567D01*
X336976D02*
X338976Y214567D01*
Y106299D02*
Y137739D01*
Y179927D02*
Y214567D01*
X324335Y106299D02*
X339976D01*
X324335Y214567D02*
X339976D01*
D14*
X197472Y99643D02*
X193473D01*
Y96644D01*
X195473Y97644D01*
X196472D01*
X197472Y96644D01*
Y94645D01*
X196472Y93645D01*
X194473D01*
X193473Y94645D01*
X203470Y99643D02*
X199471D01*
Y96644D01*
X201471Y97644D01*
X202470D01*
X203470Y96644D01*
Y94645D01*
X202470Y93645D01*
X200471D01*
X199471Y94645D01*
X205469Y93645D02*
Y94645D01*
X206469D01*
Y93645D01*
X205469D01*
X210468Y98643D02*
X211467Y99643D01*
X213467D01*
X214466Y98643D01*
Y94645D01*
X213467Y93645D01*
X211467D01*
X210468Y94645D01*
Y98643D01*
X216466D02*
X217465Y99643D01*
X219465D01*
X220464Y98643D01*
Y94645D01*
X219465Y93645D01*
X217465D01*
X216466Y94645D01*
Y98643D01*
X222464Y93645D02*
Y97644D01*
X223464D01*
X224463Y96644D01*
Y93645D01*
Y96644D01*
X225463Y97644D01*
X226463Y96644D01*
Y93645D01*
X228462D02*
Y97644D01*
X229462D01*
X230461Y96644D01*
Y93645D01*
Y96644D01*
X231461Y97644D01*
X232461Y96644D01*
Y93645D01*
X342575Y143338D02*
Y139339D01*
X338577Y143338D01*
X337577D01*
X336577Y142338D01*
Y140339D01*
X337577Y139339D01*
X336577Y145337D02*
Y149336D01*
X337577D01*
X341576Y145337D01*
X342575D01*
Y151336D02*
X341576D01*
Y152335D01*
X342575D01*
Y151336D01*
X336577Y160333D02*
Y156334D01*
X339576D01*
X338577Y158333D01*
Y159333D01*
X339576Y160333D01*
X341576D01*
X342575Y159333D01*
Y157334D01*
X341576Y156334D01*
X337577Y162332D02*
X336577Y163332D01*
Y165331D01*
X337577Y166331D01*
X341576D01*
X342575Y165331D01*
Y163332D01*
X341576Y162332D01*
X337577D01*
X342575Y168330D02*
X338577D01*
Y169330D01*
X339576Y170329D01*
X342575D01*
X339576D01*
X338577Y171329D01*
X339576Y172329D01*
X342575D01*
Y174328D02*
X338577D01*
Y175328D01*
X339576Y176327D01*
X342575D01*
X339576D01*
X338577Y177327D01*
X339576Y178327D01*
X342575D01*
D15*
X173760Y179528D02*
D03*
X180768D02*
D03*
X241299Y145276D02*
D03*
X234291D02*
D03*
X283996Y148900D02*
D03*
X291004D02*
D03*
X269823Y165748D02*
D03*
X276831D02*
D03*
X213032Y129724D02*
D03*
X220039D02*
D03*
Y116929D02*
D03*
X213032D02*
D03*
X234291D02*
D03*
X241299D02*
D03*
X176043Y169685D02*
D03*
X169035D02*
D03*
X188248Y189665D02*
D03*
X181240D02*
D03*
X191201Y208760D02*
D03*
X184193D02*
D03*
D18*
X114469Y153189D02*
D03*
Y160197D02*
D03*
X153543Y160984D02*
D03*
Y153976D02*
D03*
X202756Y190512D02*
D03*
Y183504D02*
D03*
X251181Y153386D02*
D03*
Y160394D02*
D03*
X153543Y143661D02*
D03*
Y136653D02*
D03*
X216535Y142165D02*
D03*
Y149173D02*
D03*
Y162933D02*
D03*
Y169941D02*
D03*
D57*
X189272Y146358D02*
D03*
X187303D02*
D03*
X185335D02*
D03*
X183366D02*
D03*
X181398D02*
D03*
Y161713D02*
D03*
X183366D02*
D03*
X185335D02*
D03*
X187303D02*
D03*
X189272D02*
D03*
D58*
X177657Y150098D02*
D03*
Y152067D02*
D03*
Y154035D02*
D03*
Y156004D02*
D03*
Y157972D02*
D03*
X193012D02*
D03*
Y156004D02*
D03*
Y154035D02*
D03*
Y152067D02*
D03*
Y150098D02*
D03*
D59*
X185335Y154035D02*
D03*
M02*
