G04*
G04 #@! TF.GenerationSoftware,Altium Limited,Altium Designer,20.0.2 (26)*
G04*
G04 Layer_Color=8388736*
%FSLAX25Y25*%
%MOIN*%
G70*
G01*
G75*
%ADD13C,0.01000*%
%ADD14C,0.00600*%
%ADD25R,0.05367X0.06587*%
%ADD26R,0.07887X0.05249*%
%ADD27R,0.05249X0.07887*%
%ADD28R,0.06587X0.05367*%
%ADD29R,0.20485X0.14580*%
%ADD30R,0.12611X0.20485*%
%ADD31R,0.03202X0.06312*%
%ADD32R,0.16548X0.15800*%
%ADD33R,0.12611X0.08674*%
%ADD34R,0.05721X0.04737*%
%ADD35O,0.09461X0.05918*%
%ADD36C,0.05524*%
%ADD37R,0.14973X0.08674*%
%ADD38R,0.08674X0.14973*%
%ADD39R,0.07493X0.07493*%
%ADD40C,0.07493*%
%ADD41R,0.20485X0.12611*%
%ADD42R,0.07887X0.07887*%
%ADD43C,0.07887*%
%ADD44C,0.07887*%
D13*
X322835Y106299D02*
Y214567D01*
X106299Y106299D02*
X322835D01*
X106299Y214567D02*
X322835D01*
X106299Y106299D02*
Y214567D01*
Y97244D02*
X112299Y99244D01*
X106299Y97244D02*
X112299Y95244D01*
X316835D02*
X322835Y97244D01*
X316835Y99244D02*
X322835Y97244D01*
X106299D02*
X191873D01*
X234061D02*
X322835D01*
X106299Y96244D02*
Y104799D01*
X322835Y96244D02*
Y104799D01*
X336976Y112299D02*
X338976Y106299D01*
X340976Y112299D01*
X338976Y214567D02*
X340976Y208567D01*
X336976D02*
X338976Y214567D01*
Y106299D02*
Y137739D01*
Y179927D02*
Y214567D01*
X324335Y106299D02*
X339976D01*
X324335Y214567D02*
X339976D01*
D14*
X197472Y99643D02*
X193473D01*
Y96644D01*
X195473Y97644D01*
X196472D01*
X197472Y96644D01*
Y94645D01*
X196472Y93645D01*
X194473D01*
X193473Y94645D01*
X203470Y99643D02*
X199471D01*
Y96644D01*
X201471Y97644D01*
X202470D01*
X203470Y96644D01*
Y94645D01*
X202470Y93645D01*
X200471D01*
X199471Y94645D01*
X205469Y93645D02*
Y94645D01*
X206469D01*
Y93645D01*
X205469D01*
X210468Y98643D02*
X211467Y99643D01*
X213467D01*
X214466Y98643D01*
Y94645D01*
X213467Y93645D01*
X211467D01*
X210468Y94645D01*
Y98643D01*
X216466D02*
X217465Y99643D01*
X219465D01*
X220464Y98643D01*
Y94645D01*
X219465Y93645D01*
X217465D01*
X216466Y94645D01*
Y98643D01*
X222464Y93645D02*
Y97644D01*
X223464D01*
X224463Y96644D01*
Y93645D01*
Y96644D01*
X225463Y97644D01*
X226463Y96644D01*
Y93645D01*
X228462D02*
Y97644D01*
X229462D01*
X230461Y96644D01*
Y93645D01*
Y96644D01*
X231461Y97644D01*
X232461Y96644D01*
Y93645D01*
X342575Y143338D02*
Y139339D01*
X338577Y143338D01*
X337577D01*
X336577Y142338D01*
Y140339D01*
X337577Y139339D01*
X336577Y145337D02*
Y149336D01*
X337577D01*
X341576Y145337D01*
X342575D01*
Y151336D02*
X341576D01*
Y152335D01*
X342575D01*
Y151336D01*
X336577Y160333D02*
Y156334D01*
X339576D01*
X338577Y158333D01*
Y159333D01*
X339576Y160333D01*
X341576D01*
X342575Y159333D01*
Y157334D01*
X341576Y156334D01*
X337577Y162332D02*
X336577Y163332D01*
Y165331D01*
X337577Y166331D01*
X341576D01*
X342575Y165331D01*
Y163332D01*
X341576Y162332D01*
X337577D01*
X342575Y168330D02*
X338577D01*
Y169330D01*
X339576Y170329D01*
X342575D01*
X339576D01*
X338577Y171329D01*
X339576Y172329D01*
X342575D01*
Y174328D02*
X338577D01*
Y175328D01*
X339576Y176327D01*
X342575D01*
X339576D01*
X338577Y177327D01*
X339576Y178327D01*
X342575D01*
D25*
X158622Y144095D02*
D03*
X151614D02*
D03*
X187854Y134744D02*
D03*
X180847D02*
D03*
X267756Y113779D02*
D03*
X274764D02*
D03*
D26*
X314665Y167283D02*
D03*
Y155551D02*
D03*
D27*
X244528Y208169D02*
D03*
X256260D02*
D03*
D28*
X128000Y122504D02*
D03*
Y115496D02*
D03*
D29*
X234252Y160366D02*
D03*
X234253Y115090D02*
D03*
D30*
X195177Y117323D02*
D03*
X174606Y117421D02*
D03*
D31*
X243110Y175528D02*
D03*
X248110D02*
D03*
X253110D02*
D03*
X258110D02*
D03*
X258110Y197701D02*
D03*
X253110D02*
D03*
X248110D02*
D03*
X243110D02*
D03*
X226969Y197701D02*
D03*
X221969D02*
D03*
X216968D02*
D03*
X211968D02*
D03*
X211968Y175528D02*
D03*
X216968D02*
D03*
X221969D02*
D03*
X226969D02*
D03*
X159862Y133591D02*
D03*
X154862D02*
D03*
X149862D02*
D03*
X144862D02*
D03*
X144862Y111417D02*
D03*
X149862D02*
D03*
X154862D02*
D03*
X159862D02*
D03*
D32*
X250610Y189433D02*
D03*
X219468Y183795D02*
D03*
X152362Y119685D02*
D03*
D33*
X113091Y114567D02*
D03*
Y132087D02*
D03*
D34*
X179823Y208661D02*
D03*
X191437D02*
D03*
D35*
X147736Y200776D02*
D03*
Y192508D02*
D03*
Y184240D02*
D03*
D36*
X124114Y200382D02*
D03*
Y184634D02*
D03*
D37*
X145669Y210039D02*
D03*
D38*
X158268Y191929D02*
D03*
X133858D02*
D03*
D39*
X275571Y127756D02*
D03*
D40*
X295571D02*
D03*
D41*
X312008Y207677D02*
D03*
Y113287D02*
D03*
D42*
X191535Y198721D02*
D03*
D43*
X177756D02*
D03*
D44*
X137205Y170177D02*
D03*
Y150492D02*
D03*
Y160335D02*
D03*
X127362Y170177D02*
D03*
Y160335D02*
D03*
Y150492D02*
D03*
M02*
