G04*
G04 #@! TF.GenerationSoftware,Altium Limited,Altium Designer,20.0.2 (26)*
G04*
G04 Layer_Color=128*
%FSLAX25Y25*%
%MOIN*%
G70*
G01*
G75*
%ADD10C,0.01000*%
%ADD11C,0.00600*%
%ADD12C,0.00200*%
D10*
X322835Y106299D02*
Y214567D01*
X106299Y106299D02*
X322835D01*
X106299Y214567D02*
X322835D01*
X106299Y106299D02*
Y214567D01*
X336976Y112299D02*
X338976Y106299D01*
X340976Y112299D01*
X338976Y214567D02*
X340976Y208567D01*
X336976D02*
X338976Y214567D01*
Y106299D02*
Y137739D01*
Y179927D02*
Y214567D01*
X324335Y106299D02*
X339976D01*
X324335Y214567D02*
X339976D01*
X106299Y97244D02*
X112299Y99244D01*
X106299Y97244D02*
X112299Y95244D01*
X316835D02*
X322835Y97244D01*
X316835Y99244D02*
X322835Y97244D01*
X106299D02*
X191873D01*
X234061D02*
X322835D01*
X106299Y96244D02*
Y104799D01*
X322835Y96244D02*
Y104799D01*
D11*
X342575Y143338D02*
Y139339D01*
X338577Y143338D01*
X337577D01*
X336577Y142338D01*
Y140339D01*
X337577Y139339D01*
X336577Y145337D02*
Y149336D01*
X337577D01*
X341576Y145337D01*
X342575D01*
Y151336D02*
X341576D01*
Y152335D01*
X342575D01*
Y151336D01*
X336577Y160333D02*
Y156334D01*
X339576D01*
X338577Y158333D01*
Y159333D01*
X339576Y160333D01*
X341576D01*
X342575Y159333D01*
Y157334D01*
X341576Y156334D01*
X337577Y162332D02*
X336577Y163332D01*
Y165331D01*
X337577Y166331D01*
X341576D01*
X342575Y165331D01*
Y163332D01*
X341576Y162332D01*
X337577D01*
X342575Y168330D02*
X338577D01*
Y169330D01*
X339576Y170329D01*
X342575D01*
X339576D01*
X338577Y171329D01*
X339576Y172329D01*
X342575D01*
Y174328D02*
X338577D01*
Y175328D01*
X339576Y176327D01*
X342575D01*
X339576D01*
X338577Y177327D01*
X339576Y178327D01*
X342575D01*
X197472Y99643D02*
X193473D01*
Y96644D01*
X195473Y97644D01*
X196472D01*
X197472Y96644D01*
Y94645D01*
X196472Y93645D01*
X194473D01*
X193473Y94645D01*
X203470Y99643D02*
X199471D01*
Y96644D01*
X201471Y97644D01*
X202470D01*
X203470Y96644D01*
Y94645D01*
X202470Y93645D01*
X200471D01*
X199471Y94645D01*
X205469Y93645D02*
Y94645D01*
X206469D01*
Y93645D01*
X205469D01*
X210468Y98643D02*
X211467Y99643D01*
X213467D01*
X214466Y98643D01*
Y94645D01*
X213467Y93645D01*
X211467D01*
X210468Y94645D01*
Y98643D01*
X216466D02*
X217465Y99643D01*
X219465D01*
X220464Y98643D01*
Y94645D01*
X219465Y93645D01*
X217465D01*
X216466Y94645D01*
Y98643D01*
X222464Y93645D02*
Y97644D01*
X223464D01*
X224463Y96644D01*
Y93645D01*
Y96644D01*
X225463Y97644D01*
X226463Y96644D01*
Y93645D01*
X228462D02*
Y97644D01*
X229462D01*
X230461Y96644D01*
Y93645D01*
Y96644D01*
X231461Y97644D01*
X232461Y96644D01*
Y93645D01*
D12*
X146555Y200776D02*
X148917D01*
X147736Y199594D02*
Y201957D01*
X146555Y192508D02*
X148917D01*
X147736Y191327D02*
Y193689D01*
X146555Y184240D02*
X148917D01*
X147736Y183059D02*
Y185421D01*
X121752Y200382D02*
X126476D01*
X124114Y198020D02*
Y202744D01*
X121752Y184634D02*
X126476D01*
X124114Y182272D02*
Y186996D01*
X139764Y210039D02*
X151575D01*
X145669Y204134D02*
Y215945D01*
X152362Y191929D02*
X164173D01*
X158268Y186024D02*
Y197835D01*
X127953Y191929D02*
X139764D01*
X133858Y186024D02*
Y197835D01*
X273799Y127756D02*
X277343D01*
X275571Y125984D02*
Y129528D01*
X293799Y127756D02*
X297342D01*
X295571Y125984D02*
Y129528D01*
X310236Y207677D02*
X313779D01*
X312008Y205906D02*
Y209449D01*
X310236Y113287D02*
X313779D01*
X312008Y111516D02*
Y115059D01*
X189764Y198721D02*
X193307D01*
X191535Y196949D02*
Y200492D01*
X175984Y198721D02*
X179527D01*
X177756Y196949D02*
Y200492D01*
X134843Y170177D02*
X139567D01*
X137205Y167815D02*
Y172539D01*
X134843Y150492D02*
X139567D01*
X137205Y148130D02*
Y152854D01*
X134843Y160335D02*
X139567D01*
X137205Y157973D02*
Y162697D01*
X125000Y170177D02*
X129724D01*
X127362Y167815D02*
Y172539D01*
X125000Y160335D02*
X129724D01*
X127362Y157973D02*
Y162697D01*
X125000Y150492D02*
X129724D01*
X127362Y148130D02*
Y152854D01*
X143888Y148819D02*
X145088D01*
X144488Y148219D02*
Y149419D01*
X278928Y200787D02*
X280128D01*
X279528Y200187D02*
Y201387D01*
X278928Y204724D02*
X280128D01*
X279528Y204124D02*
Y205324D01*
X278928Y208661D02*
X280128D01*
X279528Y208061D02*
Y209261D01*
X274991Y208661D02*
X276190D01*
X275590Y208061D02*
Y209261D01*
X274991Y204724D02*
X276190D01*
X275590Y204124D02*
Y205324D01*
X274991Y200787D02*
X276190D01*
X275590Y200187D02*
Y201387D01*
X271054Y200787D02*
X272253D01*
X271654Y200187D02*
Y201387D01*
X271054Y204724D02*
X272253D01*
X271654Y204124D02*
Y205324D01*
X271054Y208661D02*
X272253D01*
X271654Y208061D02*
Y209261D01*
X168691Y200787D02*
X169891D01*
X169291Y200187D02*
Y201387D01*
X168691Y204724D02*
X169891D01*
X169291Y204124D02*
Y205324D01*
X168691Y133858D02*
X169891D01*
X169291Y133258D02*
Y134458D01*
X129321Y137795D02*
X130521D01*
X129921Y137195D02*
Y138395D01*
X125384Y133858D02*
X126584D01*
X125984Y133258D02*
Y134458D01*
X121447Y133858D02*
X122647D01*
X122047Y133258D02*
Y134458D01*
X125384Y137795D02*
X126584D01*
X125984Y137195D02*
Y138395D01*
X121447Y137795D02*
X122647D01*
X122047Y137195D02*
Y138395D01*
X113573Y204724D02*
X114773D01*
X114173Y204124D02*
Y205324D01*
X109636Y204724D02*
X110836D01*
X110236Y204124D02*
Y205324D01*
X109636Y200787D02*
X110836D01*
X110236Y200187D02*
Y201387D01*
X113573Y200787D02*
X114773D01*
X114173Y200187D02*
Y201387D01*
X117510Y200787D02*
X118710D01*
X118110Y200187D02*
Y201387D01*
X117510Y204724D02*
X118710D01*
X118110Y204124D02*
Y205324D01*
X117510Y208661D02*
X118710D01*
X118110Y208061D02*
Y209261D01*
X113573Y208661D02*
X114773D01*
X114173Y208061D02*
Y209261D01*
X109636Y208661D02*
X110836D01*
X110236Y208061D02*
Y209261D01*
X318298Y181102D02*
X319498D01*
X318898Y180502D02*
Y181702D01*
X318298Y185039D02*
X319498D01*
X318898Y184439D02*
Y185639D01*
X318298Y188976D02*
X319498D01*
X318898Y188376D02*
Y189576D01*
X314361Y188976D02*
X315561D01*
X314961Y188376D02*
Y189576D01*
X314361Y185039D02*
X315561D01*
X314961Y184439D02*
Y185639D01*
X314361Y181102D02*
X315561D01*
X314961Y180502D02*
Y181702D01*
X310424Y181102D02*
X311624D01*
X311024Y180502D02*
Y181702D01*
X310424Y185039D02*
X311624D01*
X311024Y184439D02*
Y185639D01*
X310424Y188976D02*
X311624D01*
X311024Y188376D02*
Y189576D01*
X318298Y133858D02*
X319498D01*
X318898Y133258D02*
Y134458D01*
X318298Y137795D02*
X319498D01*
X318898Y137195D02*
Y138395D01*
X318298Y141732D02*
X319498D01*
X318898Y141132D02*
Y142332D01*
X310424Y133858D02*
X311624D01*
X311024Y133258D02*
Y134458D01*
X310424Y137795D02*
X311624D01*
X311024Y137195D02*
Y138395D01*
X310424Y141732D02*
X311624D01*
X311024Y141132D02*
Y142332D01*
X314361Y133858D02*
X315561D01*
X314961Y133258D02*
Y134458D01*
X314361Y141732D02*
X315561D01*
X314961Y141132D02*
Y142332D01*
X314361Y137795D02*
X315561D01*
X314961Y137195D02*
Y138395D01*
X167609Y179528D02*
X168809D01*
X168209Y178928D02*
Y180128D01*
X184735Y181102D02*
X185935D01*
X185335Y180502D02*
Y181702D01*
X181093Y172441D02*
X182293D01*
X181693Y171841D02*
Y173041D01*
X113770Y146653D02*
X114970D01*
X114370Y146054D02*
Y147254D01*
X197136Y134547D02*
X198336D01*
X197736Y133947D02*
Y135147D01*
X250384Y142421D02*
X251584D01*
X250984Y141821D02*
Y143021D01*
X250483Y148031D02*
X251683D01*
X251083Y147432D02*
Y148632D01*
X262884Y184055D02*
X264084D01*
X263484Y183455D02*
Y184655D01*
X297431Y149056D02*
X298632D01*
X298031Y148456D02*
Y149656D01*
X276565Y148819D02*
X277765D01*
X277165Y148219D02*
Y149419D01*
X215935Y154235D02*
X217135D01*
X216535Y153635D02*
Y154835D01*
X202900Y177800D02*
X204100D01*
X203500Y177200D02*
Y178400D01*
X201400Y166600D02*
X202600D01*
X202000Y166000D02*
Y167200D01*
X204223Y162795D02*
X205423D01*
X204823Y162195D02*
Y163395D01*
X168396Y162992D02*
X169596D01*
X168996Y162392D02*
Y163592D01*
X170266Y148524D02*
X171466D01*
X170866Y147924D02*
Y149124D01*
X282227Y165748D02*
X283427D01*
X282827Y165148D02*
Y166348D01*
X261097Y113622D02*
X262297D01*
X261697Y113022D02*
Y114222D01*
X257400Y170000D02*
X258600D01*
X258000Y169400D02*
Y170600D01*
X211400Y204000D02*
X212600D01*
X212000Y203400D02*
Y204600D01*
X226400Y204000D02*
X227600D01*
X227000Y203400D02*
Y204600D01*
X221400Y204000D02*
X222600D01*
X222000Y203400D02*
Y204600D01*
X216400Y204000D02*
X217600D01*
X217000Y203400D02*
Y204600D01*
M02*
