G04*
G04 #@! TF.GenerationSoftware,Altium Limited,Altium Designer,20.0.2 (26)*
G04*
G04 Layer_Color=8388736*
%FSLAX25Y25*%
%MOIN*%
G70*
G01*
G75*
%ADD24R,0.05367X0.06587*%
%ADD25R,0.07887X0.05249*%
%ADD26R,0.05249X0.07887*%
%ADD27R,0.06587X0.05367*%
%ADD28R,0.20485X0.14580*%
%ADD29R,0.12611X0.20485*%
%ADD30R,0.03202X0.06312*%
%ADD31R,0.16548X0.15800*%
%ADD32R,0.12611X0.08674*%
%ADD33R,0.05721X0.04737*%
%ADD34O,0.09461X0.05918*%
%ADD35C,0.05524*%
%ADD36R,0.14973X0.08674*%
%ADD37R,0.08674X0.14973*%
%ADD38R,0.07493X0.07493*%
%ADD39C,0.07493*%
%ADD40R,0.20485X0.12611*%
%ADD41R,0.07887X0.07887*%
%ADD42C,0.07887*%
%ADD43C,0.07887*%
D24*
X158622Y144095D02*
D03*
X151614D02*
D03*
X187854Y134744D02*
D03*
X180847D02*
D03*
X267756Y113779D02*
D03*
X274764D02*
D03*
D25*
X314665Y167283D02*
D03*
Y155551D02*
D03*
D26*
X244528Y208169D02*
D03*
X256260D02*
D03*
D27*
X128000Y122504D02*
D03*
Y115496D02*
D03*
D28*
X234252Y160366D02*
D03*
X234253Y115090D02*
D03*
D29*
X195177Y117323D02*
D03*
X174606Y117421D02*
D03*
D30*
X243110Y175528D02*
D03*
X248110D02*
D03*
X253110D02*
D03*
X258110D02*
D03*
X258110Y197701D02*
D03*
X253110D02*
D03*
X248110D02*
D03*
X243110D02*
D03*
X226969Y197701D02*
D03*
X221969D02*
D03*
X216968D02*
D03*
X211968D02*
D03*
X211968Y175528D02*
D03*
X216968D02*
D03*
X221969D02*
D03*
X226969D02*
D03*
X159862Y133591D02*
D03*
X154862D02*
D03*
X149862D02*
D03*
X144862D02*
D03*
X144862Y111417D02*
D03*
X149862D02*
D03*
X154862D02*
D03*
X159862D02*
D03*
D31*
X250610Y189433D02*
D03*
X219468Y183795D02*
D03*
X152362Y119685D02*
D03*
D32*
X113091Y114567D02*
D03*
Y132087D02*
D03*
D33*
X179823Y208661D02*
D03*
X191437D02*
D03*
D34*
X147736Y200776D02*
D03*
Y192508D02*
D03*
Y184240D02*
D03*
D35*
X124114Y200382D02*
D03*
Y184634D02*
D03*
D36*
X145669Y210039D02*
D03*
D37*
X158268Y191929D02*
D03*
X133858D02*
D03*
D38*
X275571Y127756D02*
D03*
D39*
X295571D02*
D03*
D40*
X312008Y207677D02*
D03*
Y113287D02*
D03*
D41*
X191535Y198721D02*
D03*
D42*
X177756D02*
D03*
D43*
X137205Y170177D02*
D03*
Y150492D02*
D03*
Y160335D02*
D03*
X127362Y170177D02*
D03*
Y160335D02*
D03*
Y150492D02*
D03*
M02*
