M48
;Layer_Color=9474304
;FILE_FORMAT=2:5
INCH,LZ
;TYPE=PLATED
T1F00S00C0.01200
T4F00S00C0.03543
T6F00S00C0.04724
;TYPE=NON_PLATED
T7F00S00C0.04724
%
T01
X0122047Y0133858
X0125984
Y0137795
X0129921
X0122047
X011437Y0146653
X0144488Y0148819
X0170866Y0148524
X0169291Y0133858
X0197736Y0134547
X0216535Y0154235
X0251083Y0148031
X0250984Y0142421
X0277165Y0148819
X0298031Y0149056
X0311024Y0141732
Y0137795
Y0133858
X0261697Y0113622
X0314961Y0133858
X0318898
Y0137795
Y0141732
X0314961
Y0137795
Y0181102
X0318898
Y0185039
Y0188976
X0314961
Y0185039
X0311024
Y0181102
Y0188976
X0279528Y0200787
Y0204724
Y0208661
X027559
Y0204724
Y0200787
X0271654
Y0204724
Y0208661
X0263484Y0184055
X0258Y017
X0282827Y0165748
X0204823Y0162795
X0202Y01666
X02035Y01778
X0185335Y0181102
X0181693Y0172441
X0168209Y0179528
X0168996Y0162992
X0169291Y0200787
Y0204724
X0212Y0204
X0217
X0222
X0227
X011811Y0204724
X0114173
X0110236
Y0200787
X0114173
X011811
Y0208661
X0114173
X0110236
T04
X0275571Y0127756
X0295571
X0312008Y0113287
Y0207677
X0191535Y0198721
X0177756
T06
X0127362Y0150492
X0137205
Y0160335
Y0170177
X0127362
Y0160335
T07
X0124114Y0184634
Y0200382
M30
